<mxfile host="65bd71144e">
    <diagram id="RrwXUrOBsvkIb2rMTY8V" name="第 1 页">
        <mxGraphModel dx="1375" dy="825" grid="1" gridSize="10" guides="1" tooltips="1" connect="1" arrows="1" fold="1" page="1" pageScale="1" pageWidth="827" pageHeight="1169" math="0" shadow="0">
            <root>
                <mxCell id="0"/>
                <mxCell id="1" parent="0"/>
                <mxCell id="sV2zp9CzRk4rJG-wNQsg-2" value="" style="shape=image;verticalLabelPosition=bottom;labelBackgroundColor=default;verticalAlign=top;aspect=fixed;imageAspect=0;image=data:image/png,iVBORw0KGgoAAAANSUhEUgAAAY0AAAFUCAYAAADYlmA2AAABgGlDQ1BJQ0MgUHJvZmlsZQAAKJFjYGCqSCwoyGFhYGDIzSspCnJ3UoiIjFJgv8PAzcDDIMRgxSCemFxc4BgQ4MOAE3y7xsAIoi/rgsxqOqd2d+pGwehjat+yq+1cc3DrAwPulNTiZAYGRg4gOyWlODkXyAbp0UsuKCoBsucA2brlJQUg9hkgW6QI6EAg+wGInQ5hfwGxk8BsJg6wmpAgZyBbBsgWSIKwdUDsdAjbBsROzkhMAbJB/tKBuAEMuIJdFAzNDXx1HQk4nFSQm1MKswMUWjypeaHBQFoIiGUYghlcGBQYDBnMGQwYfBl0GYCWl6RWlIAUO+cXVBZlpmeUKDgCQzdVwTk/t6C0JLVIR8EzL1lPR8HIwNAApA4UbxDjPweBbWAUO48Qy5rMwGDxhoGBuQohlrKcgWGLPQODeDBCTH020EnvGRh2hBckFiXCHc/4jYUQvzjN2AjC5nFiYGC99///ZzUGBvZJDAx/J/7//3vR//9/FwPtv8PAcCAHALbUa30s2MP4AAAAOGVYSWZNTQAqAAAACAABh2kABAAAAAEAAAAaAAAAAAACoAIABAAAAAEAAAGNoAMABAAAAAEAAAFUAAAAACGDOYIAAEAASURBVHgB7F0HfBTF9//m0nsvlAAh9F6UqqCASAeRIioCKiCiiL39LVgBC/5ULEixoVJEEFBURBEBAelSQyghAUJ678l/vnPZy93lLrmEljIvn8vOTt/v7r43773ZGbvQ0NAi1GB66KGHsHjxYmRmZl7xqxw6dCgaN26MH3/8EadOnbri7V3pBtq2bYu+fftiz549+Ouvv65Ic02bNsWgQYOQl5cHJycnxMTEYOXKlSgqqtGP5RXBUlWqELgaCNjVdKFxNUDU2nB0dER+fn6NYXg6nU5eWmFhoXaJV+TIdvz9/ZGWlobs7Owr0oaqVCGgELg8CCihcXlwVLUoBBQCCoFagYB+KFkrLlVdpEJAIaAQUAhcKgJKaFwqgqq8QkAhoBCoRQgYhEZwcHAtumx1qQoBhYBCQCFQGQQcKlNIlVEIKAQUAuUh8PS6l8rLUip9zpBZpeJURNVCQAmNqnU/VG8UAjUKga+PLbf5eu5uPsbmvCrjtUPAYJ66dl1QLSsELg8CQ3vlI8S/en3f0cCtPoJdgkwAcLF3RnufNiZxVenEw8EdPQO7oXfQDVWpW6ovVwmBGi00nJwcxIdj15X6OTs7XiV4r1wzder4YsGChxEc7HNZGvHz85Q4ubs7G+rr0KExevRoaTi/XIGbbmqLjz+ebqju0UdHYOnSJ+Rv3LjehviKBPp3y8f8p7Nhb1+RUrblbdyjP0bO/RbjF/+B8B632lbIhlwUDp90+R8auTcwyV1QVIg3O8xCN//rTeKrysnn3T/FM60eQ9eAqtm/qoJTTe1HjTZPBQR4Y+bM4fLe2dnZGT66O3QoCmfOXKzS93TJkpmIi0vFU08ttthPb293NGoUBE9PV8TGJlvMU5HIzp2bgMw7KioO//13RhZ96KEh4qM7T9x22+sVqarcvA0bBiE8PMSQb/fuE0hNzcTo0TegadO6hviKBGZNzcWhk/aIuWhXkWLl5nVydcfglxYgOfokYo/uQ0bi5XtuhtUbjMyCLOxM2G3Sj7zCPKyOXoepTe/FPwm7TNKu9QkFnI+jNx7c9SiOp5241t1R7V8DBKqVphEaGoCAAC+LMHGEzHRjOncuAf37v4AXXvhKRs+a9a08NxYYrq7OCAz0lukhIb7GxQ3hoCAfeHi4Gs6NA5baNU5n2N5eJ5YXCZFHLU2L8/Fx16JMji4uTnBxsa4RHT0aLa/lxInzJuVsOdHa5rGiVLeuP/izRqzTmvZjDce//voPixb9KpYSybdWrUUMtczXtSpAvaBCzF7ipEVZPOqEGhLQuCV09qZjJSd3T/iGhlss07zfSHDA8c20gfh17qO4cHSvxXyViRwfdgeWnfkeReLPnFZGrUaoMF219WltnlTpczuHsvGxpWI3BzeZ7UJ2rC3ZVZ4aiIDp23ONLvDnn2dh7dqd+Oij9bIHq1Y9j/37T2HWrG/k+fjxfUCzhaOj3vYQE5OAiRPnyTQy3ffem4J69fSMLDc3H88++wUOHDhV5tW0bdsI7757PwoLi6DT2SExMQ000SQlpeOOO+agXbswvPXWvUhOToePj4esa9euCDz33Bc2tduoUTA+++xh/P33YfTs2VIynszMHAwf/iqmTx8sjt1kHCtLT88So/yFOH06FrNnTwRH/SQKyN9+e02Gp02bD01AEC8HBz0WxvHEafz4mzFmzGzR7wxZ7pVX7pb1DR78suG8e/cWMsz1nRYv/g3fffeXPC/rX9euzcT9uEswb327BQWFeOedH0T/9EyUfaLGU7eun7yuCxeS5D1iPjc3Z4HFDAQFecsm0tKyymqqVBqvoaw+0zRF2rxH3zfjCvwbNcddC35F5NYNaCxMSxQAuZnp+GREa7j6+GP0e6vgU7eRLFKQm4PVz92DmAP/IKhZO9zx4VpDVdPXHZfhrQtnY/fyjw3xlQ0EOgfA1d4Vh1OOWKwiMTcJGfmZaOvdGgeTD1nMYx6pc3KFnUOJedE4vSg/B+EPf4fMU3uQ8M8yZJ87apxsc9hFp6+/tJizuQqVsZojUPGh5hW4YL7IZNwacbTq4FDStbvvvhnHj8dg2LBXBVN8B+vXl6jsr712D0JCfITgWCOY8cfFDHi4VpXVozbKfuut76VgIGN77LGF8PX1QOvWDQ3luC7So49+hi1bDuH665sKxqf3IZTXrnY93bs3x+rV/2Dq1A/FQoY7ZL3R0Ql4++0fMERML2Sb1Cqee04/c4Ra0YgRr0ohduLEORnmuSYwWMG4cXPx8st6gaqtD8X4Vau28iCExo3yyH8UQP/9d1qeU6iQ+f7ww3bcc887UjBPnNjXRAN64417RPrz8hcaGijL8V9GRo4QLluECelNTJgwT5jOUkTfRxjSeQ95H954Yznef/9HEfYVwrKVTB8ypIsUGAsX/oI331whhYihYDkBW/rctkkRsnIsV2RXvH5WWLd+2L96Cb55YAAOrv1SZh726hJ4BdfHpveexXcPDUV2egr6zHxTpl08fgCf3NYGO5f+T54zzN/e7xdYbqiCsWEejWSJqMwYqyWjRVq4Z5jVdPOEkAGPIPzBryz+7BwcEffHQjj61kWDO98Seb6Gf/exoKCxlahlDK43AKl5qUjLS7O1mMpXwxCoEppGeZjm5xdIk0fHjo2xY8cxrFjxt6FIs2Z1haDIBp22/KWkZCIsLBi0+aek6EfbhswWAlu3HhHCqCu8vNxw8OBp6fegeSU+PlXm/umnf6WN/8iRs9iw4RUMGNAJX365Cba2u3NnhEGDOnnygqxzzRoxkhXCZ+zYG0H7fnZ2nvQdMDEvr0D+qAExTGZtTtQiqAGZE/OePRuPPn3aCyf5BlA74GSAb7/VaxLsO+ulYLz33v5i5d8cqTlwsgD7QKK/R7v2Xr1KZvDQz8H+9+3bXmphNCVR26HwpTZBOno0Bn/+eVCGH3xwsBRQND3dcEMrqfksW7ZFpo0Y0Q0tWtSX4fL+ldVnaqekIN9CZGSVDDos1Xl65x/46+NZMin+pH50T20iRwiK0I495C8rJREBYS3g6u0HhnMz0pBXvIAiw5eTAl38ZXVlMd/E3EQEuZQI7vLav/DLB7DfvMRitoKsNCTvWSt/jt7B8L1+pPjdDr8edyJh61Ik/rPcYjktcnzYOEwIuxMFRQV4au//adHqWAsRqBZC44MP1mLatEHSPEKmt3btDnz44TrJ6DnCJdPS7OjZ2bkgg3d3d7FJaOTk5IqVaQsMjI8rchvPriKzJLEN1k2zFQWMre1u2rS/1GP1zDOjJfMl8z9/PlFqWTpdadNKqYI2RBCb6dOHSKE0atQNyBJD8H37TsqS9MsYY8VIYpWVlWswlS1d+qfBEd6yZahBmHHG0/PPj5WC5ty5RANG9Ltogi0yssS/QjOhh4eLbJcaC69To1OnYm0WGmX1WavvzAUdGtYp0E4tHo9tWmMS7+LlK6+5qKAAnkLbIOXnZEmfhbO7lxQaJgUu80l0hl7D8Hf2Q0JOCTbGzYS4BCMiXX/vjOOthe1dPODoZTp9V8ubnxZnmAhSVFiAogIxSBBHOzsd7HTls4EVUT9gl3DYP97iYTzcfBru3zFdq1odaxkC5T8tVwEQMjJqBiSOXF1dTR12GzbsFqP83ahfPwAvvjhOagaLFv0mZ9zQLk+GNGPGp1ekp2Sc1G7YLwoTMlnO9LG1Xc23YNy5Pn3aYdu2I3jppaUyeuXKZ4W/xvRWUDiaxxnXYS3M0fe0aYNx5529Qb8NR/oa0XdCnC1hdcstHbVsFo9Tpw6U2s3o0bNl+muvjTeY6rQC1vbAOHs2DpwirBE1QUuUn19Y6t6X1WetjgMROvTrIjQf+yLkF1jWOLJSErTs8pidmiTvYcqFKCyfUWJmM8lUzom7u7t4FochJydHmAZXlZPbNPlUhn4wQme3NaFRz60uNpzfaFqwjLOAG++BZ4teFnNEzr8Lns1vgE+noXDyq4+CrFQk7V2HpH9XozCnfI08uyAbR1OP4/NTSzGr7fPSH5MlZn4pqn0IlDgOruG107FN2ztnPz3xhH62itYdMutHHhkmndSxsUnSls40zSkeGXlBmopGjuwhGXurVg3k1FHmYdmuXZujZcsGPJWjW55rZWVkOf8GD74eTZrUMfRL86eU1W45VYKjcG0m0aRJ/QwC07hcRESMNF2R8RvP3KKvhP3XBIo+bG/wCVEAHzsWjYEDr5PXT81Bo02bDkjBx6m0FB7sA/G2NoNLK8cjfRgUmpxp1q9fB4Oz3jiPtfDWrYdle3T+08/RrFk9i1mPH49GmzYN0alTuEFztKXPq//UC9wxt5StbZg3Gn/yMIKatkWH2+6TM6rqtOqMPo/qhaJ5XkvnQUFBYkLDcOHnGW0pucy4VOETiM2Ow/V+nS3ma+TeEE46J/ybuMdiuqXI8+vewvG3h1r8UbMI7DsV+WnxiF72LChEaJayRWAYt5WUq5/e7aRzNI5W4VqEgOnw9hpd+MqVWwWjHy5m8syU5g/a8jUikxw4sLNwGneRUTQlff/9VjnaZwQdx/PmTZbmK5qwSJy5Q6pTxw8cEWt0xx36UdjkyR9I274WzxGy8SiZo3yN6JDXPkSjmUeru6x2tbLWjrTt33VXb+lsZlsXL6YYTDlaGc5o6tgxXM7wYpw2S2ry5FtBs5NGnDlGYn5OWyWtWrVNmpKo5RhPL2Z6eHgdOXOLDJxErD//fKPJ9csE8U+Pi/5s4cJf8frr4/HNN0/KCH7P0aBBoMij5bZ+XLduJ26/vScorEjUHmg+NCe2QU1yzpxJ0ow2YMCL8pqs9Vkrf/qcDvuO6/Dw2Bx8s8H2R3rtC/di1Lsr0Wvai/LH+lIvnNWqLffIjaNI3HirMrQw8nM82fIRLDn5FfKLTOsY13AU9iTtx5kM2/tTVh8Kc7MQ+cEd4PFSKC1P70sL9wiT/SuvLrU0SHkIVb90wyZMXOU2Nvbazb2mVkDbN6edWiI6jDmqNp5FZJyPfgYysejoeOl0NU6rTJhOdU655awnOn1pt+e0XHOqbLu8Xn67QT+AsZAyr/9KnNM53qRJXTG9OE2Y9vQC1tZ22Gdqhjk5ese5reWYj5qkNRzLq6e8PrcOL8TP72diyExXHIiwL686k3T6N/waNEGS+IAvK9nUjGWS0eyEWwnfcMMNWLduHb7++muz1PJP7WCHZTd8IYTG1/j5nF7gs5SHgwdW9/oW03bNRERaZPkVXcUc9sIHsrDrfPkNSWTaKUzdNeMqtq6aqgoIVBmhURXAMO6DsdDQZj0Zp6tw1UPAw01Mvc0WEyMKr07f5s+fLyZFeIkpyBOE4K9co/Z2egHHWUkaUZg4CvNPbmGuFlWljuxfgLM/3BxcL5smVKUuUHWmTARs1+XLrKbmJSYkpEqthk5vRdUDgfRMy07wK9X7J554QgqLygoM9stYWGj95BfiVVVgsI/sX1xOPFB6Nrh2CepYgxFQmkYNvrnq0hQCCgGFwOVGoErMnrrcF6XqUwgoBBQCCoErg8A1Fxpqm9krc2NVrQoBhYBC4EogcM2FxpW4KFWnQkAhoBBQCFwZBJTQuDK4qloVAgoBhUCNREAJjbJuq5iMI6all/kTsw8NZO8olhrxciz3p7M3KiRKe4a4wd7J9Fa4eDvJeEPlZgE7fhnuVjL5jW17BltfsdTN1xmOriX5zaqzeOoT6gEHl5JvHuyd7OEX5mkxLyO967nDxatkCRi2F9BEvxy6pULMX9E+8bp9GnjI6oh1Wf2x1GZF4zyCXMFfWeTm52zok5bPVcR519UvjaPFWTo6ezoiuHXJEiuW8vDeWiLeHyd32+4p++JV181SNTbFsZ2AplbupXicg1v6iqXmS+69TZWqTNUSAdueuGp0aWQkLp5OSImxvJ4OX7TMxGyxgqnpF7iWLtGnvgfajwlHdqrl+fLOHo74b/UpJJ7Sf/RH5t+4Vx2TqhiXdsF02u7JLeeRHKX/slbnYIcOY8Xy5WtOIem0vh4y5053NZUM9d/PjyEjIdukTp7UaeePBl2C8M+CwzKN7bQb1RgHVp5E8tnSK+C2GRmG2ENJOPNPLOp1CkC99gEmdSaKtk/8UbJMNwVb25GNcejH03BwtkehWBcqIz4LrYeFYcv/DpiU1U5aDGqAE7/HGPAik6kr+hl/IkXLYnJscnM9nNkRi/iIFMlg294eJtbQ039irhMfPyaeTsXhtWdMygQ290GzfvWxdf5/aNQ9BE5CcGr4m2S8DCdk5s37h8qaIjbG4PxByx/+ufo4o/mAUGz/+LDhy/oG1wehSHztn3LO8nOoda9exwAh7N3kvdHizI+thzVCQV4hDq87I+vU0nn/U85l4sz2C1qUxaNvI0+0vS1Mph34Xjwfxc+ecWbiaGc0mGF7+dkl3464+bkg/Ka68l4Zl6NAY//YRkJkKnLS9O9KTnoeonZcNM4qwz0ebC2WbDEdNBlnKsgrwvZPDhlHqXAVQ6DGCY02w8OQnZJrUWhwhNp+dDh2LtIvjW3LvSjML0LaeVOmr5VzCufIq+QFCGrpY3FZDfOlNoJa+Bhe3Dpt/ZGXlW8QGKy7ab96ss3EM2nyhdz1xTETZsEXtfGNITi2oWSJCQqKY7+clYJjz9IIpF8sWS4iUDBvagDRe8TcetFdV29nKYhi9opzQRyte5mNioPEyDE/p0Ay7h7TWuP0tlgpNGQBs3/UkjgaZxss4x7gIvJmSy2DAtp4pJ6dLFYVzi1hRlpVZFhZSbnYvzJSRvmFeaFOGz8t2XBs2D1YChp7sbxLcCtfMQDIAYWVMaUJRhqzT39txvEVCTcUAolMee+3J7ieCjrc0RSuQls7ueUcP1SQxOsOvS5QhIXWJ7SqZv3rS6YZsy8B/uFeSI/LBvtLojA8u/OixKROu5Lr8gn1FJtC5QkBrWfqMnPxPwryGHHPjvwUhY53NkH7seGI3BQjrltfnm3W6+gPx2JtkIz+1N8lKw2zGmJPgUGBQy2t3e2NsfvL46UGIi0GNoC3GCSROJChIOeAwSqJ54jaBQUJr/PwWn1eZ/EMhPeuKwSZ5ZUd2Ge+f/k5hbKdblNaiYHPETkooTbTeXwzq02qhKqBQI0SGmR8fEmOipfMEoXdUEeMSlPFUhGWNQdLZYrEl77WRouamUQrx5cuelecwazEkTJHYWQWZIIkah31ryejESRePDKVyM3n5OifAoqmjgAhjKhBkLmGCAZBZnHw+1MoEOdckr3VkIbyGuLEi21MF48kg+YOai58MXMzhTYl2mgsXuzT2y7AI9BFMliOCClYNY3ESWhMxkKDzKVRjxBECa3Eq47ehFS/cwDqdvCXL3rHO5vKZql5HP81Gr4NPNFqaENZZ+vhjcRIUoedi4/At6GHEIgFwnSjN2mRKZABporRd9f7W8o6iE/skSTE7I6DvbNOaljaNSWeNF22hcLPVZjtzgmmzP6wbq5NRmGVcDJVK2bQdAwRFQjw+SEDZV//FcI6K1n/Bduuz4+i47im8G/iheNCWPOZ4HU6uDigbnt/xB1LltoAz939XaQQyUrKgbOHk9AK/QxCjPXFn9D3tU5bPylkLY3I2eXMYg2Tg4rdX0XAv7GXFD4UDiQKFZJ3fXf53FDAGBPxajGooXy+KARILkIT73R3M3HfzkrctfwHfzhlGJjwPeHAhPeIzxOJzwSp16PtwEGJv3hGG/XQC0SvEFd4hVBwFwkzq96cWb9zoLxHuen52LnEdJfAgKY+8ropnEgBTcV1iWdfE34yUv2rsgjUKKER1jNEjuAtmXPIDLzquImX77jNN4OqdtzxFMnEyVQvHk2SZQObeSMtNkuq48amq+h/4yST0ezsRcWmFhZydNW/TGQazEfiSNm+eAvbxjfWlUycdn62Q0ZEouDhqJ+mp73fRKDlkAbwFNcR+cc5WT72sL5PzEuGTQ0jVQimNmJ0uUfkpxlK8zO0HNxQmqfI1FgnBRTJWTBiY1MER49kFmmiLvaDfT65+bz01XAUSSFIolahEfFg/2jGoGmtschHs5SxeanjuCZylE6B9fcH/wkm3ARnd12UzDFUmHPSRR15wiRCMx21MTLuBl2DpJnDWZgcWwphmZOWB2cR37BbMPYvi5SCLFMwZ61PWn8qc2zSp568Xpo2aYqiKZM/jaKEKY0+GgrxcwcSpCnuhBj5s6/UxKhVkajN8loiNkZLHHmfabYjUQPjj/b/pn3rYf/ySINW3P2B1qBwMr4XLEO/WqFYqDPueLJk7A5CuKYK7Ve79x0EjmdE+5p2xdE8BR+FNp8TxrMPHECcFYMajvJpTgsRmtyRn6OQK0xJHOHzXrBO71B3KQR3f33csM8Kn8umwixIQcr+8RrSYzOlVkFNmMRBRd0OAaBJlUTNrJPQkMyJvjdqXpog4sCEpjyaQRVVfQRqjNAgI+TIX5oTLOAedkOIfNGMzTYWshmiONLSRtS0wXJURJMDiaMpPvg0wzBux2dH5CiTWgyFS3qc3jREpnr8t7PSmczyZ/65iGzBgDV/i2eQm2Q0TQWzYtnTWy/IekKFWYRqvkb7lp2QI1aes2zkn+ekIKC/JflshjSJkLlRWLG9s/9eRFBzwSRoRhEMh8ybPpAC4ZcgM2xyUz3JqC8KJkSi74YvOInMgYKCLzEpsJkP/vvhJJKEHZyMjsLNmo9CFij+x1Hjqb8vSKyoIUkSWpJm22EchSpHzWyb2g4ZcAfBkMmUKBxSz2cIE1GwFBqthzU0CCmao8jcONonoyLz8xI+HY2OCk2Ao/OKErGN2RMnzTSaA5++IjLtVGHyIl04lCjNgMZOXzK71iMaoVBcC58vjvxJZN68tqwUvbYiI8U/MstWQxuJwUGy4VlgGoUkNUljogms5/Q2sgyvd58wl10UWk2728PlvaKJkc/RQeHL0qiN6ItOmO92Lj4qtT/G029Col/rvBB4iUIzo3ZIrXXfdycQ8Vu0FIYU6MSSZjBqNvR/0D/BZ7lQLOplwFU8Hlxokw7/7g+0knXzevncaOfUxLT7LTMU/zsu2mJ9fCcocI/9EiU1DV4/zVWKqjYCNUZoNBSqshxlixfLnPiC0zy0f4XeXm6ebuncQwiFk3/p7cMUDhypaedU3+MjkqW2wbLuga7S5ELHL30UNPtQqNBRnnYhC81uqYcMYfflyJIaD000F4VJho5nagHXT2ohwuck8ydDifyzxCHN+vki5qTqV5XVTBBkqhf+SxQvfQNQqFCLYP80B7/mtGX++IhUdLm3hRCoEYZ3mFiRgejr148K5Yn4x/5RoyAdFALDkuNUJhr94/V2EdehOVMPrjolmRJ9DzR9kMgPDY5uwTB0giG2ECNemgupoVCT0Pb0ppCj0zuPJjZBNGERA2pBNOckRelNMxRtmQnC5CNMbhrRaV8ZoomJlJWcKLFlmM56kvEkAZ5rGiYHFLxnJ4RWQeFVkFso7kekNM3wGsgIqXVoxLwU9nwO6IOSAwR3vQmIeTiRgnWQ6J9g+K95B+Tz26BbkIxPic6Q5j/Wwzap9WgmK2b4b/VpobEJ3PRyX5Yx/0dBwAGWQ7E5iQKJzLzDHU2kYKDmWKedmDAhHPXUWC1RqhCyh9acRn3h16FQokChtnJuf6K817x/1HZ4zdoghPVQo6LZV7vXPae3NTm31JaKqzoI1AihQdOFfkSsZ07m8NKpSROLLcxPK8sZMRxlcqRHhx9ffF+hyZAp0vxFNZxMhuYUEu30JPohqO7nC5MPR5l8mWhv54wuvjxkeBQYJJ7TjESzQ522vsLfKhyqYoTO2U3GxPY0ld84nhpH18kthTmomWAaBdJpapzOMEfBHL3TPk7HrpMwO6ULQcbRMM9JFJAaaVqQJjQ4C6ilsIuTOOLm6JAvvUacPUbKEiPUI+vPSG2k+a20b0P6OzhyJOPhiJjXS0ZGsxgFJYnmkqidsdKGznNqaiFCQNNMI0nkJ1H4aX4hc02HGglHz5eDqEVqGiXrcxd+IBLNeRrRJ6RpT9SQaI+nJubbyEsySz4LZ8WovK1wOtP8uO+7EqZLLYDPFsuQKOCMGT6FhHZuvMeL1rZ2JNOn8HBto/eB0fGsCViDNqBlLuNoPCmB2hsHROwT79WJP6KFX6MV+AzQHGZMvO5u4tnjxAZqX3yum/SpK4ReXSEoxTRicQ8pUE9tMZ3Zte2jQ4Zq+Czx+aD/S8OjrGs2FFSBa4pAjRAatG9z5GfsDNVQ5UiPDzBnj1SEyMgpMFg3KVo4ah1FXRwhxh5OlAKETOy0mO6oMTE6uamiB4n2OOOK/eEImrOqaO4qEowisLm3DJOJchRGLYZmGmoO8aLNkNZ+8gXUZsFwKmPT4tGuef/JXKTpSWg3UcLPYOmFk+2J62DfEoQJLOlMumQC/P7CpXhePRmAtVEpTUY0dZDo56Df5KCYtqlRZlK21KhoUqL2or38TKcJglM8ySjP7U+QApeaBjWLnYuOStMIGT5nIHFUTgEnBYsoS2aiMT9jRqO1a3ykdkd/lUacHqtpAlqcrUf6Czh614j3h2QcR01SExr8nkbzZUhNqtisx5E6r58/hjXifaf2ef2k5jJK0xx5Qv8Np0Rr162VMT+6CVMstVb2bZcwQVH7un5ic+ks16a8mpex5bzZLfX12YRsbyi0GvppDq46KZ9J8/IcGNE/SDMen1mdeL452YIDLA4SKEziI1MMfhaWp+ANKDbxyvpEOyT23/j5o9aoDaz0OdT/qoRAtRcaZNIhbXxxTMwGsUQNugbLlzBeOLQrQk371JemBX73wNFfk5vFpkWCWfA5pw+AM0K4r0CjnsHyGwNOT6SAoDkmUzgJqflQ0yAT5Bx4mqdINFnxozwyE5qXaEYqEtYI5vEotjvLjOX844i41WBOk3SXs2PCetYBP+CjPV9jaKzi/AHRhvhRSHAEzRk7pAQxg4eztkh8mTXHu4ww+kcns0bUZthXzWejxfNIRz+1BDJRY+Koe/sn4vsFwUwpOPV1UHCU1EvfB00sncWsnpi9YrpqY/1sK05CoLmjPKJTlnZ+jbTRM58NjpzP7oqVgkpLL+tI4X3AyIxpzTyl1UGGqd1bDjLyBTMlUYujRkGiUNPMhZX9poQC20nMzKIWyj7RH3Jk3TE5Q+4/YSKiYOavIhM9ZOeK/4WKGX1BLYSGJ55rPiscHJwW2gsHAicuxphMCGARCniax6h1HRU+CfcAV/mOcAo0n/n930ei630tpTakDebkVPhijZx10H/D94RajLH5ivkUVV0Eqr3QoD2Vo1tONzUnvsRkhhwtWxqFm+c3Pj+6IUq+9CGCyZLR0gxlLx5uvhDegrm3Fd+DnN19UX4roZkTjMtzREkTQm5GHuoJUxaZOYn+DWoHHE3S6cwRrG9DTymgOGuIo3A6B/mRIolTTI2JLzRHchyd87uGHWLETrMETQucj999akuhFcVLcxDboDbEWWU0QdHExlGck4fe4UomT6KwYb00G/GlrwzRN8PvFCgYzIkMgUKRApNTMDWyE+YJEpkqZy5F/B4tmSAd+ofEx440u/kIoVieY5vaiuaf0ermkdNLOd2VDlw+A+URBbE2xVTLS02VxNG9MWUL57ZOp5P3irO4+FzQnJkhTDXNbw2V2i19TdTSeF8chFA1n+FFzLV7oNXtKaavcnYTKU98v8HnwU84pKlZ0F/FkfxhMUDhKJ4CnER86ccgxpUhXhuFK69DamjCPSS/ZSo2DbJOmpyMic/8UTHzikKz/egmctLCkfVR0rRGBzv9T/R3SOEjNBYK/yJxH+gH0UjTYKmVm/uhKFAq+s5q9arjlUWgck/Zle2TzbWTQdXvFCgdhsYjFa0CzhXnw3j+YKIWZfORdXMaIs1UtNtzJM9pobSd09RFsxFNV01uro9/PhPfVAihwm8uyDzJrB1cs1EgnLW54h2hNtDhjnDZNhnnhWIHtIdwoDMvX76UmHTJBDiKpLDRviJn/33q6ad9UkPpPrWVHP0dFi8oZ1xpaj0FB+fPk+HyGwuaOvitB+3KNA3FCcc9+xh2Yx3DdyQthaZiTCxXUTMey1Nr4kif38dI85wwx2lEzeP6iS2kL4QzdqhhkCF0E9dBhkwzhl8HTzFJ4YScoUQGSSKD3CWmbvJDR15DZYhmId4vbeZTeXXQmd9mRJjFbJo/RUvkM0GbPDUx+rlueFjvzGU6NTpOQ80qFsB0OPPbGWpd9ENoRIEY0kY/tZpx1HKa3RKqJctnj9ogJwvQX8TvO8jcmw9ogFZiQETSnnsKLZK1FQRkopV/9Hexj9ozx2yaQKIA9BKDGw4stIkCTKdwbdq3vny3OEmAsxcbicEJBScHLSRqGKyXy5dwANdqWCMZb/yPQsr840ymc2pvQa6R1DIupMLXFIFrvgnTpexNzhdFTmkUL6728hijKUeN4rkjE64U8T0sfm75MrANmkKM2+LoTn5EJ7JyxMYRqLFdn0yUzJHlSLRDkyFSWFgiOVIXTFUzMdH57ODsYMjPurQZUpbKa3EUTpW+blEJR8D8eE+bycN62ReaIWiyqAgRA472jeuicKUZiYLMmGj24DVa0nhYD++3NumA5Yg5TV7a7DLjuiiAqOVRa9FmbRmnX44w+8SZSrxv8vrEM8NrML8uTtYw9jdwejgnJGimtLL6wueYAqUUibbMp+gaP5vG+aXZUDzLFfX1cOahk5uj1CDSxfOgvQ/GdTNMrYnrW/HrcOPrNM+nzqs/AtVaaFR/+NUVKAQUAgqB6oVAaQN09eq/6q1CQCGgEFAIXEUElNC4imCrphQCCgGFQHVHQAmN6n4HVf8VAgoBhcBVREAJjasItmpKIaAQUAhUdwSU0Kjud1D1XyGgEFAIXEUElNC4imBXuCmd+I4hrBcy2o5BkZP+Q7wK16EKKAQUAgqBy4hAtf647zLiUCWrShj0NjJbDoXzuT1wjdwIO34pqEghoBBQCFxDBGq9ptEssAm+vHMBPJxLNtu5hvfDpOms5oPgveVdBC0dDV1mxb9qN6lMnSgEFAIKgcuAQI0TGl4uXhYFQKBHAJzsTdfPIX72OnvoxBfYOrkUYeURtdauq6MLXB1Llh6vSAtFDmJNqOSoihRReRUCCgGFwBVFoEaYp57r9zg8nDzg7OCEYE/9HhEL/vkcf0VuRa/wnrivy3gpHIjk36f+wSfbFsFBCIvPx31iAPejUe/K8JHYY3h949uo61UHc4e+gmfWvYTolHOy7kVj5+PtP9/HvpiDMq+1dk/EnZRlI+Ij0TQgHIVFRfgzcgsW7/jK0F55gSKdJuDU+jvlYaXSFQIKgauHQI0QGjqxKFID3/o4HncCn25fIhi8M/IL81DHKxhTuk2UTH7Jrq/RqV57TLj+Tvx05BdEJUXj/uUPo0VQUzxx0ww8tuY5pOakIb9Av8YPtQ9jsuPCS4Kok2hkrV2trK+rD577aRYGtLgFN4XfiC92fYOCQtO1lrS6TI5CoGV0vEtGOZ3ba5KkThQCCgGFwLVEoEYIDQ3A2b+/i9xips+4OzuNlklJmUkY3PJWGc4XTHtIqwH4aOtCZOeJxdXy9Wv3M8xfZci83fre+q1SV/+3Tgqn1QfXoVfjHgj3D5OCraw2cup3wcW7VsgsPpteg0Nq+Ut6l1WfSlMIKAQUApcTgZJh8+Ws9RrUdSEt1kRgsAuB7vptU33dfBHkITaZEb//zh9GdPLlY8SW2tUuPzL+lAxSgyG52zBtljOl6izoDbdDPyC5z/+pqbYSOfVPIaAQqCoI1BhNQ9MYjIGNz9DvG71wxxdIzrK8c5+20YuT8IfAaP+hzDz98t90cEP4NML8GhpXbQhbaldL1OrWzm06Foq9OJJOw/e3F5HZ+jZkh3YT021/t6moyqQQUAgoBK40AjVG07AE1ObIv2X0/V0nSC2DjvI+TXqhZbB+f2YmRiaIvRaEo3pQy1vkrCvH4hlWicKkRYEwoEU/+Lv7YUz72yw1ccXidDligyVB6qO+KwaxqlghoBCoBAI1RtMo1LYaMwKBs544Y4nO73eHvyFT6Ih+f0vJrKk84QPhzKZ+zfqgf/O+OHYxAq/+Nlfm/fX478IXMgCd6reXwsWoakPQUruGxEsM2OXnIDekDdyO/HiJNaniCgGFgELg8iBQKzZhshNznrSpuBfT44RmUby5sg0Y8jsLR3snpGbrR/42FLlsWZL6zUJ654nyS/A6n90M+/TYy1a3qkghoBBQCFQGgVohNCoDTFUpU+jmhwKPYDjER8BO+DsUKQQUAgqBa4lAjTFPXUsQr2TbXD5ELSFyJRFWdSsEFAIVQaDGCQ174dR2ET9FCgGFgEJAIaBHoFCY6LN0ph8sVxabGiE0nIWQuDctC6MzstE4v8Dom+3KwqLKKQQUAgqBmoVAlpAZW52dMN/LDbudtWWKKn6N1V5oeBcUYmlcCtrlKXt/xW+/KqEQUAjUFgRchQGmX3Yu+ojfKz7uWOzpVqlLr/ZC473ENBOBQdGRc3m0sEoBqgopBBQCCoGqhgBZolux1Z4f572UnIFjjg7Y6iI+aq4gVWuh0S4nD32F1CQRj9eE9PzcwxV5ZosNygzqn0JAIaAQqMUINBSm+/cSUtE5N194OIBHUzIqJTSq9RfhvYsFBp+DVW7O+EyoWzVJYHiIocHofvpVd42f9aYNCnFTZxtWyzUuZBYO8ivCA7fnYcYdeqFrlqxOFQIKgRqGwBkHezwQ4AWNo1wvhIdbYcUnDVVroRFcWPKR3h6nyjt2vL3d8eCDg7Fo0SOYM2dSlXlU3pieg1lTSzP1hiGF+PKVLIQGl1x/RTu9bXEmnpqQg1u6Kl9QRbFT+RUC1RWBWHt7xNjr2T61jUAjHmrrNVVroaEzEpJFRKCS9Pjjt2HYsK6Ijo5HRMS5StZyeYu5i83+htyYjy/WlRaGG3c6IDnNDnMfKS1QbOlFj3b5cHIUmsYbLhj6aOWcYba0o/IoBBQCVQ+BIiPzva4SnydUa6FxuW5H27YNsWdPJF56aSkWLvzFpFp7IZUbNQoGj9aoYcMgBAi1r6Lk6uqMJk3qwNHRvlTRZyfliG1ogXnflBYazExhQubvqXm3StVgPcLfR5926GTpdq2XUikKAYWAQgCo1o7wS72Bn332sBQIrOf665vit99eQ2ZmDoYPf1VWPX36YBHuBrtiybxu3U78738liwdOnNgP48b1hq74o5moqDjcd9//0KxZPcyfPw0PP/wJjh6Nhpvwt6xZ84Iwfa3Exo37QGGxcOHDCArSc28uof7KK9/h778PGS7p+lYFiE+2Q26eZRVqwzZ7PDIO6NG+AL9sr9ht1ARNJTRTQ/9UQCGgEKidCFSM29QwjKZP/1iO8pcte0ZqGnPmrIDGSKkBjBjRHceOxeC991YLATAUQ4Z0wa+/7sWRI2fRqVM47rrrJpw4cR7z5q1GVlYOxo7tJRHShIgmbDRtUDufOnUAAgO9MWPGpzh+PAZ9+rRHbGySCbr1gooQGW1ZYDDj0dN6LeG6lhUTGv7eRZg4NA95+XY4H2+9fpPOqBOFgEJAIVCMgHWbSy2AKFfMHsjIyAFH+nni40CGyfxJ/ft3ksfZs1dIwfD668uL4zvK48iRPeTx6aeXSMZ/9mw83n57lYwr719SUrrUXnr0aCmFx2+/7S3lS3FzAeKSrN8e8U2j2M8cCBVOcVvpk+eysfebDDRvWIin36/4/Gxb21H5FAIKgZqLgHWuVHOv2aYro4+CwoTOcdLFi8koKCiQTJ7n1BRoykpNzeRphWj58r9x6FCU0ExuxFdfPY5vv30KoaH6rWm1ilLS7VAv0LpAEKsBQMygw7FijUMrV9bx6fedhfPbFaz7pSmVc6KXVb9KUwgoBGo+AkpoWLnHCQlpUhuoW9df5qAQsRfT1eLj9ftq8EhfhYf4mNCcUlP1W8X6++ud4x06hJtkoTYzc+YCDBjwovSR+Pt7Cl9If5M8UReAOoFG08NMUoH2TfXfaew6rDdTmSVbPKWw+GmrPT5a4QRvjyL4elmv32IFKlIhoBCo9QgooWHlEfj9930y5emnb0f9+gF45pnR8vz33/fL4+rV2+XxzTcnQJs9Rcc56dy5BOQL29Ho0T2lBmEuEAYNug433tha5v3vvzNCoxFaA9UGI6Jz29ezCAE+lhk7P/qjeWrnoYrfwpg4vS/D3cVy3UbdUEGFgEJAIWCCQK12hJsgYXbCWU8//fQvyOCXLJkpUznz6eDB0zK8a1cEVq78G7ff3lPMhJoh42JiEsRxvQxTuPTv3xGLF880mLhkgvjXpk1D3HKL3jfCuESxftZbb5n6Qz753knMjsrF/90ntJJ3hIPDiHRCTtx2cwF++MPR6uwqo+ylgrEJeqHRq1MBvtlQcaFTqkIVoRBQCNQaBKr1zn1vCGZ7t1gOnfScrwe+tmAqutQ76SyWEA4Pr4NTp2INTnLjOvn9RuPGISItt5Rw8BJLELuIBcHoDzEnd3dnOd339OlY6YA3T+f5k/fkyqU+woe7myRPGpaLlybnos1Yd6RnVnwGlIN9EfZ9mwkv9yIkpdqh/TjT+k0aUycKAYVAjUJg8/lEhNFMIah3iC9OiYULK0JKaFQErWuQl99UpJkJBjJ9RwexqYp+olelekVtpWloIfyF+WvbflPTWKUqVIUUAgqBaoHApQqNiomYagFJzeqkucDg1eUX2El/xqVcKb9HOXZGSI4zl1KLKqsQUAjUNgSUQbu23XF1vQoBhYBC4BIQUELjEsBTRRUCCgGFQG1DoNYKjeDg4Np2r9X1KgQUAgqBS0ag1gqNS0ZOVaAQUAgoBGohAkpo1MKbri5ZIaAQUAhUFgElNCqLnCqnELjGCDRwq49gl6BSvWjl3QJu9qWXtymVUUUoBCqBgBIalQDtWhZx7tAfLp0HwbnTQNh56tfFqnB/xFrtLj1GweexpfB9/kfYuaiP+8rCkKsRv/XWvXJlgJ49W5WV9aqludg745Mu/0Mj9wal2rwvfAImNR5fKl5FKAQuBwJKaFwCio5NrkPQZ6eh8/C9hFosFyUz95ryYalE7+kL4PXAR/Ce9jEC5+1FwNztsPetUypfWRFObW6G173voigzBXkRu4CCmr1P+PjFf+C2ud+UBYnVNG6Y9fLLd4KLSnJpGS75UhVoWL3ByCzIws6E3aW6s/TUdxhWfxC8HD1LpakIhcClIqCExiUgaGcvtmK106FI/KyRfUAo7JxM146yltc4XufqKTQAD+MoQzjzt0W4OLkRkuaOhk4IDPehjxjStIDOKwA6K5qIS7cRKEg8h5RPHkT68ldRlFexT8s9AkLgG2q6cq/Wri1HJ3fPMsv7NWgKJzfTa9fZOyCgcUvoxErDlojpnsH1LSXB0cVN/iwmlhPZr197udrxAw/MlzsvcgMuY+Lqx1wm3xpxJWRu6FXWdsHWynK5fGvbCI8PuwPLznyPIvFnTnuS9iMlLxUjQ4ebJ6lzhcAlI6C+CK8MhEJYBH0aaSjJET8p99h2JL81VoZdeo6B5z2zYSeYGSl7+yqkLhILH4qygfP2ID/mGJLmjJJpPk8ug2ODNoh/vDM8x8+GS/eRMt4+JBxBC6NkOOH53iiIPSXD2r+84ztQKJi/U7u+WhQcRD0+j35lEBgFFyKR+NpQFGWnw23QdHiMfNqQV6s7/pF2KMwovT6WIWNxoFGXPhj4f/MNDLggLxefjeqA3KwMPPTTCRxY+xX++niWzD3l+/2IOfAP1s+aKs973v8MOt4+GTEHdyC0Q08ZF71/O1Y9eYcMT18fgfOHd6Nu6+ugc3CUe5l8fV8fJEWfxJBZC9G4+y0yH/c42bZ4LnYv+0ies93UizHwrtNQMvfUC2fx5aSbUCi0pxFvfoUGnXvJfBR0M37Vf/7+7bRBiIss2VpXZjD7p23Zq0WvX/+yDHIP+WXLtoBL5n/wwVRwfTFSWloWHnnkU3AzLlJwsA/effd+ky19X331O2zZcggLFjws80yZ8oE8zpkzSaxDFiT2V5kjz8eP7yO3Edb2judCmBMnzpNp/BfoHABX4bM4nHLEEGceOJRyGO192phHy/Nvv/1WYvXoo4/i/PnzFvOoSIWANQSU0LCGTFnxBXmIe6glnJp1hfeMz5Hw7I0oTIsXI3b9xkYOIY3hNelt5BzYhLSvn4dzh37wvPNVZP7yKfKjjyB53njpS3DrPxlFhQVwat4dSbNHoig3G6mfP4G0pc/D74WfUJAQjZSPpsieFGVnlPRI+CSovdC/ofOvLwUSEymgfIUAKspKReIrg4Tg8IP3Q4vAdjJ+nIcs0X7Wps/hNfUjOAiBlDjr1tJ1l7RiEnJydceQlxdIAbFp3jM4s/sv9Jr2kmi0eMFE9okLWhUTR/78aWQntDGeBzVpg83zX8LFE/8hpHkHLVkysfrtu+Pktl+x67v5aCiYfV52JrqOnykFxr4fFmP/6iXo++gcdJ/4OPau/FQIBrHommjXS2gYG954GC5ePrj54dfQuOetOPHXeqx98T7YOzlj/KJNyEy8iO+LBVRuRvkmJm7DO2LEqxg16gbcfffNMszOZmfnyT6/8MId4KKT7723Ruz6WIDHHhuBF18ch8mT9YJg9uyJ0qT11Veb8P33WzF4cBexlbBeK6DWoW39y8p4rjPCju1Ro3n22S/g7e1mWEZfNiz+hXk0ksGozBgtqtTxTPpZtK/ftlQ8I7S2taPFTCpSIWAFgZK32koGFW0ZATLxopwsmVgoRvHGTN2l1536+OQLcL9Vz/QhBI3bwGlI/WwG8k7tQ/qqOfAY/bzMl7H2PeSd+FffkBghF9HHUFSIovw8k3r1GQC3W+6XP57nRR2SQoZhh7AOsBNmLQom1576/T8K0xLgKvpDoSHrZd38CWFl3GeWL4vCbxRCSGgA2z9/G8f+WCOz/jpHaE4VpM3zX8bR3/XLwJ8/VHzNxXVkJSdg3cuT5Vns0X3y2OrWMQKKQrj7BaLHvU8hNzNdCp/Wg+7EQaHZkJg3YvNaGe4tBFnjbv2k0KAmxB/LFwgsbREWspLif9z+NydHLyQYNqawsGC58vH69cInJGjIkOvRrFldGaYQ4B4se/acwJdfbpJxy5dvkUdb/nEvFmoqHTs2xo4dx7Bixd8mxQJd/OV5Wp514ZeYmyR8GvpNwEwKi5Mff/wRjo6OSEpKMk9S5wqBchEoGRqWm1VlsBUB+jFIOp8Q6AIbyl/OoS3SJKXVkbVxkWRmPKcGUhHK3vmj9GfQPOXYoDXsfYJlcfvgMH01OntDu/nRR6XZrCL1W8rr16CJjI7YvM5Ssk1xNC0d//NHq3lpujInZw9vaWqiv4I/NyE8Lhzdi7zMEs0r7uRhQ7H83Bw4e1hmloZMlyFAwXDyZIlpJzLyvNzZkVWHhgbKFnbtOlGplj74YK3cFXLWrLvEni6z8NBDQ0zqic7Qaxj+zn4m8cYnIa7BoOCwRN988w2++OILsZy/ftBjKY+KUwhYQ0BpGtaQsSG+SGgDJJ0wFQlDiYEK4qNlOO2Lp1CYctEQbxzwnr5QjPiFJpFXCB9h4qJT24RE3XaOTiZR2klhciwoMJLeuROB7+2D55T5SHplIAounpZZsretRNbmpVr2Ch2nTZuGsLAw7N+/H0uXltSRHK33pzS5YSD++6n0TKQiYSpy89GPgOmsdhTmrFIkhAZ9DdYoJ0O/la5xek56Cly9/bB8xgjjaJMwNYmyiPfJ3gqWt956K/r27YuUlBS8/vrrZVVjklZQUChwCjHEcU8VzfwUExMv4zt3DpcbdRkyFQdyc/Pg4+NhiK5XT4+bFrFhw27wR22FJq9hw7pi0aLfDPu5nMrQ+2ZCxXcaCTmJWjGTY0MxFfdk+mmTOO1k2LBhwrTmjp9//hnJyclatDoqBGxCQGkaNsFkOVO+MDPRjOTaf4qcdmvn6CwzZv+9TB49J8yFvdA07Jxc4dr7Lum7YIJr30lwat0Lye9PQvL/7oGj8I24C9OVMXEqrGNYR+HYbg2dlVlUFDrpP8yV2oZjeGfkndwLmsrcBz8k66SPw6nNTbJt47rLCrdt2xYNGjQAj8YUsWW9ZPjdJz2JMGH+cXB2lf4D+jpISTGnENrpRjkrqt8Tbxvs5sZ1VCZ8XJjC2Fbv6bOk8PAMqod+j78F12IBZUudFyMOgjOy6rbpIrQQb5MizZs3l9fbsmVLk/jyTqKi4uTmWzff3A433dQWzZvXhyYs6OO4cCFJmJfCxZa/NwhTkL3cAbJr12ay2n37Tkp/R7t2YTLeeIYUNZhHHhkGPz9PxMYmIS4uRZbRnOI8SRVmqdjsOFzv11mmmf+zt7NHO5/W2JGgN52Zp48dOxbDhw8X2xQ3NE9S5wqBchFQQqNciKxn4FTVrL++hVufCQh4b7/8WI65888dR9pXz0rB4P/mFgR+dAwewhFOf4ND3WbwvOMlZP2+BHlHt8nvJDI3fAL325+VAkJrLXPjYuGwyIbfiz8j4MPDwnHdWEsSR71DlRHZf34tfROed70mfRUp794lp+r6PrUCgZ+ehM/ML+FQp6lR2coF6Q+gs5lTYYe+sggPrj2K1oPGGRzhe79fCAoQOp0bd+8vfQkVbYnmK3PaumgOzuz6E+2HT8TkFXsx6ettaN5nBOyFf8VW+ve7j2R/Rr27AlNXHUBgeGtbi1rN9/rry6S/47nnxuD558fK8Guv6QcLLPT0058L7SUDU6YMkCammTOHg998kNav/1fs1piNd965TwiI4WK0ny7j+U+ns8PAgZ3FDK2nZblOncKlIz01NdOQh4GFkZ/jttAhcLArbSzoE9xb5l0Xs8GkDE/ocNec7vHxeo2oVCYVoRAoA4Fau3MfV7mNjY0tA5rLkCRm9tgHNZIVFcZFCaXE2Ih1GeovowqddxB07j4oiDtT4e8wyqhWJvEbDX77EC98CXIGU3EBmqV8Q5sg4fSx8qqocDpnQXHmVWZSHFLOR1W4/JUqwG8pSNpUW/N2aIaqV89P+D9KbxfcqFGwKBcHmrrMqWHDIKmhnDhR4jcxziPmqmHZDV9gycmv8fO5X42TsKTbx9hwbiOWRX1vEs+T6667Dk888QSioqLw1FNPlUpXETUfAbVzX1W+x2LkbP5txdXqLn0p1vwpl9qHpLORFqugALkSAoONFQgHN7/jqGpkTVho/aQWYaxJaPE8cn94a3TmjGVfmJafH/WN2zpJOzU5Tt35CPIK9bO+TBLESb169cQ3JWn4+OOPzZPUuULAJgRK67Y2FVOZFAIKgWuNQEGRZc01t1D/vZCl/q1Zswb8KVIIVBYB5dOoLHKqnEJAIaAQqIUIKKFRC2+6umSFgEJAIVBZBGqt0LjiTvDK3hFVTiGgEFAIVGEEaq3QqML3RHVNIaAQUAhUWQSU0Kiyt0Z1TCGgEFAIVD0EavXsqZs6F6Bj8wLsPmqPv/bYV727o3qkEFAIKASqGAK1WtNoE16A+0bk4etXs/DQGOvTFKvYPVPdUQgoBBQC1wyBWi00PlzuhDZj3JGZDfTtYnnO+zW7M6phhYBCQCFQBRGo1UJDux9JqXZwcSq97pGWro4KAYWAQkAhoEdACQ2BQ2GRHVxdlNBQL4VCQCGgECgPASU0BEJ7j+nQIKQIXVorE1V5D4xKVwgoBGo3AkpoiPv/8qfOiE+2w8q5WTi2qmSZ6tr9aKirVwgoBBQCpRGo1VNuNTgevzsXIf5F+HilE77+SUGi4aKOCgGFgELAHAHFIQUivToVIOaiHd5cUnp71e7du6NRo0bYs2cPjh27/PtEmN8Qda4QUAgoBKoyAkpoiLtjrysCZ1BZolGjRsk9CHx8fJTQsASQilMIKARqFQK13qfhYF+EQF8gTvg0LJGLi4uMTkhIsJSs4hQCCgGFQK1CoFYLjdkP5yByTQYoOD75vrRpinsp+/n5IT8/X+zTXHrrzFr/iuZwAABAAElEQVT1pKiLVQgoBBQCAoFabZ5asMoJqzY54MgpHdIyS2saHTp0gJ3Y53v9+vViH2c1HVe9MQoBhYBCoFYLjZMxdjgZY32hwn379mHy5MlyT2X1qCgEFAIKAYUAUKvNU+U9AIWFhUpglAeSSlcIKARqFQJKaNSq260uViGgEFAIXBoCBqFxrbY/vVbtXhpsqrRCQCGgEKidCBiERnBw8DVB4Fq1e00uVjWqEFAIKASqOQIGoVHNr0N1XyGgEFAIKASuAgJKaFwFkFUTCgGFgEKgpiCghEZNuZM15DqG9sqXi0caX07TBoXgfu6XQk6ORbh7UB6euzcHvl5q75RLwVKVrd0IKKFh5f7XqeOLJUtmgseqSJ07N8EDDwzCfff1R926/lWxixXuU/9u+Zj/dDbszT6daRhSiC9fyUJocGGF69QKrHk3G68/mIMRN+XDXW24pcGijgqBCiOghIYVyLy93VG/fgB8fDys5Lg20fb2OnzwwQOYPXsiBg++DqNH34BFi2Zcts489tgIsWTKc5etPuOKNmx4BaNG3WAcZRKeNTUXh07ayxWHjRM27nRAcpod5j6SaxxdoXDLRgVYs9kBXe5xR/RF9dhXCDyVWSFghIB6e4rBaNgwCAEBXkbQlAQ9PFxBIWJOZOCNG4cIwVI6TctrrSzT2SbrsEZMd3V1Nkm+886b0KJFfXz44ToMHfoKBgx4ER99tN4kD09CQwPg7m5a1jhTcLCPxbZdXJzg7OxonNUkrF2ztX4znnVbIp3OTtRteRGC61oVoF5QIWZbWJ6edX2xzhE92uXD061ypiWxjJj4+t861pb6q+IUAgqB0ghYfoNL56uxMRMn9sO4cb1BhkaKiooTJp//Ga73iSdGokGDQBQVFWHr1iOYNesbmTZ9+mAMH95Nrk3FiPT0LDz66EKcPh2LZs3qYf78abIuS2WZPm/eZDg5Och6MzKykZKSiYkT58m6x4y5UZqdtD7t3n0CzzzzuUwbNqwrkpMzsGbNP/Kc/9au3WkI9+rVBs89N8YgECIjz2P69I/F2lmFePDBwRg2rAuSkjKkgGTcwoW/YuXKv4UA6oIZM4YZ6vntt9dkeMWKv7FgwQYZfuWVu9G9ewsZJh6LF/+G7777S57//PMsxMYmC1OZn8TkwoUkeT1sY9Wq5+Hp6SrzEW/+8vMLMHDgSzKO/2iaIm3eY2abkrHAhm32eGQc0KN9AX7ZXrHHVpO74gN/RQoBhcAlIlCrh16dOoXjrrtuwsmTFyRjvffe93DkyFkTSL283DBz5gLs3BmBnj1bGphxdHQC3n77BwwZMguPPbYQHKGTWZM0Zm+t7LRpg2S+l15aiqVL/wS1EUdHPbNs0qSOWO/qVrF3RzTYny+/3AT6L1q3biDLkPmePRsnw+b/OMp/+ulRoBBin77/fhvCw1nfAJlVrL0o+m+Pc+cSMG3afCE80oV5q6dM++mnfzFixKv4++/DyM3Nl2GeL1r0q0wfP76PFBg//LAd99zzDvbvPyWYf18DHlzYMSTEB2+8sRzvv/+jCPsKvFrJsuPGzZX1UdBQyLDekSPfkGnav7ZNipCVo52VPh49rcfnupYVc4hzBeMX7tdX/PtOfR2la1cxCgGFgK0I1GqhMXJkD4nT008vwfHjMYIZxwtBsMoEO47CDx2KEiPyX+QI+rrrmsh0jvT37TuJsWNvFEywG7Kz8+Dv72lT2aZN62Lv3khs23YEX3zxuyhbYqu//XY9EydDv+eevlLL4Qq799zTR9ZNgZSZaZm70lRG7WXdup04ePA0PvnkJ1l3167NTPr15psrcOLEeWzatB++vnqfDTWCjIwc5OXlF2s/OfKc8aQBAzqhsLBI5r/33v6yDxRAgwZdZ6j76NEY/PnnQan5UJPQtJKcnDxZFzPyWtlOlpmECPIV7WeVXmlYq5zdEFUiVDjFbaWRffJx8scMOWtq+W+O0l9ia1mVTyGgELCMQMX0fMt1VNvYwEBvyfxSUzOtXsPBg2dkWlxcsjx6een9F888Mxp9+7aXpqLz5xOldqHTmY5kLZWlj4I+g4iIc4Y2aS6yt9czTM0foDFzZjp+/BzOnNFrF/n5haAGY4nq1dPPotLaZZ74+FSDaYjnFECMIyUmphnMazKijH/UhihAtP4xK7WyrKwSgUdTmEbUVjw89BtYaXFlHc9c0KFhHetahLOTWMdfwHusWOMoqy4tbd0We5w574bXxKypMbfk4Y3FTki0skOjVkYdFQIKgbIRqNVCg8yTo3MyRPokLBFNKpaoT592UlOgiYm0cuWzwsRkCqelshxh89eyZaihWj8/D+HTyJDn9Au0bQu8/voy6SMwZCoOJCTo+2wez/Nz5xJlNE1Z//4bIcN07ickpMmwLf+oTXDzKXMiPpwMMGPGp+ZJhnNL12tILA5QE7JEByJ06NclX26IlV9QWuNo31QvUHYdNhXMlurS4nLz7LD7iB0mvOSCf7/KwG0352HRGiF9FCkEFAKVRqA0d6h0VdWv4OrV22Wn33xzgpzJRAZLB7ctxJF0UJCPFDiTJvWzOLvKWj0043To0Bi33dYdjz9+m8lsJc3B/fzzY9GoUTDc3Jyl30XzD9D5TE3ljTcmyOnAdKrPmnWXbIoj/by8AuFn6SKd8XQ409dCR7qttHPncelfGTCgs9RotFlSmzYdkO0+9NAQea28dk4SKGvmmHmbFIy9e7eVM7t4Xca0+k+9MBlzi2VtY3S/PGme2nmo4o/sxUS9EPKqWrOnjS9fhRUC1QYBy8O+atP9S+vorl0RcuYQ/QgLF86QlcXEcC/w0lNYzVtatmyLYOa98cMPz0tb/8WLKTabY957b41wFk+Rs5kofGgeI7MnHT0ajc8/3yj9GZ999rCM4+h/3rzVMvzHHwekdkRfyooVz8g4zqYi0Xz07rs/4Mknb5eztxhHp/mnn/7MYCmypERt3nxQOOBvkcKMAo3OdPpG6BCnU50zxvgjsc/sq61EJzid8osXz5R95XRhjU6f02HfcR0eHpuDbzaYPpZUfG67uQA//OEIag+VIc6c6tTCskCqTH2qjEKgtiJgFxoaKu0vXG32WixTfintviFs8neLmUKk54RD92thZqoMcTRNMxXt89HR8TZXoZXjCJ+MvaLEGVNkvOvXv4wNG3aLj/bWGqqgw5t9Ip06FSuZrCGxOMCZVix/5sxFkySWbdKkrvRd0G9xOYnmJdadlJSG8+eTLmfVaB1eiJ/fz8SQma44EFFihpo0LBcvTc5Fm7HuSLewLa8tnVj2Zha6tyuQ2sqtD7khIqriGost7ag8CoGqjsBm4YMN46wSQb3FLMdTZmb18vpvOqQrL3cNTecI3dgxbetlVrYcR+o0TR0+HCX8F43kjCeO6I2JQogznMoia+ksy9lgV4KoGbHfV4IORerQarQ7srJNtYmv1jviu1+cypySW15/xj7rivri48Hw+kWIEk53RQoBhUDlEFBvT+Vwu6RShw6dEc7pVLRq1QD//XdGfvfAbycUiY8khSbB6bXGRMe4mDtwycTlQ/jxYE7JhK9LrlNVoBCobQgoTeMa3HFqCI8/vugatKyaVAgoBBQCl4aA0jQuDT9VWiGgEFAI1CoEaq3QUNvM1qrnXF2sQkAhcJkQqLVC4zLhp6pRCCgEFAK1CgElNGrV7VYXqxBQCCgELg0BJTQuDT9VWiGgEFAIWEXASeeE9r5iXSAzaugeimCXQLPY6nGqhEb1uE+GXjp36A+XzoPg3Gkg7Dz1CxQaEm0NiGXMXXqMgs9jS+H7/I+wc9EvwmhrcZWvfATGfvAjJn29Tf7qtC5ZCbj8ktcmR1i3fmh+83BD4/aOTmjRT+wl07mXIa6ygVYDxmLM+/oVDSpbx9Uox/1muLXA5aTbQ4fj0ebTS1XZPaAr5nR4tVR8dYhQQuMS7pJjk+sQ9Nlp6Dwu/z7iZOZeUz4s1Tvv6Qvg9cBH8J72MQLn7UXA3O2w961TKl9ZEU5tbobXve+iKDMFeRG7xPoj+g2QyipTndPGL/4Dt8395qpeQsRf63Fy+2/wDKoHj4CK3Z+r2tHixga/+AluffZ9UHiQ2o+YhP5PzcOA5z4ozlH+oe9jczBl5b5SGQMbt0RQ09Kj7VIZr3FEmzYN0a5do8vWC0edI+5sNBpLTy8vVeeP0etRxzUEXfyr/oDCvPNKaJgjUoFzO3uxLaqdDkXiZ43sA0Jh52T7EuFaPTpXT6EBWF5hL/O3Rbg4uRGS5o6GTggM96GPaMUMR51XAHRWNBGXbiNQkHgOKZ88iPTlr6Ior2JfznkEhMA3NNzQVkUDTu6eZZb3a9AUTm6m166zd0CAYD46sYeHJWK6Z3B9S0lwdHGTP4uJlxCp9cnVp7TGt2fFp9i11HaGa6kbEgfXq6sFdhx5n+xKa6EdWCKfuo3AnyUizg7OZT/rvEfErbLELYy5lbExcfFL7lFT1jbFld12mUsFceFQbeFO43a5zQG3VyBx0zFzGljnFtjb2WNT7GbzJGQWZMn4CWF3lkqr6hGVv3tV/cquZP+EsAj6NNLQAkf8pNxj25H8lv5lc+k5Bp73zIZd8QuSvX0VUhfNFFvnOQoNYQ/yY44haY5eFfZ5chkcG7RB/OOd4Tl+Nly6j5T12YeEI2hhlAwnPN8bBbGnZFj7l3d8BwoF83dq11eLgoOox+fRrwwCo+BCJBJfG4qi7HS4DZoOj5FPG/Jqdcc/0g6FGcmGeGuBRl36YOD/zTcw4IK8XHw2qgNyszLw0E8ncGDtV/jr41my+JTv9yPmwD9YP2uqPO95/zPoePtkxBzcgdAOPWVc9P7tWPXkHTI8fX0Ezh/ejbrClKNzcJQbQX19Xx8kRZ/EkFkL0bj7LTIfl1/ftngudi/7SJ6z3dSLMfCu01DuDZJ64Sy+nHQTCoX2NOLNrwzmFQq6Gb+ekWW+FTsnxkUekmFr/2hO8akXhgW3tzdkuX/5bmQkxILlez/4MtoNn2jYjyQnPQUrHxuNhNPHDPmtBe789BeZ9M3UW+XxtjlL4dewGRbdcb087zzmAfS492kxHtEPRqJ2/4XVz463Vp0h3s3NTewLb1nIxMXFGfJZCyRFnUDdNteDQt2nfmMknY2EJhB574fM+szA8Inv7+8+jSO/rUTboeNx88OvGarVcKbg/PuzN2S8nRhY3fvNDqF1hch7s23RHOxZucBQpqzA/fffilGjeuDAgTPo2LGxzMqdI594YhE+/ni6WAutRJPjLpxcvp8bf5W37XKLFvXxzjv3G7Zd5gZhaWlZhq6Yb+nMzc3+978f5dI/7757v1xvjuu8cX03Pz9PuRPmHXfMMaxD1863DSLSIlFQpF/nyVBxceBg8mH0Ce5tHi3PP/zwQ7Elc4BYMPR7sTDpCot5rlWk9SHytepRdWi3IA9xD7VEyvsTZW8Tnr1Rnie/e7c8dwhpDK9JbyP30F+If6o70r55QQoCh/othSkoD8nzxsOxaRe49Z8M1373wql5dyT/bwKKcrOR+vkTsi4KiNzDW2SYbZkIDOGToPbi0mUYdP71kXtkq2yXAspXCCDkZSPxlUGinbtlOtshZf3yqawv5+AfKIiLMtRti8BwEiPeIS8vEN3PxS9vzsACISxoghFcU9bNo8bkGMHRpPGIkkyD50FN2mDz/Jew4tHbcWr7Rn1Z8Z/bxdZv3x2nd/6BZTOGY8eX74rLyETX8TOlwNj3w2J8MeFGxAhB033i46KuYo1DlPMSo9cNbzyMPz74P3iFhKJxTz0zXvviffjktjbISLyIuBP/yTDPyxMY7NTBtV/DxdMHgeGtZR856nfzCcB/P30rz5NjTmPjO0/io6EtpLDgKJvmHVvIXuBgLwSjRnZi8y5tAy+21/P+ZxF7fD++EkJzx1fzpOCzxS/y3HPPidWaF1r8+fqWHglr7WvHC8f0pqUhLy0AhSAFpEa5mWn497uP8NmYTvhyYm+kx51H30dny+RDP30jsY3cugEFuTkGnCncNeKzkXLutBS4mUnx6DhK/0xq6WUdyZi5S2TTpnXw4Yfr5PbL27cfkUUoPJ58cjEGD34ZXD2ai3xOmKAfRLEcydq2y1OnDpTp//d/X2L58r9BzUEjCqIRI7rLDdC4NTLXW+OWA9wHR9M63nrre7EJmxiMCU2H2ytz47TWrRtqVSDcIwxnM6IN5+aBqIyzUhMJsuAQ5/WSHByq3ri+6vXIHNkqel6UnYGiHP2opFCM4nmukUsvvcpZmHwB7rdO0UcLYeE2cBpSP5uBvFP7kL5qDjxGPy/TMta+h7wT/xbnE9ut0sdQVIii/DyTerX63W65H/yR8qIOIW2pvh6HsA6wE2at/OgjcO05WqYXpiXAVfQn48d5+npZN3+FBRbrloUs/Au/cZDUALZ//jaO/bFG5vh1jtCcKkib57+Mo7/rt9Q9f6j4movryEpOwLqX9cwk9qiegbW6dYyAohDufoFi9P0UcjPTpfBpPehOwdi/kiWZN2LzWhnuPe0lNBZ2+RNCoFHA8cfyBQLL3Iw0m3vLPtJGf90dD+Ln16fLI0fXZJCk/Ws+l/4KagX+DZsiTzwLHv7BNtdvLWPHUfr7mpkYh273PCqzsV0Kz9XP3G2tmIx/6623BIP0spgnJSXFYrx5pNQEO96Aw78sl8JYSz/33y7EnzyC5n1vQ/12XSWu1AgpvAvFbpDEVmItnltrOP8y+xGkx1/AsU2r0Wn0VK1qm4/z56/Hxo3654JbMJO4bD81hilTBkimzcU6aU4yJuMtm7n1Mbds3rHjuDRp7dlzQoZ5zm2bNerfv5MMzp69Qq58/frry7F06RPo378jNm/+T6Zt3XoEw4Z1lUKJ2ytTC+bOlgcP6mvxc/JDfG6iVmWpY1JukowLcPbHxWxTTZAaRr169UTfdpQqd60jlNC4AneAfgySzke/tDnDOYe2SJMUw6SsjYvgPvxxOTrPFBpARSh754/I+vMreIx4Ao7NusLeJxj5F07CPjhMXw1HroH6EU9+9FEUZem3d61IG+Z5/Ro0kVERm9eZJ9l8zpfq+J8/Ws1PhmVOzh7e0pxh7K+4cHQv8jJLhHTcycOGYvlipOvsYZlxGjLZEKCgOXdwJxp2uVnmbtyjPyicyCBJ/Z9+Dy0EA6WgS7kQJTQlHewcLl1xp9ZEchNCUqOLEQeReCZCO7V6pMAgo7FEMTExlqJLxf37nZhgIbTB3cs+xs0zXjekN+09FAOf/1AK7ZTzZwy+CwehYVkTEobCIkDBR4FBokCkZlkR4rPDvWTMiYycfoW4uBTDDpXccsCYtO2Pjbds1rZdNl4pmjt5amW5IRvb1LZKuHgxWWxPUGDwYbD+HLHyZb5YYpyrXZNEdhO/yrmsc6jjUsIDZCajf8EuQfLsXNZ5o1h9cOPGjaXiqkqEEhqXcCeKxKiKpBOmImOrZUF8tIxP++IpFKaY7nUhE8Q/7+kLpamqKK8QPjM+l05tLU0eRd12YtqjJSpMjgX9GUnv3InA9/bBc8p8JL0yEAUXT8vs2dtWImvzUktFy42bNm0awsLCsH//fjGyKqkjOfqULNvkhoHCRKMfbRtXViReKLdihzBHn47CnFWKxFtF5mGNcjJKCzeaSVy9/bB8xghrxaQmYTVRJPA+cQqpJbr11lvFXu99xXa7KWKL3RImyby7l3+C4W98iQ63CROicMzvWVFig2/eZwRObvvVoBlNXrG3VBv5xRMMnIWPwJjyhRnSVZi6NKLvRKPUC9HCr9BFaDcPIS1W/xxpaeUdp0yZImb/tLOYbcKECcKUkmwxzTjy7N6/Tfw4WtqNU/8PmcnxWDims4wa9upiqWlp6TxSoNLUVhmy9txpdZEha8xZi+NultxBcs6clVIDoZlozZoXSgkkMn9z4pbL9Htoe9Yw3d/fU26IxjC3SKZgq1vXX2yjnCD8C17SREbBYitFpp1CE69wq9kbejRAbmEuknNLa4Hdu3cXGlMj7NmzB8eOle8ns9rIFUi49KHRFehUdakyX5iZaEZy7T9FTru1c9TbRLP/XiYvwXPCXNiLEb+dkytce98lfRdMcO07CU6teyH5/UnCl3GP1BbchenKmDgV1jGso3Bst4bOyiwqYQ9A+g9zhRO9NRzDOyPv5F7QVOY++CFZJ30cTm1ukm0b111WuK3YoLxBgwbC2Wc6RTJiy3rJ8LtPelJOy3RwdpXOT/o6SEkxpxDa6UY5K6rfE2+XenHLarOstOPCFMa2ek+fJYUHp7D2e/wtg4O2rLJaGkfq9EmQGVNzMabmzZvL623ZsqVxtAyf+Xcz8oXZ6capL0jTS+Q2vQObiQWC8XsG15P1dZ/4hOybeQUcgVPodbz9fukb0ZzKZ/dtg7swZdVr1w1thJmNzmGN9v/4hQxyVO/fqLkUVl3umoHwHrdqWaweX3jhBbGr4nCLP1sEhtWKRUJ6/Hl5HzwC6wgNy/L3G2d2/SkFJ7/LcPHylWbEsuo0TrP23BnnMQ9zczISGT+ZurbtsXk+a+fUMjp3biIEbZjYnqCP3BpZy/v773oz2NNP34769QPwzDN6c+/vv+/XspR73JH4L8LcG8LN3tVi3q7+12NvUmntiZlHjRol72OfPn0slr2WkUpoXAL6nKqa9de3cOszAQHv7Zcfy7G6/HPHkfbVs1Iw+L+5BYEfHYPHna9Kf4ND3WbwvOMlZP2+BHlHt8nvJDI3fAL325+VAkLrTubGxdKh7ffizwj48DDoXC+hkpFT9p9fS9+E512vSV9Fyrt3yam6vk+tQOCnJ+Ez80s41GlaUrSSITJAOps54h76yiI8uPYoWg8aZ3CE7/1+IShAxi/aJBzX/SWTrWhTlkaEW8UsGzKj9mKmEkfz/GCOo3xjR3J57dCBS3v7qHdXYOqqAwbndnnlmE7HPJ24nMFkTLuXfSKZOuu77o7pSIs7Z5xsCG9dOFuamsZ9/BNGzv1Wxh8SzvRcoVXd/vYyaQLiCF4jmsD++eIdBDdrj7sW/IoHVh8S/oxH4ezlo2W5IkeJvYURubS5iBZ5HRx537v0H2Gamyec2mf0/TAqQ78StaN+j82V32v0nPysxb5aus8WM5YTSQ1gz55IwWB74ttvn5KzpTgDytb6FyzYIJ3a77xzH+6++2awrEbcdvmnn/6Ve94sWTIT7duHSW2GvgvjXTrZlnF7xml/X9yOROG3GFpvkFat4civwa/z64jFJ780xBkHXFz0U5cTEhKMo6tEuNZu93op28zafOfES2Yf1EhmLxSzlYqE8/lqkc47CDp3HzFL6kyFv8Mor4/8RoOzheKFL0Gz8bMMzVK+oU1smnZaXhvm6fZOznLmVWZSHFLOR5knX5NzXm9A41ZyNhZ9IBUlahJJZ0+YYKjVQUEVEKbXfhJOH7WYR8t7NY/8VoYzx6iBVRXiNxi+vu44e7ZE+NraN21rZG6ZTHOVOfHbj/DwOnLLZZq0Kkr9Qm7Gg03vx8gtd5kUnd5sitRCntj7vEk8T3Ti3tM0TB8KzYo8Xk5S271eTjQvd11iFGIyVfZy119GffSlWPOnlFHMpiTO37dEFCC2fKdgqWx5cZzKye84qhLxemn6qiyVhRWFkC1TgyvbdmXLcQZVVaP09CzwVxkqb2tkCpJL2d5444U/8HfctlJd+zRiMYSOUiqeETQPp6enY/16MQPwMgsMiw1WMFI5wisImMquEFAIKAQqgkB2QWkNJb/I+oSQ06dPY/LkyRVp4qrm1V3V1lRjCgGFgEJAIVCtEVBCo1rfPtV5hYBCQCFwdRGotUIjNlY/Xe/qwq1aUwgoBBQC1RuBWis0qvdtU71XCCgEFALXBgElNK4N7qpVhYBCQCFQLRGo1bOnbupcgI7NC7D7qD3+2lO55Q+q5V1XnVYIKAQUApVEoFZrGm3CC3DfiDx8/WoWHhpT8jVoJbFUxRQCCgGFQI1HoFYLjQ+XO6HNGHdkZgN9u1zery5r/JOjLlAhoBColQjUaqGh3fGkVDu4OFn+OlPLo44KAYWAQkAhIJY5USCIJZ2L7ODqooSGehYUAgoBhUB5CCihIRDae0yHBiFF6NJamajKe2BUukJAIVC7EVBCQ9z/lz91RnyyHVbOzcKx/2/vPOCjKrY//sum914gJLTQQpUOCgIiIKiIgiggYMGKDbE8weezi+KzoIJIEfUh+gcEaaI0QUGk9xpqCKkkISHJJrub/5xZ7rKbvZtkU8hucg6f3Xvv9Pu9Yc6dObNzlubW7b8IvnsmwASYQCkE6vSSW4XLC2MKERVajJmLPfD9akaicOEjE2ACTKAkAe4hBZHeHfW4kOqC9+ZbuwR1ZLeLJR8mXzMBJsAEqpsAKw1B2FVTDFpBpSbkdjE6OhpBQUEO56tXrb0cxgSYABOoTgJ13qbh5lqM8GAgTdg01MSR3S6qtZfDmAATYALVSaBOK433n9YiYfkVkOKYtcR6aorcLoaEhECn02HJkiXV+Ry4bCbABJiAUxCo09NTs5d6YOkGNxw5rUFOnvVIo0OHDnARfr4d1e2iU/yFcSOZABOoVQTqtNI4dcEFpy7Y3qhw79690u1iTk5OrXrofDNMgAkwgYoSqNPTU2VBMxgMYIVRFiWOZwJMoC4RYKVRl5423ysTYAJMoJIEWGlUEiBnZwJMgAnUJQKsNOrS0+Z7ZQJMgAlUkoBTKw292YIn8fs8FibABJgAEyiDgKb4WmepF6tD7RWnVhrJrtdWPnWDl733zumZABNgAnWKQIxOjwZ6g7xn2tM7VfwWzV5x6iW3G7w88HL2FXnPd2Sl40RQW3xTmIRcjf3a015wnJ4JMAEm4CwEqEdsVajDh5k5UF61t3m6o6ACfaVTK40jHm74xdsTd+Zr5bObdOYAJjnLU+R2MgEmwARqiACNMqYH+laodvvHJhWqpvoyvRTiD9KYLEyACTABJlA2gSKR5EXRb+6uYL/p1CMNwpMnhlejwgNxW6vRGHtwLeKTj8HHzNBDaWgPKbL3GAzFKC4RR/EsTIAJMIHaTICsGBmuGmwVimJmgA+Ou1e86694TgciTCsAFgaHYNaLWxC54A64X0qwaN3MmTMRHByM5cuX44cffrCI4wsmwASYABMoP4FaoTTodv12fYOCJjcjecIGuOZcRP0vu5so0A615BNj+/btpjA+YQJMgAkwAfsJ1Bqlkdd2BLQNuiJk1QvwPrXRgsS6dessrvmCCTABJsAEKkag1iiN/Kb94Hl2K3wPLrYiwS5brZBwABNgAkygQgRqjdIodvWAa26yKgR22aqKhQOZABNgAnYTcPolt/KONa4oCm8hbBnqSoNdttr9d8EZmAATYAKqBJxeaeR2ehDnXzgOg6c/fA9YT02xy1bV586BTIAJMIEKEXD66SnvoyvheXoz3HKS4FKUbwUhNjYWubm57LLVigwHMAEmwATsJ+ASExMjtzyMjIxESkqK/SVUMkdN1VvJZnN2JsAEmECdJOD001N18qnxTTMBJsAEaogAK40aAs/VMgEmwASckUCNK42amBJzxgfFbWYCTIAJOAKBGlcajgCB28AEmAATYALlI8BKo3ycOBUTYAJMgAkIAg6hNLqGdkaviJ4I8wxVfSj+PsUYfgvtAs/CBJgAE2ACNUnAIX6n0TqwFYZED0SQeyDu+2s80rUZFkwMxS6Y/pwWgX7FmLvcwyKOL5gAE2ACTOD6EXCIkcb8U99h/LbH5V23CmxhdfdXxG/2tux1xfOjebRhBYcDmAATYALXkYBDKA2631xdLvTFenhrvFRv/z9feSLAtxh399OpxnMgE2ACTIAJVD8Bh1EadKtSabh5q951QqIGOr0L+nWxVhpdunTBokWLsGDBAtW8HMgEmAATYAJVQ8ChlMaxyyfQP6ovgjwCVe8uKwdoHkvebi2FNiUkcXV1tYzgKybABJgAE6hSAg6lND499iWiveth8U3f45X4SVY3mp0LhAbKrbIs4hISErBmzRqQW1cWJsAEmAATqD4CDrF6Srm9CXEPQifsGi/umYpjOSeUYNMxVAxAzl50MV0rJ+np6Tw1pcDgIxNgAkygGgk4lNK4IbgdFpxaiD2Z+1RvmQzhR89YT0H5+vrizjvvhFarxdKlS1XzciATYAJMgAlUnoBDKQ1XF1dkFmaq3tVNHfQg08XPm9yt4iMiIjB06FAUFxez0rCiwwFMgAkwgaoj4DA2jUivCJDSSNWmq97dlIcLkZiqwdZ91iON0FDjL8l1OuuVVaqFcSATYAJMgAlUiIBDjDT+3eYV9I64EVlF2difddDqRqJCi9G6iR4PvaH+G47u3bvLPGvXrrXKywFMgAkwASZQdQQcQmnMSViA2SfnI02bBkOx9ZLa1EwXxI/wRW6etRGcUPj4+CA1NRULFy6sOjJcEhNgAkyACVgRqHF3r1Yt4gAmwASYABNwWAIOY9NwWELcMCbABJgAEzARYKVhQsEnTIAJMAEmUBYBVhplEeJ4JsAEmAATMBFgpWFCwSdMgAkwASZQFgFWGmUR4ngmwASYABMwEWClYUJRPSd+wlXtiP7sPKp66HKpTIAJXG8CrDSqmfi7T2nxxmOF1VwLF88EmAATuD4EaoXSaB4eh29HzYafp9/1oVbOWnyFP6nbe+mwYKX1flnlLIKTMQEmwAQcioBDKo0w31B4unlYgQr3C4OHq3UH7KpxhcbFBRqo/2LcqiAbAQFeAaqKx9vdC97u6h4FbRQlg//1oFa0C/h4oXWbS8vHcUyACTABRyXgENuIEJw5987A/ouH0L5+W6kwDGLH2knL/4X0Kxno3fRGPNz1AZByIPnz9N+YtXUu3MT1N/fPkmH09eXw/8rzIynH8M666agfUA8f3PEmXln5OhKzk2S5c0d+gembPsPeCwdk2lf7vwA/Dz8ZF+kfIcNm//0NTqadknlPpCegWVhTsb1JMTYlbMG87d/JNOX56hKvR3qWCwqLKqfMylMXp2ECTIAJXA8CDqM0XFw06BrbCRtPbMbaY+tBU06F+kLUC4jEo93Hy05+/o7v0TG6PcZ1GYXVR9biXGYiHvnpabSMaIbJfZ4RSuZVXNbmCF/iRsMzjT7MheogoTGJIhoRFhvcAMfTTuKrbfOF8vCEzlAkRy6UJtg7CK+ufgODWt6KPk17YcGOhdAb9Er2Uo/REcVISLRsQ6kZOJIJMAEm4OAErvWeDtBQGlXM/ec7OSrYcHIzLhfkoG9cb9myzLxMDGk1UCiRKNGp63F7/CAZXlBUAK3OaGimc/pQvL3y/vr/SsVxQIx2jqQcN2VfdnClVE7LDqyUiqRpaGNTXFknPmJT3rRMh0JcVpM5ngkwASZQKgGHGWlQK/dc2G/V2HDfMBkW7BNsijt48TASsy6Yrit7kpyTIkY16stiE9JPy+JpBEPi6+Erj+X5ys51QXS49a695cnLaZgAE2ACjkjAoZRGflG+FSMafZDM2b4AWfnZVvEUQB77SDzIeK6Vp/Ir72p5ZOCGsGk0Dml4LdLsTBmpmAWZTpWyTQF2nJxLBhrWM7bNjmyclAkwASbgsAQcfu7kj4Q/JbxHuo1DhF+4NFj3E1NWrSJbmKAmZJyWhurBrW6Vq5/cr66wuiSmtEghDGrZH6G+Ibi3/TBTnutxsnabG4L9ixEWxIrjevDmOpgAE6h+Ag6lNNTe6mnVE61YalsvHv8d+i5o9RMZwn3MlsAWiaklWtnUv3k/zBr+MV7p97yJ3G/H16NDdDt8etc04WNc/XbVHD+ZCqjEyawlHigQ5papD5sNfypRHmdlAkyACdQ0AadxwuQi1jwpS2JTc9U9/NmCSb+zcHf1EIb1y7aSVFv4i2ML8fg9RWg6tPy2kGprDBfMBJgAE6gkAadRGpW8zxrN7i/2n8qx4aq2RhvGlTMBJsAE7CSgPl9jZyGcvHQCrDBK58OxTIAJOA8BVhrO86y4pUyACTCBGifASqPGHwE3gAkwASbgPARMSiMlJcV5Ws0tZQJMgAkwgRohYFIakZGRNdKAmqq3Rm6WK2UCTIAJODkBk9Jw8vvg5jMBJsAEmMB1IMBK4zpA5iqYABNgArWFACuN2vIk+T6YABNgAteBQJ1SGhpPX8SO/ggewfUt0Lr5hSLmvvfg5nttJ12LBHzBBJgAE2ACkkDdUhpiOxGves3h6hNo8fhJmXhFx0Pj6WMRzhdMgAkwASZgScChtka3bFrlrlxdXaHXG50xaTy8oREKw5YUZpzDiY+G2oq2Cjcv2yqSA5gAE2ACtZhArVIaPj4+aNWqFRo3bow9e/YgISEBkQOfRmDbAfIR6i6nWj3KuGcXC4XiKcPPzHschZeMzp2i734dnhGNcWrWeFOexhO+RlFWCtx2zEHnzp1x9uxZHDp0CHl5eaY0fMIEmAATqM0EnF5puAg/4LGxsWjZsiWCg4NRVFQklUViYiLcxDQUKYzs/WuRtWcVoodNtXqWp2aNg1dEEzQY+a6Iu+bPO2vfGpH+NWn/KMxMgltABNwDo5D2xzfQXriAoKAgNGnSBE2bNkVWVhaOHj0qlYja9u5WlXIAE2ACTMBJCTi10ggLC0Pfvn2ln4yLFy/K0UVq6rXRRFCHW+RjSV03C8UGHS79swQR/Z+weFQG7RXoC3ItwujiyqkdKBYOnAJvuB1pG2YjuOMdsowrJ7eJowF79+6VH2pDfHw8unbtii5duuCPP/6AeRusCuYAJsAEmIATE3BqQziNMuhDb/dkv1BsGMrz8G7QGobCPNnZU1hB8nElquyjKDM3YTsCWt0s0wbE9xWKZJdUGOaZDUKBKPVSW1iYABNgArWZgFOPNNLS0rB48WI0bNhQ2jJuvfVWaLVanDp1CkeOHEF+4iH4t+wNaFwBg17YKJra9Syzdv0C/xa9EBDfR664ytq1XOZ3d3eX9dH0lJeXF3JycrBz506cOXMGpERYmAATYAK1lYBTKw16KNRJnz59Wn58fX3lVFHz5s2Rm5uLs8f/ktNR4X0eRvaelQjpeo/lc6SRgYsGLmKlFYkL+RYnBVMsOn4x0shPOgqDNg+Rg54TI5Z85J0/INNFR0ejRYsW0oZx+PBhWZeM4C8mwASYQC0n4PRKw/z5XLlyBTt27JAfNzc36HQ6XD68UdojyCahy80wT46QLncjrPd4U1jDcZ/J87SNc5B5dVRB+YNuGILLx7aY0p0/f56N3iYafMIEmEBdIlDj7l5pl9vq3pbd1csfLuK3GmpLbuvSw+Z7ZQJMgAlUlkCtGmnYgqEvyBFWcPFhYQJMgAkwgUoRcOrVU5W6c87MBJgAE2ACdhNgpWE3Ms7ABJgAE6i7BFhp1N1nz3fOBJgAE7CbACsNu5FxBibABJhA3SXASqPuPnu+cybABJiA3QRYadiNjDMwASbABOouAVYadfDZ07bu3t7edt354MGDQT+YVIS2n6dNGlmYABOoWwRYadh43uQCllzD0lFVxHYjfs1vRGjP++FVv6VqEluBt9xyC2grEkXq1asHCrseEhUVhcmTJ6Ndu3ayuvfffx/z5s2z+IwcOdKiKaRkxo4di4CAADz//PNo3bo1+vTpgzFjxlikq8gF7RIcEhIis/rFdQP5MbElrt7+CGo3ECHdRoht6iNtJeNwJsAEqpHAtVfHaqzEGYuWLmCFa1g6osT2I3Q/TR+bD1fhU5x20Q3tOUruTXXuf5NBXgDLkgkTJmDdunWYM2eOTDpgwADcdttt2LRpk2nH3LLKqGj8E088gezsbLnVCpURERGBXbt24cAB475apDDoV/rmcu+990ofJf7+/ujWrRtWrVoloyu7OaOnp6dUlvv378elS5fgEdYQPo06mFdtOieF0fSphWJLMAOKi7QI6zVWOMxKxNlvn5Vb2JsS8gkTYALVSoCVhgpecudqLhoP4Ttc7G1ImxcqcmnnMlw+tB76vGz51tt4whxE9HsUif83VU7j0L5XlRFqQ/369ZGUlGSlSDQajezYyYcIOYOizRlL1kdv8NSpU2esCI1uaDPHTz75BJMmTZJ5Ke7YsWPYvHmzTEbKy1zi4uKkk6v//Oc/uOeee2QU5aXNIamNs2bNkmHbt2/H/PnzzbNanCt7gZkH0miHtrWn+kuKm1DI+vzLYu9Io8veYr0OaZu/QabgTjsWB4oRR+SAiQhsPwi0GzG74C1JkK+ZQPUQYKVxlWtJV7Hns4pkTJRwF0vTT/SGe3n/b0j5/QsZnrljqemJFGWnQH8lExrxNkwyZMgQFBQUmLz5mRKW82T8+PEYOHCg9BVCWcxHJf/73/9kOCkO8hhISoMUxmuvvSZ3+iWHUC+++KLJZkFK4+WXX5bbt9O0VGFhIXr27ImOHTvi7bffllNVNLqgNpOEh4eDlBEJdcSvvvqqPCfPhFOmTMG5c+ewZcsWOeKgaTVl1EHb0ZcUUhTNmjWTiiozM9OkmCgdxZFd5MSJEyW2k3dBo4dmwiOkgRxBEO/LhzbIkVymcKKlSM6RTVJpuPkEgbaqv/vuu2W7adfh9PR0JRkfmQATqGICdVpplOYqFn7GKRo3vxCcXfAMgjsNRUC7AUhdT14AjW+/yrPwFO5iaaoqa69x2uaff/6RW7R3795dGovJzwZ1ZrQLryJkE+jRo4e8pGkaRRo1aoRBgwbJ6aCvv/4aDz30EPr37y+nrk6ePCkVBu3kSx0ldfyvv/667NjJJkJv+qQgSDG8+eabCAwMxMSJE0HTS3PnzpX1k78RMmCTvxFqEwkpAiqbhNqlyLPPPgulbWTHoI5+2rRpyMjIAI1kyMaxYsUKJbnpqHgzJKVCI4kLwj3uwYMHTfF0Qr7cib8yLaZEughbkTb9LJKWvY36d01FSPeRUmko8cqRPCqS5Bz7U7r43b17t1ROxIru8fjx43IEU3IEpuTnIxNgAhUjUGeVBnVspbmK9fAzAs3Y9iO0aaeR8fePCGhzC7zqtUD+BWNnSylo6ip6+JtiB900keYnmYne1OlDnSxNB9EUD/kSp918N27cKNOQAyl6eych3xw0FUVy881GT4Gff/65LOOzzz4DnVNnrnTslI9WP3Xo0EF2jDQ9RSMOmu6hTp7czZJDKpK8vDw5siClMXXqVNx5551o0KABPv74YxlPX9u2bZOjGTpXDOR0TuXOmDEDzz33HA4dOiSnokhhKFLSpkGjn6FDh8o20CiIpqxIIamlU/yRqHXqaetmQiem/bIP/C62rh+nVGc6kpImm8blg+uhTTWOcGjEQh+aNiOFRD7j27RpI5WSohxNBfAJE2ACFSZQZ5UGveXSx5arWIWo4iJWn5clgzReV7UJXYm34tgxH0Hj5o7T30yUjpuUfHSk8s3d0NK1ItQJK4bwcePGmZQGrSSiNilTRDTVQmUoK4woP40kSCFROhKKp2tSBiTUedM0Ewkpqvz8fHnevn17jBo1So5i3nvvPVMdNEqhTpyEDONK3bNnz5YjCgonI/gjjzwiP3RNU1d0P9999x1dSqH7UES5b6WNSjgdSYFSe8nPekkhX+6kMEh0YsrPRTjJMhdaNRU76kNoU04hee2n5lHyXHmedKT2EQsWJsAEqo5AnVUaZbmKVRAX23Df6iI6o5hR0+EeEIEzQmEoSoXy0bJWetulDpg6L3rbJkMzuYUtS2junzo7KiM5OVkqC+qgzQ3atspITEyUUX/99ReWLr1mc1HSjx49WtpaaPpm9erV0jbx6aefSoVA9ZFQZ64mNLU2ffp0UxRNoZFNYubMmTKMRhP0+fnnn+V903QW2U7o/slpFSnJy5cvy7Rt27aVBn6y+9gjZBwnR1lFOek4v/BFCyVNozlSfKTc6P5o1EEjsqIio23Knno4LRNgArYJqPcQttPXqhjq5Gy5ilUM4bZuuP6wf8MrKk4axt18g0AfQ2GBnMqiZanUWZFt4+zZs1bTM7bKpPA///xT2jSefPJJ2SHT8lwlXJ6U8kX2AaqXVkCRHWXfvn0guwotoSUl8tJLL8nc1NnTj/WUH/gtW7bMND1FIxA1IVZUniJkTyGbhXmYEkfTY/QhBUTTc/QhGwwpTvLn7uHhgT179ijJy3XUCCdaseNmCO+8btKu5FWvmcxHCsQlPwudOnWSoyqy91DdLEyACVQPgTqtNMyRlnQVqwk02hjM05if+zRsLy8jb33KFEzLbxO+HCPf4u15w6W3cRI6kt1iw4YN6Nevn8nuQKuVFPuHUpmSR7mmI9kHPvzwQ7mcVlEQFL5161Y6gBQRGcHJ7kHTVnTPNIqht3SyX5CQTYCmtmh5LhmwKyPUHrIn0IeUBglNkdGUW3lGXdcm8yCWNUfBzSdQltFA2JAUIUP4xRXTpFK0h7mSn49MgAnYR6BOuHu1D4ljpKaOnd7KaWrL3mkcugPq+Gn1FE0N0XQNyWOPPSYVwe+//y7DvvjiC6kkZGSJLzKOf/XVV9KmQYb4++67zyLFgw8+KBUAGcnLKzTiocUHtISYl8WWlxqnYwKORYCVhmM9D4drDY1E+oiVW+vXr7doG60+oxVbyooui0gbF6QIaUqMVlaxMAEm4JwEWGk453PjVjMBJsAEaoQAr0esEexcKRNgAkzAOQmw0nDO58atZgJMgAnUCAFWGjWCnStlAkyACTgnAVYazvncuNVMgAkwgRohwEqjRrBzpUyACTAB5yTASsM5nxu3mgkgyisSfSJ6oW1Q61pLI9gjCAOi+qF9UBvh0sb855619pYd/sZYaZTjEZFL15Du95YjJSdRI9CtcT28fvuN8PFwQ7i/jzxvUz9MLel1DRvZuSWe6nODrLNrI2MbfT2Mv1y/Hg3xDgxB7ydexwNz1mPYtP/ZVWW4Zxi+7zkHE+IeRJx/E7vyVnViF+FHxqvTYPnxaNsPLh5eFarCNaIR/O5/A8FTfoHPwMdkGX5ufrijwWB81PE9PNfi2u4LFapAZKJNPcl3DkvFCbDSKAc775i28Ikx+tQuR/IqSUL+yevdLjblq4DcMmkaHl1svYNsBYqqkizNI0PQvkE4vEWHHOLjJc8bhgZYlD26azxmjxloEVZVF9PuvhmT+ne2Ko6UWc8mxu1iWkQZ2+jjef2Uxi2TPkC7O8ciM/EUUk8Y3e1aNdJGQK+IntAX6zFm68P4+bylTxO/YS8h9IO/beSsXHD4zBPw6jncohC3hm0R8MQs+D/6OYKemYfwL44i+OXFFmnKcxH8wkKpeHQJu6FPOS2znM9LxNM7J2PVhbXoHNqxPMXYTBMTE4ObbrrJtKWNzYQcUSoB3ntKBQ/9Cpq29lYk8Uej9zrluuTRzT8MOrFxnpq4Cs9yxbpC6UtcLd5WmMbTR/rqsBVfWri7lw/cPCv2tkflevj6w9MvEDkpiVbVaFzdENKwGS6dPS68rl5jZJXQzgAvdzcxErHdYbuKXYUj/L2RkpMnNoA07tVV3iqoXG9RfnWKf0Q0DLoiXLlkuVliSGwz5KYloTD/mgMupR3Rbbvi/O4/sfI/E5Sgch/pDfxSYSaKxb+S4kJ/O1e9SJaMo2sX8Qw1oQ1gSD9v5VBMLb15mItwA+Di7mkeZDrPmj4SRaf2wGfQ4yDF5dm2L7QHNpriS6vXRWxISW3K/vIxaHevMeVRTpLyL8LT1UO5rNCRfMXQLtLZ2dnsHrhCBI2Zqvd/UiUadr2zlnT3mpCQgJBuI6SzH2pL3tl90v+30q6Y+96X26JrvAOgEf+JyN1r4uJ/i11uz8jdb2PHfIyi7GS50R7luXx4A5JXGx0fxdxn3En2/KJ/yeLqDZkMz6hmODP3MUQNnoSA+L4ynFyeNp9sfIukuMLMJBlu66vtHQ+g79Nvm6Kf+e2sPN/9f1/hz6/fxePLDuHSuRP46Zm7ZDgpgCdXHsOpv9Zi9dtPYuKaBGhzL4OmTUhy05Px/YT+KLxi3NL99jfmoEmPW2UcbZi4dd4H2PXjl3K4TxsdqgltQV+a0Jv+5AFdTUmWPm5s27d/H8KyvSdk+BM3d8CtrRrJc4Ood9bmvVh35CzchCKZN+42nLt0GVOXb5Hxb955E5qEBeGhb9fgid4dcHPzGBkeHeQHpeynfliHi9nGDRplZAW/7p+5Gl5Cubp6eMIn2Oi/5K8572HXT7PQ6d7H0fOhl8WuvMbB/Lldm7HsXw/ImkbP/g2hjVrI84Zd+oCeU2FeLmbd1VruF0a7AJcU2ozRfPsVL1dPEAtz8ew8BIGPG7eqp/CIOedkdO7id5H36yx57j92Grx73y/PhcZAzrevIH/LIrg1aImQ139F7s8fIm/1F3Dx8kXYh/9Ad/4wMj8Q/w/EuSbYuH2+/wPvgT7FhflIe9J4H8YCxbfw5Z4v6pJKo/vdJqVhq17KF/7lMTGl5S2LCHzyK3nU7v5VKJBH5Tl90ajKU2PNxZSgjBPai422zVe2w6FRR+fOneUu1LRtPzkrYykfgTqtNMhvRWxsrPTyFhwcLLcVJ2Wh+KXI3PEzsvf/iugRb0vFYI6U3JK6BYQjdcNs5CceFo6BPkBgu4Fi227jH71MK9Kc+/ZZBLQdgKAbhiBt03zpd4O29zZ/Q5RvYKIDJ0n+9VOkCs91sQ98IrwBpiJp+bsy3CD+g5Ylh1YvxLENy3Dr5Olo1KUvvh7ZSWbRFRjznti8EvEDR8LD21e++dLUCCmOv781KjNyeOTpF4Dfpj0vOsEw3DjhVbQfOh47Fs5Atweekwpj78/zsG/ZfNzy/DT0GP8C9iz+SrqbJR8ZajJe+DvfcPQsEjNzkJ2nRX5hEWZs3I2DF4zK5O8zFzF67kqM69EGveKi8ch3a2UxhXqDPN7WpolUGN9vP4xNx8/joZ5t8Giv9thw7Bx0Yrv2t1ZtBU0/3dkuTnQsBpCt5NVlm1Go0+PzTbsxe8s+TB/eB6k5+fhg7XZZZn6RTh7n/XXANLpR2piVV34fH/Q34B/ZQCridR+9BHfBVV+kRXjT1rjxkX8h+ege/P7hC2je5w7B73nUa90ZFw/txKKJd8DV3QOPLNqBc2Kk8dsHz0MMn2SbZs2apTrnTptWki93ErJn9I64EfuyDshr5atQdLRpE1vBb8RUeHYbiozJXYxRok0k3v3GSYWRu3QaCrYtgf/If8N/zDso+Ov/oEs8KhWG393CXfDBTaKMKWJIIvzQz3hI5s14tZfwvCVsUjMOIefHt1Dw5yLRZsuRJvHQ+IfCd8hEmUe751d5LK1ecp2c/lx7uPiFIuyDbcj+/GEUHt2K4qttlgWIr/1ZB+Ht6o2eYd2wLf0fi/8/SprSjrSVP+2srLzE0A7OtHdakyZNpFMwUsi0kzS5MlDbQbq0sutaXJ1VGmW5e6U/BPIip88Xb9ni7UlN9PmXkbV7hYzKv3gMPrGWdo/MnctQINyRajfOlkrDv3lP4Ud8tVpR18LEfyKpIEQHWCzqLY+yUDLTdBGNCvRFheIP32AaISjxf3/zEVoPug8dxVvw3ws+kvPpVzJSZKenpMk4cwxH1xsdOHUc8SiadO8vlUb8wHsFDwN8Q8LFG/RL8s2YFE7rwaPkduzkL1xNaCogU+S7kGV8s9cVGrBRdPiK0FRTvuBcJJSE8LUHpUNX4gfEN4Je5A/29cKwG5rhirZIjjC6C8P11lNJOJGaCVIoY3u0lll+2nkUR5MvyXP91bJpNksn2JQs+2DStSlFap/SRqXu8h5/enqoxfTTgJeNSjjvUhq6jxUKQYhBPEtSvMteGQN9oVZ+qHMyiGeljOQoHe0arDbSIG+NJGQQppVEF8R0zbyEb2WY8iV91xeIaTDR4bqIsovp3Ey8e4+Wf1OugRHwHfQEDHnCKZarOzw6DoJ25yo5wvBsdwtChCGawjPfvxvF9PcvRHbiSkdeVGBVNqUJetHo7pjO89bPl2XSeVn1Fgs/NC5aY1uLtfmqZZ/IScDi88vwZrupctQxdtujSCmw4T3khAAADqBJREFUnAqkutSEdnuml0JyTqYIjdzIcyR9FJ/25DagS5cu+OOPP9gniwJK5ahRCasTQTTKoA/9x1Vck9p740VZF01ZDEKBaNwt7QjaZOP0CnW2hoJcK6ViynydTmi+PfPcSbQZfL/o/CMQFN0Y+1dcc9dKzSCloUj2xXMIjo2Tl2TjoI6P3qzp4yOUB71JF+VdASkM8r+h9lHKqugxyNsTNOqIEquu6BMilMeus8nQipGEIisPJJjeDpfvO6kEX5cjMS1prwgQfEiIkcKLDN2Xzhr/HkprWGhoqCpH2lae5PX97+Df+99GiFiKOiJ2WGlFWcVpAsOlQtGEN4T8BEVBu38DqKNWhKaySGGQIbro5E4luFzHnAUvyZGJ4XIavHvcLW0nlLE89ZZVQT3vKAyPuUsqjge2TUCa9prCLyvvDTfcIN0LkJsANSEHY4oNk/oEltIJ1NmRRlnuXpU3u9Lw0dt8aeIZGYf8C0fkvDYZJ/MuHJbJDeJNjYzniniENVROrx2FMnMR/3krIjTioKkCNdn540zc+uJH6C+msEiZkb3DXEIbNjddBkTFIPui0S6izc2Wtg7FHmJKJE7eeustkJFRTchvuPlcvFoaCqP5ebX/r5cLChHq64131vxtKyteGdhNTFWJt3bxPKYM7i7sG39apKUXA3c3dR4WCStwodNaT2ddTk5E/TZdseadiaqLCUqrZsqUKfDz87NKQnPu999/P3J1udiavh3rkjehW2hnzDwxxyqt/Lss4VudEhlyMuAaXA/Zn423ykMBtFQ26Jn5MFy6ANfIxtKgrdhCLDLYMITrkhNQdGIHsqaLJepvroPvXZORu+T9Muu1KNvGRbewznKEMfukaF8Z/+/MiyBbG7kyJo+O5kJOwcglM01PeXl5yamrnTt34syZM3Z52jQvs66c19mRBj1gxd0r+ctesWKFtGWQa1IykpHIjpc6X/EfUNogxLmtzlhmKPEV0vkueIREI6z3eNEhapB7dItMkXd2L9yD68Mzoin8m98o0hjfTM2z5wsF41WvuUjTxO5VVGd3bJJz5vGDRsIrIFjaLZSyj/y+WE6NNOx8My4e3imnspQ4OoY2bom4XoPR9vYx0rh76q/fZPTxjcvFiixv3PzUG1J50Gqh/i98CO+gULz22msYOnSo6qc8CoMq2JeYKlc40e8laKUTrZYiWXfkjPx9x4hOLeQxUIw8xnRrDeX3FEOEzaNDTATeXb0Nb6/ahvh6YXIaS2a++nUkOQPNIoLROCxQLvs1j6uO832/LJDF3jblc2nw9vDxQ9fRz6Bpz4FlVkd+3NVYksIwl8zCLLGayNM8yHRedHiLNGR7dhggjn6mN/4CYfCm31T43v6MPGoCwuB3zytw8TFOLQZOnCtcJHrh0puDcWXVDPgNfxVujSxfBvTpiWIUcQ804u9aMV6bKr56oks6Lu0iPgMmSEVUVr0l86tde2lExy4Upj0Kg8ohT5E0FXXq1CmLYmlUTD7lk5KSsHLlSqxatUqmoT6BpXQCdXakURJLSXevFN/06R8tDODNJy2TNoaTn91bMrtpesQiQhi8Gz00SwaRW1KdWGFFknN0M4I63omGYz8Rb/t6ucqKlIq5ZO76BX5x3UWaT2XwmXmPo1C8AZZHTvyxAj0ffBH9xe8AID57ls7BlllvmbKe3r5eKobt3xnLNkWIE3pzHvzaTBmUn5WBvcLoTfLX3GkIaxIvDeNkHCch2wnZRqpC9gqlcSYjG68M6iaL+06snvpZrJ5asT9BdPZBuL9LK/mhSLJNrNh/EjHB/njwxrZYdfAUDly1T9CKqweEUtl7PhWn07NlWStFGV0b18dHw/vK64mL1iHpqo1FBlTiS220mXJ0r+RCxm9aKUVCo7r1n7xSiZoss+bocqRB3MvVCwV6y9FO4aHNwrB9BIETjaOQ3MXvidVTM5H3+xy4xQqFK0YA9CEhu0feb1/DSxjJPeJ7IeuTsTDkZuKKWEXl2b4/gl/4AemTOpoM01eW/xf+48TfgjBak50j7Ylm0n5iLOzaaq6cH99E6FsbhFH8GWFg/8BmvddyyBJsfjUPaIqMgks249UiyDZEL4AHDx60+v9JU1Vs9FajVnYYO2Eqm5HdKbyi4kBLbk/PeVR0Fjrxn6vAaFAvUZJ7UD2xQipFdigloqr1ctRXa+EfUR9fDbNc8fT0r6exZ8nXYspqthyh0PLckkLLSyPi2iAvM01MXZ0rGV1t17S8lpbN5ghD+KUr1+bgq63CKiiYltuGNW4lS8o4c7RKf9cS4RWOb7rPgodYhrr0/C/48sTX5W+xmPZ0q9cUhitZMGQmlz9fZVNWoN7m/nH4pNM0eZ8fHZ2BNUlGJVyeptCKqbi4OCxZssRksyhPPk5TOgEeaZTOp9KxOmEUtCXmhnRbaaoyvNnNd6DzfU+Ijqwltl9dZqtWfl5WOuijJrTy5+LhXWpR1RpGy2vPit9jOJPQ6CIt4VC1NDm1IA13/HEvIr0ixFy/zr469EVyia19maogdQXqPSd+Ef7UzheQVpAu7Tn2tOL48eM4duwYKwx7oJUjLSuNckCyN4kuLxv55/aLHz/l2Zu1WtPTj/YMOh22fTNdLqMtWRnZOFKOW679L5mGrx2HAP3gjX4pXZuFpt5O556p0C3m5lb+B5wVqriWZ+LpqVr+gPn2mAATYAJVScDS+lqVJXNZTIAJMAEmUOsIsNKodY+Ub4gJMAEmUH0EWGlUH1sumQkwASZQ6wiw0qh1j5RviAkwASZQfQRYaVQfWy6ZCTABJlDrCNQ5pVGau0fynxHe52Grh8zuXq2QcAATYAJ1lECdUhpluXv0IbeuDTtY/SnUhLtXq0ZwABNgAkzAAQjU2h/3lXTZSqzN3T2as3cLEL+qzc0wD7I4L8vdq0ViceHm5gad+BEdCxNgAkygthGoVUpDzWWr8sBKunukcI/QWMSO/lDuIksbz5HPC13utU3RbLl7pW3Nmzw2H0m/vI/c40bHLr5NuyF62FS539Tgm7vK/fsVT2BKG/jIBJgAE3B2Ak6vNMpy2ao8oJLuHik87KYxMvr8Dy/LbcjJnmGuNGy5e9XlpEtXrMEdbzcpDTqnvLSf1D///IP4+Hh0794d5A2M9ug/fPgwaCddFibABJiAMxNwaqVRHpet9HDU3D1SuE9se9CW5eS7gj6hPSx9FpTm7jVr/1qE3jgaLm4ecntzsntk/rOEisXFixflh6apyD8H7bTZtGlTpKSkYOPGjTINfzEBJsAEnJGAUxvCy+uyVc3dI3X2GuFNrzDtjOm5FWUlmc7LOsnet0Y6Vgpo1QcBLXtJ50xZe1ZaZKP2mbuSZVeSFnj4ggkwASck4NQjjfK4bLXl7rFYVwiDNg/uZq5W3QOjUCSmnsoj+vwcFKSeQmA74Y1N2EMKLyWanCyRe0lyJRkRESGdv5w7dw6bN2+WLiXLUzanYQJMgAk4KgGnVhoEVXHZevr0aZCCIFsCTQnRtsgJCQk23T1S3rzzBxDQohey966Bd/0W0AjXmDBTGuTaVXoWI3evYhtq4TcV5HaevO2R0Ggj8tanRJzwm7BRuMq8Kt26dZMuJsm2Qd7B2IWkQoaPTIAJODuBWrs1OtkTNMJz2rBhw6S7x0OHrJ3heIY3Qsyo6dKlK3X8xWLkQSONswuels817tnFFu5eKdBQmA/F3StNccU9+38ybcKM+2QcXZDTevJLzMIEmAATqG0Eaq3SoAdVLnePwu7gERyNosupoCkrFibABJgAE7BNwOmnp2zfGlAud4/FxdIeUVo5HMcEmAATYAJGArVaabC7R/4zZwJMgAlULQGnXnJbtSi4NCbABJgAEyiLACuNsghxPBNgAkyACZgI1LjSoF9JszABJsAEmIBzEKhxpeEcmLiVTIAJMAEmQARYafDfARNgAkyACZSbgMMojTt66xAWJH9/Xe7Gc0ImwASYABO4vgQcRmlMeUiLz18quL53z7UxASbABJiAXQQcRml8tsgDPdrpER3Bow27niAnZgJMgAlcRwIOozQW/uqOQrFd0xuPaa/j7XNVTIAJMAEmYA8Bh1Ea1OgzFzVo18y4g2zJm/j888+xaNEijBgxomQUXzMBJsAEmMB1IuBYSiNJg9BA9Tt3dXWVEbR7LQsTYAJMgAnUDAGH6oFTLrnA3U3dprFkyRJER0dj+/btNUOKa2UCTIAJMAE4lNJoWM8ArY3dydetW8ePiwkwASbABGqYgEMpjdioYqRmqs+Y9ejRA40aNcLu3btx7NixGsbG1TMBJsAE6iYBh1Eanh5ATKQBP/7mrvokhg8fLqengoKCWGmoEuJAJsAEmED1E1B/ra/+eq1qeO5+47zU23M9reIowMvLS4ZnZGSoxnMgE2ACTIAJVD8Bh1EaDwwpwi9/uOFKvvVNk6/vkJAQ6HQ6kEGchQkwASbABGqGgMNMT3Uf74O8AhdVCrGxsSAvfKtWrYJer/47DtWMHMgEmAATYAJVSsAlJiZGrnGNjIwE+7aoUrZcGBNgAkyg1hFwmOmpWkeWb4gJMAEmUAsJsNKohQ+Vb4kJMAEmUF0EWGlUF1kulwkwASZQCwmw0qiFD5VviQkwASZQXQRYaVQXWS6XCTABJlALCVSZ0iho0hf5LW6D3j9KFVOoZwia+jdWjeNAJsAEmAATcA4CVaY0tA06IXPAO0h6cruq4gjxCMZXXT5DkIeNvc+dgxe3kgkwASZQpwlUmdII3DwdUV/3lTAL699gBfVETgJO557BqIb3WsVxABNgAkyACTgHgSpTGnS7moJswKCDwd1X9e4XnVuMoQ2GwMtVfX8p1UwcyASYABNgAg5DoEqVBt2Vi0GPYg91pXEg6zBcXVwR6xPjMAC4IUyACTABJlB+AlWuNDyS9+FK62Ew+IRatSJda9yhtgkbxK3YcAATYAJMwBkIVLnSCF47BbrgRrjw9G5cuv1jCwaGYgPy9fmI8Ay3COcLJsAEmAATcA4C/w/HewQI7D4EmgAAAABJRU5ErkJggg==;" vertex="1" parent="1">
                    <mxGeometry x="17" y="290" width="397" height="340" as="geometry"/>
                </mxCell>
                <mxCell id="sV2zp9CzRk4rJG-wNQsg-3" value="" style="shape=image;verticalLabelPosition=bottom;labelBackgroundColor=default;verticalAlign=top;aspect=fixed;imageAspect=0;image=data:image/png,iVBORw0KGgoAAAANSUhEUgAAAh4AAAEuCAYAAADBURt6AAABgGlDQ1BJQ0MgUHJvZmlsZQAAKJFjYGCqSCwoyGFhYGDIzSspCnJ3UoiIjFJgv8PAzcDDIMRgxSCemFxc4BgQ4MOAE3y7xsAIoi/rgsxqOqd2d+pGwehjat+yq+1cc3DrAwPulNTiZAYGRg4gOyWlODkXyAbp0UsuKCoBsucA2brlJQUg9hkgW6QI6EAg+wGInQ5hfwGxk8BsJg6wmpAgZyBbBsgWSIKwdUDsdAjbBsROzkhMAbJB/tKBuAEMuIJdFAzNDXx1HQk4nFSQm1MKswMUWjypeaHBQFoIiGUYghlcGBQYDBnMGQwYfBl0GYCWl6RWlIAUO+cXVBZlpmeUKDgCQzdVwTk/t6C0JLVIR8EzL1lPR8HIwNAApA4UbxDjPweBbWAUO48Qy5rMwGDxhoGBuQohlrKcgWGLPQODeDBCTH020EnvGRh2hBckFiXCHc/4jYUQvzjN2AjC5nFiYGC99///ZzUGBvZJDAx/J/7//3vR//9/FwPtv8PAcCAHALbUa30s2MP4AAAAOGVYSWZNTQAqAAAACAABh2kABAAAAAEAAAAaAAAAAAACoAIABAAAAAEAAAIeoAMABAAAAAEAAAEuAAAAAIYgFZ8AAEAASURBVHgB7J0HeFRF18f/29IrKSQkoYVeBZEiRZqACFKkCCIiCKIgApYXG8UCip1PrIjYQUDADiKogAiI9E6ogUB6b9u+ObPczW52N2xCAoGc8zx37/SZ+9vAPXvmzIwqJibGDBYmwASYABNgAkyACVwFAuqr0Ad3wQSYABNgAkyACTABScBO8WjSpIkDlqhQM+7tqcewrnpEh5kc8jmBCTABJsAEmAATYALuEtCWVHB0Lz1m318Araao1JvLPfD2So+iBA4xASbABJgAE2ACTMBNAnYWD9s6dSPNmDPGXumg/OlDC9G/g8G2KIeZABNgAkyACTABJuAWAZeKx+1tDNC4yO0l8liYwI1GQB9SD4bAaLvHMuu8UVCzvV0aR5gAE2ACTKDsBFyoFkDt6q79OWLCXeeVfSjXtqY6OALBTy2HOjD82g5E9K6pXgdeN/eVl65BO0ClKtOYNOG14TdiDoKf/R4+vR8qUxuVodItt9RH375t5NWokb1iUJrx3XprY7z22lh8+ulUdOxo789ECsbFMT9DH9rAvkmTEUlDP0debA/7dI4xASbABJhAmQi49PHYeVQtnEqdt7knzsbpw3mRq57qHdUY0fe8ghPvjYIxL6vU/au9A6CrfwvU3n4wZSSWun5ZKujqtUHw/1YgeVormLLTrE34dB8D7x4PwGw0QKURX5FRj9zfFiF7xTxrGXcCwY9/LbQYHQr+/QnGiyfdqVIpy0yfPgihoQEwmcxQq1UoKNBj4cKf8Msv/7o9Xm9vT8yePRLx8ck4fDgeqan2fyPZrUZDXZgN7xMb7dpUGQvh998SZHR/Ft5xv9vlcYQJMAEmwARKT8ClxWPVZh12HHFUMJIzVFjwXcnOpSq1Bh7BNaD28HYYkVrnCW1AmEO6kkB1tb7BStThTnW1PoEO6Sq1VhgGxOPQVQYxnD+KxPG1YbhwwmlttZcfVN7+TvNozOqQ0v8SVwmlgMZrdjZmswlJD9VF8mMtUHh0m7RY0BhshZQSsmpQ/8VFJdjTmLK+nomspbNRsHtd8SLXJE6KQ716kfDzc/zboAGFhwdJJaP44BIT09G79/N46KF3YTSaMHaso1bs6+uJmJjQ4lVlvGfPluLvQ4WJExfi1VdX4NChs3blMjo+Bv9tHwBmx21t/Hcsgr5aLAqi29rV4QgTYAJMgAmUnoD4Oe1cxP/tmLbQE7+/kQtP8X5U5KkPPZGS6dz0r1KrEdH3cfg36qIUR8rWpUjZ8pV4OaoRdfcc+NS6SeaZDYU4//085Jyw/Gqt99gK6FPPwiO8rlQg8hNP4OyX02EWpm6SoJv6IrTLGKsyk3/hOM58OU20q0X96atkGfqIfeRLGc49uw/xy56xppcUCHvvCOhFTZL6XFer8qGJrIeQFzdAH7cTutibxUvJhLy/vkHWF0/LsjSFoQmNgUooQqQEmPNzkPbKIBjiD0OpmzqzJ0ipofapn4wFY1BwYBPCP4yTbdBH2Fu7ZLjwyFakvzbcmk4BU046ctctgkfjTtA174aCHT/IfP/Rr8K7ywhLWTGurM9nIG/TUhm3fZ7ARz6UaQX//YqM9yZYyrv49PHxga+vr9PcpKQkp+m2ib/8Mgc//LAd7733k0z+7rtnsWfPScyZIywvQl55ZQxatYqVVguK//rrTrzxhuW7a9GiDl58cRR8fDwpC8nJmVLJyMzMlXHl48SJC7LNDh0aybK5uQUICvLF229PQFRUiCxWWGjA009/hr17T6JBgyhhHXlYqY6ffpotw4sWrcWyZZtk2OgfCbOHLzzP7bSWsw1oshOhLshCQUxbeMZvt83CLbfcgscff1xYYQpw//332+VxhAkwASbABBwJuFQ8qOiZRDV2HdNgp7gupqrkipbfd7muUq39cKl0pP27CqnblsOjWjQ8w+rIXgNb9ZNKR/LmL5ArlI0aA59FZP8ZiPu/4VK5oF+jHmG1cW7lbKFc+KDGXTPgHdMMuaf3yPph3SdIJSXhx/nQePrCp05rmW42GXB8wTB4RzdF1OBZOLloAoy56TAb9DLfnY/kJ26BLqYpgp5cZmd9kBYU0YAmqDpSZ/eGz+0Pypd99tfPX5oG0UHtHyKnQPTHtiNo6ufwG/w/pC94wGJ9se1cKF4k0rohpk6SJjeGh/DfCJyyBClPd4YpKxlmfaFtDWnJUAuLhm+/R2V64T7LNIB39/st4/juVeRvXQn/4TPhP+pl5G9ZLlkmTxW/7v1CEDp/KzLeHYfCw3+Ltgvs2nYWeeaZZ9C8eXNnWRgzZgzS0tKc5imJ9B2SRUMRjfBO1motz02Kxc0318MXX2zAV1/9gcaNYxAWFiiLUrm5c0cjP79QvMS/RLVqfpgxY6josycWLPj+UnMqULl27RoK5aUusrLyQEoHyUsvjUZERJBQPtbg2LHzUoGZNm0AHnjgbRw9eg4DB76IIUM6YdSobjJMdfLzi/4+9GGNKAnalCJlUCbYfGhTT0Af3tgmxRJUX/peNRqNQx4nMAEmwASYgCMB11rEpbJk3VizRYvDZ9S4v7femSXa2mpgs9thyE5F0h+LZVreuUOgi8S/QSeYCvOQ+s+3Mp4i7tV7TYZnaC2QdYMk58RO5J6y/Po3iRelb502VsXDbCgQikwUvCMbyDYz9/8u69AHtau8WE2FuTJuzXQjYM7NlJYFV0VzflwgrBiHQHevjkOhrdsK+mM7ZHGycuT++r4M529bDa92A101Y5dO9cwFeTLNlJ8trSV2BcT0S9hHJ61Jme9PFGWyZdy7y71S8dEIR1jfPg/DJMZPvhwerftIfw5zYT5UBTmyLPVBfbkjr732GgICApwWzcjIcJrubmJamsWnolmz2tIKsX//aWvVNm3qw1OY1RISUtG/v2U6IycnH926NbcqHuHhgcJC8oKsQwrH5MliWuSSNGhQA9nZ+bjpprryysjIRZ061REY6IuMjBzk5BRIvxAqTuHiYgyIlEnq/PTiWda4JicRhoAoa1wJxMXFCV+TX5CZKb4DFibABJgAE7gsgcs6RJxPUWGMUDho/47E9KJfs85aJgfNvPMWRaN4vkZMR+gzLliTCy4ck2GNf5G/R0Fi0S9Okz4fak8fa/kLP78JjZc/oofPQ72pKxHSYbg1r6ID+pO7ZRdklSChqRVFjMlnlSAMZw5IPxCVl681rcwBMX2S+sIdyPrsKalkeHYcZm1KHSiYCcVMHVbLcgVFoGDvBqsiYy1YygApHVFRUU6vUjblUPzs2WT8+ON2tGhRWygTD4nwLHTv3lKWq1nT8jdA1oPq1YPkde5cirRWKA2lp+fgyScXY/363XKKhXw2SAICfKTvBvl9KHXJckI+HL6+Xkr1Eu9kzSAx+lV3Wc4QGANdatHfp1IwOTkZn332GVatWqUk8Z0JMAEmwARKIHBZi8er33igfRMTvDzM+HydjbOHk0aN+ZnwrmExWxfPNuVlwiO0pjXZK6K+DBuykqxp5EPhSrKPbwNdOuFcGtF3OqrdOhKpO1aJKRXL9IT5klOgWusBo6tGyppucj0udWiRU6kmupG0LkhrxqWVNaoA4ewofDx0tVo49G6+9LxqDy+nYyZFRiozwqnUT0ynkJ8J+ZuYslKgCY6U/iIOjV5BwoQJE4Ri4DhOapL8F9LTXVsEqAy9/MnKQELTIt7e9k7I77zzPehq3ToWs2aNxMMP34ENG/bgzBnLKiIK0zSMMyks1GP37hPyql27OkaOvA3Ll28RloZcYYUzS2vJlCkfOqt62TRd0hFZxhASC032RaflDcF14LtvuUMe+cTcdddd0sfju+++c8jnBCbABJgAE7AncFmLR6FBhb/2arDuXy1oRUtJknXwD2iFb0FIx3ulEyj5dwQ27yWrZB/fKn03gtsMlFMmwW3vlkpDQXKRyd1V2+SYGnLrCGjEqhK9mMrRX1ruaruaI//CUfECMiGozSBZTiUUELeE9sigJatai1IlV5pQnNLdEFpp4t1zLHQ1m8Kr7QC5AoWqGdMSYBZTQD49x0Etpoh8Bz/l0JqBLClizN69JkDtFwyVWPHjTHLXfwKzUGT875srs/OFEymtsPHtN0Xe1UK58bt7hrDEOJ8mcdams7Tnn38eAwYMcHpdTumg9shKQX4ctLLkiScGS0uE0k/TpjUxfHhneHhoQQ6iZJUgnxCS//6LAzmEDhrUAe3bN5JKS7duLXDvvV1lfvEPWpVCPhWTJ98ps+LiLojpmxoYPPhWWbdJk5qYNm1g8Wou4+q8NGgyzyGvzm1Oy+jDGsKs9YTXiT8d8sPDwyWvoUOHOuRxAhNgAkyACTgSsLN4VKtWzbFEKVJo9YpHSE0xDXKPvKhq6vYVsoW0f9fAN7Y9wrqOkxetVkn4/hXhoOHcPmH72jdDhWrthwnlY6Rsi/w/UjZ9bufLQZaPzL3rENTqTgS37o+8+AM4u3SGLF/Sh2+fifC9+2lrkWqz18pw9rIXUHjgL2u6q4BUCIQ1QniCSj+TnNWvW4vm/f4pfET7njfdDmW6xpopAuSXQqtkfISzqI/Yt4McVNNeHSIyzLbFZJz8S/yGPgtdnZvknh5aoej4DnxCXlRY+pqs+xjFatq3U8GxFSu2iBf+ACxePFU6fur1Rd8tOZKOG9cLDz7YW46C/DRIgSChcjNnfin32aCVLYps3LhXCdrdT526KJWXHj1aSofS55//Am+9NV5YUPrKiwpfuJBmV+dykaA/XkFq39cR+NfrUJmKHE+pXma7h+F1ejN0KZbpQdu2QkIsK2kMBoNtMoeZABNgAkzABQFVTEyM9V3VqVMnbN682UVR95PJ2uARHAWD8Ikw5lucCpXa5Kch/T3Sz4sf+66nMJTytndtQDjUwhpRmHbeNvmahavN/EU6fKa9MVLsp1ELxgvCB6CY0qCi/T/EVIop0+IfUq6DFQ6l2shY6RhrSivynynXPkrZGE2xxMSEgZSD4kJ5sbGRYsomB7QvhzOJiAhGcLCfVCxoo7DSCPl7kL8IbRJGfZRKhPXl/CPbEbjpDfjuXWqtavIKxLnH9qL6kjvhcXG/NV0JTJ48GfTv5scff8SXX36pJPOdCTABJsAEXBCws3i4KFPqZLI+FCSddFqPFJHiyojTgk4SDZkWXwAnWdc2SSyPNSYcdzoGWomirEZxWuBKEkW/tGdIZRLy83CmdNAYKY+Wt5YkZKkorbVCaY/8PWxXyyjpbt2Fwhj5fgdhW7MXdUEmot9oAJVYVeVMaO+TxMREfP31186yOY0JMAEmwASKEagQxaNYHzdsVO4GKlbfsNwYBFRiTxgHEQqJK6WDys6fP9+hCicwASbABJiAawKseLhmc9mcnO/fumwZLsAEmAATYAJMgAkUEbjsqpaiohxiAkyACTABJsAEmMCVEbCzeNDyRk9P50s6r6wbrs0EKh+BESNGlDiob775psR8zmQCTIAJMIHSE7BTPKg6HXZVkrQWKw26iT0YqgtHQU2xFRwl1eM8JlDZCNRb8zOOnXTuFFy/Tj00P2+zuV1lGzyPp0wEaAlfutgX6D+xRf9vYoM7vZv79ZSpM67EBJiAUwIOiofTUiIxUCga76RmobtQOliYwA1BYO8BtHL1ICXluarD6dcPgew8nBbLuyeFBmCvR8k7Ml8/D8UjZQLXBwG3fDw8hGXjy+QMVjquj++UR8kEmIAbBGqJH1NLEzNQT+9kNZMb9bkIE2ACZSPglsXjfvHroKXY0pqETJXLfTyxQ5gqTS7MlLRBmE+tm6ALjET+xWPIPblT1r3WH7712okHMCEnbkeFDyUw0Eccxd4RtJsnnZZakdKwYbQ4Lr4BPv98g+ymV69WoPNMSPbsOYlt247IsDsftWqFWc9bUcrTduaHD8cr0Wt6p11ENVnn4Xtwjd048mK7oyD6FgT9+apdekmRjh07YtM/m2QRk1cQMm+bCVV+GrxO/oGeNYAtW7aUVJ3zrlMCMQYjxmXlwV/8oPIT15y0bNwbHnSdPg0PmwlcfwTcUjwGiyPKFZknDgH7QOwQWZLUnfAeoNYi++hm5OYlINvNU0JLavNyed5RjRF9zys48d4oGC8d0Fa8TnQXcaKt2C01/sK+4lnlHm9UrwaGj+uNLXtOyZNSy70DmwbvF1uHd7m3K5av/FumXhTnmNT38sDQoZ2QGXsIy22OoLep5jS45PUHxem0IfLgNaVAXl4hXhzwohK9Znd99aa4cOds1BAbfWmK/U2ZUvfi3H1fIEzcvU5sdGuMvjc1x7cHLUpoTutRyGg3AjXeqSt3nw3tOxbLd1cOhdmth+FCpSKwVvh3/HAxHfQfYGfht1bdaAT9u2FhAkyg4gm4pXjUszlz4zM/7xJHpRYHndHW5gnfz0PWUcuLsMQKxTLp4DeNdwAMOc7P2pDti4Po9BkXhfGi6CwQlVB0VOK8FDozxZXEL3vGVRa0wkpD1hxjbobTMmoPoWyJbS1NBaW3XvgJZrRdeEaG/TbelFarVjhShe+Mqy2+XdWlQYaLX2l05klx+euv/aBr4MD2xbOscaXv06cT5Y6i1gwRoLEMHTrPNsku7CMsXiEh/qCj7p0JtV2nTnV5YmxOjuP4nNVR0kLFnDudaksHzplM9I0USUanafLMFE2m45b56sJsaQWRZdxUPIpaFt+rZwA0OcKZlB2mbbHcsOEDwq/jX2G1bX9pW376P44Vjxv26+YHq2QELqt4qMV/xMoCWzpZJU9dfFPpoieq99gKkGJAEnnX04gU9+xjW3F+zVzQabQhHUbg+DviEDQhAY1vQ8SdT+Do6/1lnOrqU8/CI7yuVCDyE0/g7JfTrcqF1jcYUUNegGdYbVmeTqKNX/488uMPov70VTKNPmIf+VKGc8/ug6JoVGs3FKGdR1vST+8R9Z6TYfrQ+ociZuR86PzDZJohOwVnvn4ShswkcYpuNGqPfR/55w/Dq4Y48l70SQfRXfxtobX+5QJ0SiudH0JHt2/Zcghz5li21p406U5xqml76wmt2WI6a9q0RXK78QYNorBw4cPiuPgkp3Xpxf/xx1OE4hEou88SZuPSyAsvjEKHDo1kFRrX4sW/YenSvy7bBCkU7747EfWENYeEtkCfP3+lPNqe4pQ/b94YtGolrAaX5Oef/xUHuK3GxIl9xfO2wx13zJI5pBRNmtQPt99u+S5atKgj2NwLPz8vmW8Uv0D79p1tp3wURLWB/84ll1p2vHnG70BOkwGOGW6kmHVCoRbfL0vVIZBtM1XszQpn1fni+UmvOQHX5oEyDC1u4Uic+GisrHlu1Us4vmAYzv9gmXMnS4bKxpRpLmaZoD1EPIRScW7lbJwXp9Z6CQXEO6aZdRQ1Bj4nTr6NRuL692W7F9f+H1TiPwuz2Oaa+jn33RxZ9uSiCZb48pnWumk7VoHGRsqMohgpmRF9poKUGrLQ0JjpELvIvo9bsi+NUetXDac/m4KsAxsR0KKXMKq4b5Klg8umTv0I27cfQ8eOjeXLmRqPj0/B66+vQr9+czB9+iJ4iamRZ54ZJvtVX1LuXNXt16+tVDoWLVorXvTLQYqIu3Lffd2l0rFq1VaMHv2G9AEZM6aHdVzUDvmnrFnzvPUipYFkzJieUulYvXqrUJI+Bik8Tz452Fp38uR+UulYv343hg9/Fc899wVSUjJlXY1GJZQsGbwUt//Tmz6djrE3Y8SI+UJBeRHffPNXUWHKEcfSm7yDoU05bpduG5F5wvJlDLAoRrZ5JYWNfpHIq98XnmdLb6ErqV3OYwJMgAkwAUcC9v/7O+aXKoUOhzMXWvxBzIZ8y7H1NtMhl2ss58RO5J7aJXxDtsAkjoz3rdNGVqEXvVdkA2Qd2YL03T/LdjP3rwdZNUhMhXnyiHlLONcStzl3g5QT6fdhtDjIykqXPsg3JO/sATktlBO3Dbln9gjrRkPbIkjZukweepfyzzJpjfGKtM+3K1wssmLFZhw4cAakJJBy1aZNPVlizZp/sHv3CfGC7iynRPLz9XL6wra6q7qdOjWR0yHLlm2S1obLHbxm22afPq2lFYFOgB07tpecqtEIhbBvXwtrKmswmPDHH/usF42ThKwkdIT9woU/ycPYSHnRajVo3DhG5nfu3BRkuaHj7mn6iJxaFYdXWaCED5oyIuWrfftGUIt9Fj777Hc7a4fR12KR0mQnumxFTpWIXIM/2drck+Shy3Fx/HaohO+P/5b57lXiUkyACTABJlBmApedailzy2WoWJAojpW/JCZx+JraU/hVCCGfEZLcU//Je3l+qLQeKLhY9Cs6/8Ix+Na9xa6L/AtHZdyYaznKXS2OundX9u07LYsmJVnqBgT4yviMGUPRQziFkj9FQkKqeNmqxGVvSXFVl46dpzqKnDx5EY0aRSvREu/kM0JTJNWrF3nxHzp0FuRAqkiOcCam6ZHi4u/vLRUKJX3v3pMyWKNGiFREfIXD58GDZ5TsUt3ffHMVZs++F489dpe8aExkKVL8PLRZCbI9Q1BNeMZvd9q2IcDCQJd2ymm+s8RqPzyIwqj2SLvjHeTcPAEBf77grBinMQEmwASYQDkRuGqKB1klyPFTJX7NmsWvS+8Iyy9/u+dwMceuz7T8yvUVS3QzD2ywq6JEyFeBRC0UiSKXUyXX9Z2sNJ5iWkcRr+r1rH4lShqNt6yijKt4/e7dW+Dvvw9h1qyvZNaKFU9Dp7P/OlzVPXs2CZGRwdYmyZHTmZDlghw1bYUsEoFiZdKUKR/aJrsVzs7OR0REUb/Nm9eW9RQliKwWdepEOG2LnEzJkkF+IKT40BJgWzl+PAGjRr0OX19PPPTQHcIXpA26dm1h9R+BsJxphPJhCHXyd3OpIUNofXmSrDo3xbbpEsPq/Ax4xa2Fz6HvkF+nByseJdLiTCbABJjAlRMo16mWkoZDe3nQqpPAlnfIF31Ak+4lFbfPEy8d8s/wa9ARAc16CO1CA38R9o5qYi1HVgly/gxqM0isivEHWTIUkT4ZZE0Q/QuvEFlf8dOget7RTcW0zs3wqd1K7j9iawFR2ijvO+2NQatSyALxwAM9HfbOKKm/LVsOyvLknNqxYxOQM6ozOXo0Hs2a1ULr1rFWC8eGDXvFeTw6kD8GKSA0BnKADQqyWGKctaOk0dSJh4cWDz7YW/h6RGLQoA5SiTh8+KwsQooUWUWmTRsI8k9p2rSmnEqizM2bD8ipppEju4IUFsW5VWl73LheqF+/BkhBOXbsvEymaRxb8RarVfLq3GabZBemvTy8Tpdt7w11bjKkg6ldixxhAkyACTCB8iZg/xO7vFu3aa8w7Tzyzh1CeI+JMpUUCa8Spixs/BBl+fOrXkT0sJdBzqB0kZJBjqiKkOWCVpwEtboTwa37Iy/+AM4unSGzYx9dZudU2mD6aukHQk6pCT+/hVqj3kTU3Za2DGI5bcJPbyjNVtid/DPuvfc2rFr1rJxOSBQ7KCorOi7X6Y8/bsfdd3eUygOVJSsGTXMUl0WL1mHmzBHC5+IBqSD06TMTn3yyDrGxkXJFDSkuJOS3sWTJehl2ZWWhTKrbtm0DqUyQbwpNg7z99hpZn/IpTNNA5C+i+IysXWuZHiOLBi3dHT26u7wuXEgT1pMi5ZD8Q+65pws1I9slv5h16+yn1gK2LMD5R/5BYXhTeCQekGWVD2NAlLBYdEHEp3coSaW6q/PSQE6mZq2PsJqUfsl0qTrjwkyACTCBKkxAFRMTY5mjEBA6d+6MTZs22eGg5bSn4pNlGk041BYvlisRWkFC/hty6qUMDdGqE1oCW5h2DqRslJdoAyzPRctor5bQtEPduhGIi0uw+jKUpu+YmFBpISBHztIKWS5oWWxaWpbwF3G+Z4qrNoOC/OSqGho3TZsUF7KokEXk3LlU4cOSbZdNUzVZWbly3HYZIkJ7eJDvCe2S6qxdKp/S722xbleHkDWT7Kqn95yNwtCGCF86wi69pMiYMWPwydeLZRGj8A9JvP8PuXrG979FmB51VihjS0qqznnXOYHFSRnoeensqbHib2+9t/urw67zR+fhM4FrSuCqWTyUp3S1MZiSf7m7MT8LdJW3XE2FQxk7vVyVaQUlrTR3Vxt4udMGTfWU1RGUlIniCoVtnwViUyayWDgTsnS4kuTkTNBVkoT8/DjMKvspGCofuOFlsb+bVYcuqQmneZrMeEQsbASjf5RY4WIAono7LceJTIAJMAEmcGUErrricWXD5dpVnoDw91E5cR9WmfRXjIYUDm2GZRXSFTfGDTABJsAEmIBTAlfNudRp75zIBJgAE2ACTIAJVCkCDhYPT0/7eU7y8bCV4vm2eRxmAtcbgXEjx7ocMv+tu0RzQ2TQ8m5FdDqdWO1l/3+fksd3JsAEypeAneJBKxoKCgrseiiueBTPtyvMESZwHRFg59Hr6MuqgKGabPbn0ev14v++IkWkArrjJpkAE7hEgP+l8Z8CE2ACTIAJMAEmcNUIsOJx1VBzR0yACTABJsAEmAArHvw3wATcIODnY8bQno4rZ25taUTTWMe9TNxokoswASbABKokATsfj8pAwKNlT3h3GIyMDx655sPRVK8DXXRjOQ5jVgr0x8ThZMWcbd0ZpEfD9vDuNhrqkGjkrJiHwiNb3alWJcvQhmq0rXpsbIQ8y+bjj9dWCg5zJxWgZ1sjlq/X2Y1n+O163N7OiCZDL7/lvF1FjjABJsAEqiiBSmfx0EbWh65Z16v6dejqtUH4x6eg9is6AI0G4NN9DAIe/gD+E95F8FPLEf7BcfgNebpUY1N5eCHoiaVQV4sSissOmIQCcyNLj+mvYsKK3WV+RNre/eabY+XGaleyQVqZB+Ckoq830K+zAZ/9aK90UNEXF3nC19uMMf0drSFOmuIkJsAEmECVJ1DpFI/cX99H8uSiw9+Kf0N0JL1KHALnTOjgN7IqlFZUYgtueYCcOETOQcSZMEkP1UXyYy1QeHQbfHo/BBqDrai8fKViYZumhD1a9JBtp706BNnfvgjD+aNKllt3Dx8/hMU2Fefild04Va1mfVA7zsTD1x/BMbEOWf7hUfALjXBIVxL8q0c7HZPOywdaT8dzY5R6Jd19fDzlYXV0xszcud/i11932hWnfNomviSpVStcbr1eUhlned5iu2za5l2nc9wV9ekHxMm64vCgt752VDyS01XYH6fBlHvKb/t+Z+PjNCbABJjAjUKg7G+zciagrdEA1V6wHFRmys+2Uz40kfUQ8uIG6ON2Qhd7s5juMCHvr2+Q9YXF+hD87PfQhMZA5RMIlXhBm/NzkPbKIBjiD0Opmzqzp3zpqzy8EfbeEWQsGIOCA5sQ/mGc9UnC3tolwzQVkv7acGs6BUw56chdtwgejTtB17wbCnb8IPoLQPDj30Bbq7ksS+NOnz8MhjP7rf0qjSj9ZH32FPI2LVWSXd7pxT7kjW9BCgAJLXX+5aVHcHzTz+g88Xm0vOt+vNu3nsxrOfAB3PbIbCzoVUvG6WPST8eQcHAnajRtA7VWJ+t/Oa470uJPoOODM9Dq7vE4t28bYm7qKOvE79mK7568B1Et2qP/C59YFZXs5Av4emIf5GemocvDs9DirtHITUuWSonJaMDfn7yK/1Z8hOb970O3R1+y9j9lnWUH0P+Wf4jNH8+1prsK/PLLHCin0U6dOgB07d9/Wpx0+zHoTJt3350oz5ah+rTV/Pz5K7Fhwx5rc2PG9MSIEbdBTRqCkDNnkjBu3Dvy5N6FCx/Go49+IM+AIeVlzZrnxcF5K7B+/W6QwrFo0aPylF6qR5xfeGGpPE2X4iS3NDGCFIxCvaVtS2rR57b9aowbYCxKsAm9++67QhEKxcqVK7F8+XKbHA4yASbABKomASc/8a8NCEPCMSRPbSle7h8J5cH+l6XqkiVCE1QdqbN7I//vlfDuMkIqGTRaKq/2D0HOqteQNm+QVEz8Bv9PPohS1/pUlzYNMlObRj2SJjeWSgjlpzzdWcbT3xxlLU4BsqRoImLh2+9RmV64b6O8B4opGG10I2S89xBSnu8Oc0YS/O+zvGSNCcdlW9nfzJJlqR+68re49/IZOO8L+IZUx7Yv3sYHg5qJF/wrMBstLze1GI84Y162Sx8ybo1ZAiqRH92yA05t34hlUwZg2+dvQp9vOXWVmJAFJbxeM/y5cBaWT7sbJ7eul2kDXl4isBRi5RPD8cvLk+ETHIoO9z8uG6U2qV7G+VP45uG+UgFpNWS8zDvw89dynHFbfoWxsECG5bgXz7cM6DKfgwfPxdix4gA4Ia+99h0GDnwRTz1lOcCNlAo60G716q1SEcnKysOTTw6WCgmVb906Vpz02xUnTlzApEnvy3YOHTpLWVZFhMZOomBT4g891AdhYYGYMuVD0Om91PfFi/bnyUSFm3EuqYi3bMjmY+8xjWy3cR1HJ1ONxmJB0WorjY5vM3IOMgEmwASuPoHK87+h+KVpyk6T1gpXGHJ+XCCsGIdAd6+OQ6Gt20r6TVB5snLQNA1J/rbV8Go3UIYv90H1zAV5shhZLChuJ+IlHfbRSWtS5vsTRRnLiaseTbvAlJ4Ich6ly5SRCF2DdnIqyJyXJdsyF1radmjX2qJjgF7uwdF1cea/TULxeEsW2PntB44FL5OSl56CH2dbFIOLhx39Lv5cOBuHf/9OtpJw4F/UbttdTJN4IyPhDFr0tyhfhTlZaNDtLmz8v+esva195TGQJeTIhtVoPfQhmW4SShGVJaXFLCxSFC6N5OUViFNrLQpnvjgxNCenwFq9Q4dG0OuNWLjwJ5m2atVWPPBATzRuHCOtIoMH3yrT//e/T5GZaVGuXn/d8lzWRlwE0tKyhdKgwq23NhYn9Wbjt98sVi/b4j5i5igpzbWOfvaiJa9ejAmHTtqXI0tHVFQUtm3bZtskh5kAE2ACVZZA5VE83PgK9CctL09TVrIsTVMrihiTLb9wKW44cwCqrveBfC+uWMRLNPXFO6ET0yl+o+bCs+Mw5O/8WbQtfCbIaiIOFlOHWaY4TEJpKdi7QfqAGIXiUVZRfC7O/PtXWZuQ9WgqxZXQlMLRP763y65Wq76MkwWFpnpI0oV1ozC36Gh7ml4hpYMkNzVJvrRlpAI//P29kZpaxHPvXosiWKNGiFQ8yGKRm1tgVTpKM5Rvv92MVq1iMXx4Z9xzTxd5Oi5ZWmwdWzOyVYgKc7RmKP00rGWxRO0+Yq90UP769euVYnxnAkyACTABQeC6Ujxgs8Vx8W9PHWp5UVK6Rkx/SEsGWTMuKQCqAOGUKBw7dbVaFK8qf6FTolqsQHE2U0+KjFRmhLLhN3ym9DMhfxPyNdGfO2qdqnFo+DIJvXv3Ro8ePZCRkYGXX37ZWjr9nOXFGtO6k/SfsGZcChQIa4J0pBVmfLI0VG/UsngRGS/IKeGIebIwCSXCVlJPH5PRIxvXYPtXC2yz3A7TeGhszqR27dp45BHLMml6XnpudyQ7Ox8REcHWos2b15bhhIRUeU9OzgQtw/Xz80Z2tsXCpBTOzLTEQ0ICZNJNN8UqWfJOlpapUz+SUzJ9+94iplz6C9+QXpg9+2truTNCz6oVabbGiwea1zPJP03F8mGb36FDB9Bz//fffzhy5IhtFoeZABNgAlWSgONPtGuEQb6sxBSDtCLQGChMl5tCK028e46FrmZTeLUdIFegUFVjWgJousOn5zi58sR38FMOLRrIkiKUCO9eE+SSWpXO+WFRues/kYqM4sehP/IPPJt2hpfYd4ScWsnfw3fQkw7tu0po2LAhatasKaYMLHuFKOVouiLzwlnEtOoopzI0Og806ztSToVQmbjNv0pLwy0jH0WNZm1Rp31PpeoV3c/u2iz9M8hZldqkKZ+G3Qag7b1T3G739I4/QONt0mc4vAKCZRtK5bCwMPm89My+vu5bo7ZtOwIPDy0efLC3XHkyaFAH6WB6+LDFykW+HyTz5t0PZVXLpEl3yrTz51NgMBgxdGhHuSKGlApb6du3DTp3biqTyJlV6GNWJ1el3NqtYurL34zQIOfKR5fWRpy+4Pyf0pAhQzBgwAB0795daY7vTIAJMIEqTcD5/5bXAAntdRH+4Qn49n8M9OKnMF3uLo8ly4a/sEYEz/wFKk8f5Kx+3foUeb9/Cs+WPRA6X7ygnPwaN+sL5CoZn+73I/TtPQia/pWlLr2FbEXEyb9EKzYV09W5CRkfTpIWj4BxbyNMjLXa7HXwaF4+L5jVM0YhLyMVncY/I1eodHtsLnTelpd1UtwBpJ45hnb3TcOQN5eDfDmcCU2nlEZI4flh1oNyOSytbJn8Sxx6P70AyhRM8bactX/szx+QdTEePafPl/t5dBxvWXnkTt3iZZT4J5+sw+nTiXI65P33JyEw0BfvvPO99PugMjt2HMOKFZvRsGGUWKEyBd988xRuuaWBUh2//75H+oMsXjxVOoFaM0SgWbNamDlzBNaufREff/wo0tOzpYOpbZkPVnpAuJ3guXFFfidKPu1aGlPdhFkfOFdWvbyEg4iQlBTn35HSDt+ZABNgAlWFgComJsb6durUqZNYRrjZ7tnpdNpT8RafCprlrh0TZpdfGSLVhLJBDp9pb4yEJrwWjBfihAXD+lhyiOSTQZt5mTItz1Ke46a2taJfg/AzMeeWML1Rhk59gkIRGFUbKScOoTDP3vE1ICIG+VnppXbkdGcY1Db1nXzyMAyXnG/dqVeRZYKC/MSy10DExSVIi0fxvmjZLU255OUVIv7S36xSJiDAB15eHkhMTFeSrHdfX08xHVIdp05dtHNqtRYQgSdHF2Li3XrEDrC31Cydl49aEUZ0eMA+nerSsetfffWVGKsR999/v7zbtsnha0tgcVIGepJGKWRsaADWi6XVLEyACVQ8AffnMip+LFfeg1geS8tYnQkpJspqFGf5V5JG7eqFH0hFSG56MuhyJjQdU1FCbVdk+2UZN1kj6HIltL/HsWPnnWbTahdlxUvxArSC5sCBM8WT7eKvfe6BD1ZYVt3YZjwwW/gFmeyVXCWfppSys7Px008/sdKhQOE7E2ACVZ7ADaF4FOxeB7FJRZX/MhlAxRLIynXcy0P4pgpxTKfUU6dOYfz48RRkYQJMgAkwgUsEbgjFI+d7y14X/K0yASbABJgAE2AClZtApXEurdyYeHRMgAkwASbABJhAeRAoN4vHmDFjShzPkiVLSsznTCbABJgAE2ACTODGJ1Buigeh+uRry9kaxbGNGzm2eBLHmQATYAJMgAkwgSpIgKdaquCXzo/MBJgAE2ACTOBaEShXi0dB7W4w67ygS9gFTbblPI9r9WDcLxNgAkyACTABJlD5CJSr4lEY1QY5zUbC5BOK6h/fwspH5fu+eURMgAkwASbABK4pgXKdavHf8hrCP+sqH0gf2eqaPhh3zgSYABNgAkyACVQ+AuWqeNDjqfPFiaNmA0w6v8r3tDwiJsAEmAATYAJM4JoSKHfFg55GJc6mMOscz664pk/KnTMBJsAEmAATYALXnECFKB66i7uR12QwTN4h1/wBeQBMgAkwASbABJhA5SFQIYpH0O/PwBBUGxcm7kZan7crz9PySJgAE2ACTIAJMIFrSqBCFI/MTs9AZdAjZOUIBG147po+IHfOBJgAE2ACTIAJVB4CFaJ4FNTsBN/dn8DzzGaoCl0fY155MPBImAATYAJMgAkwgatBoEIUD7NGA3VO0tUYP/fBBJgAE2ACTIAJXEcEyl3xMAbGiGUtWmiyzl9HGHioTIAJMAEmwASYwNUgUK47l6b2+xD59ftCnZsMz/itV2P83AcTYAJMgAkwASZwHREoV8UjYNNcBP71stgq/ZzYRMx0HWHgoTIBJsAEmAATYAJXg0C5Kh7ajNNXY8zcBxNgAkyACTABJnCdEih3H4/rlAMPmwkwASbABJgAE7gKBMrV4jFu5NirMGTuggkwASbABJgAE7heCdgpHps3by7zcyxZsqTMdbkiE2ACTIAJMAEmUDUI2E21dOrUqWo8NT8lE2ACTIAJMAEmcE0I2Cke12QE3CkTYAJMgAkwASZQZQiw4lFlvmp+UCbABJgAE2AC154AKx7X/jvgEVwlAmatJwpqdnDoTR9SH8aAKIf00iQYxI69uY36oyC6bWmqcVkmwASYQJUjUCGKhy4oEmHdJ6DmvW8g+JbBlQZqyK0jUK39sKsynsjIYHz66VTQvaKla9fmeP/9SdZupk0biK++ekJeI0bcZk13N6DTadCz502YMuUuDBvWGT4+nu5WrdTlsto8iNTecx3GmFf/diQO/9Ih3d0Eo38kEiZuRnq3p6Gv3tTdalyOCTABJlAlCVSI4hEz7CX4N+iI/ITD0KeJXUyvgnhHNUb9x9dA4+3vsjfvmObwiWnhMr88MwIDfREdHYqgIL/ybNZpW7VqhSM2NsKat3PncWzYsBchIQGoX7+GNd2dQPXqQVi2bAb+978h6NGjJR58sBfefnuCO1XdKvPrry9gyJDyd2KePn0gVq58xuUYzBoPZHaYhICt7zqU8fvvcxiCaiK/bjeHPHcSchv2BUwG1PigI/x2fupOFS7DBJgAE6iyBOyW05YHBbXOE9qAcCR8Pw9ZR/8udZMqtUYoDwEw5KQ5rSvb9wuBPuOi2JXdaC2jUmuhUgk9ii4XEr/M9YtJ6xMIs6hnzM1wWlvt4SPaFu+Xglyn+SUl+vl5Q6NRIyMjx64YpZHSkJqahfR0+zyloKu6lB8eHoTc3AKlqPX+11/7QdfAge2tacUDSt+nTyfCaCza3v7550cIC4cHHn54IY4fT4Cvryc6dGhsV50sICEh/jh7NtkuXYlQ26GhAbh4MV1Jst7VahU8PV3/2dEzmUwmJCdnWuvYBkgxojzbMVO+l5eHaFdnW9QunNPyHkD8jfgeXGOXThF1YbZMz+g0DV4nNjrkXy7B7BUADZ3GbKa/IBYmwASYABMoiYDrN0BJtVzk1XtsBUgxIIm862lEinv2sa04v2YugtvejZAOI3D8nSEyP6DxbYi48wkcfb2/jFNdfepZeITXlQpEfuIJnP1yulW50PoGI2rIC/AMqy3Lm8VZMPHLn0d+/EHUn75KptFH7CMWk3nu2X1QFI1q7YYitPNoWSb39B5R7zlrea1/KGJGzofOP0ymGbJTcObrJ2HITIJHtWjUHvs+8s8fhleNRuK9YkLm3nW4+NtCa/3LBZ54YjBq1gwTdc3YsuUQ5sz5WlaZNOlODBjQXjyr0GaEZGfnYdq0RTh16iIaNIjCwoUP48yZJKd16cX/8cdThOIRKOtmZeXJu7sfL7wwSigTjWRxGtfixb9h6dK/QFMsDRtG4Z9/Dkulgwrk5BRg/frdsiwpFO++OxH16lmsKPTynz9/pbCu7JH5v/wyRyobNWpUk8914UIaxox5SyoJ3333LPz9vWW5MWN6ivSeMBiMuOOOWTKtRYs6ePHFUdZpHVIuHnroXWRm5uKRR+7EXXe1RVpajlRoqN9Fi9ZhxYrN6N+/rZwSko2Ij99+e0kGly/fjI8++lVJRkFMW+gu7peWCWuiTcAzfgdymgywSXE/aNKJ5+KzidwHxiWZABOo0gRcmwfKgCVu4Uic+GisrHlu1Us4vmAYzv/wqoyTJUOl0VhbNRezTNAL2EMoFedWzsb571+Bl1BAvGOaWcvXGPgcPEKikbj+fdnuxbX/B5V4aZqFiZv6OffdHFn25KIJlvjymda6aTtWgcZGyoyiGCmZEX2mgpQastDQmDVe/ojs+7gl+9IYtX7VcPqzKcg6sBEBLXoJo0rRcyjtuLoHBPhg6tSPsH37MXTs2FhaPqhsfHwKXn99Ffr1m4Pp0xfJX+zPPGPxPyGrAImruv36tZVKx6JFazFv3nLry1pWuszHffd1l0rHqlVbMXr0G9iz56RQAnrIcdWpY5mu2bv3lNNWSFkgpWP16q1CSfoYpPA8+eRg6zPRdxgREYS5c7/FggXfi3CweOYmsq0RI+YLC8yLUgEjJYfCgwdb/C1IoZk7dzT0egMef/wTvPzyMgQH+0nlhCqTbqYRfzvnz6dIS0xaWjaGDu0o2/35539lW5s3H0RhoUGGqe1PPlkn85UPfXgT6FKOK1GHu5byhEXEGGBRqhwKuEgg/448MdXidYZPY3aBiJOZABNgAnYEylXxMBsKYS7Mlx2YDfkwFYpf4jbTIXY9O4nknNiJ3FO7kH10C0z6AvjWaSNL0YveK7IBso5sQfrun2W7mfvXg6waJNSPWZS3hHMtcaGQKELKiTEvS8yjFKUpeeQbknf2gJwWyonbhtwze4R1o6GSLe8pW5ehIOkkUv5ZJq0xXpH2+XaFi0XoV/mBA2fEL/S10grQpk09WWLNmn+we/cJDB/eWbws2yM/Xy+nL2yru6rbqVMTOTWzbNkmaW04etR9P5o+fVqLqQyzfLGPHdtLTtXQS71v3zZy6ob6z8hwPp1EVhK93iisMT9h//7TIOVFq9WgceMY67APHz6HP/7Yhx9+2C4tGoplpaBAL60nVDA/v1CG8/Is31mbNvXlNAkpFGTBIGUlJycf3bo1t7ZLAVKyaPqHLCykmJCQ9YOsMqS0kPWGwnQVn4ox+oaLU5MvyjrOPuRUicgwCEXCXUkcsQznH/lH/o0H/vWau9W4HBNgAkygShMoV8XjSkkWJMZZmzDp86H2FH4VQshnhCT31H/yXp4fKq0HCi4W/RLOv3BMWDTsZ6DyLxyVXRpzLT4Lai/3HUb37Tst6yYlWeoGBPjK+IwZQ+Wqk/792yEsLBBk5aCXuK24qhsTE4akpCJflJMnXb9QbdujMPmM0EuZfCXoohf4oUNnkZdXiNOnLe2EhQUUrybjNFVC/iiK7N17UgZr1AhRkhAXl2ANkwXCz8/LGncVoKkoErVabR3XuXMpsFWojEaj1e+DxqBMUblqs3i6Nu2UdCAtnq7EDQHRMqgT5dyV0FUTEPrdeBh9w5B1y3h3q3E5JsAEmECVJmD/hq1AFNL6IaYuVOLlYhbOg94Rll/+dl26mCfXZybKYr61bkLmgQ12VZQI/dolUQtFosjlVMl1fScrjaeY1lHEq3o9q1+JkkbjLaso4ypev3v3Fvj770OYNesrmbVixdPCx8L+63BV9+zZJLtlunXqVC/evIwbDIKzt4ddHvmS0IqbKVM+tEunCCk/ZA1p166hUIr+cMjPzs6X0ydKRvPmtWUwISFVSZJWB2vERcDDw/45z5yxfL9kyXDWr4tm7JJp3KS4uBJd4kHoI4qm7oqXM4TWh8pQAHVuSvEsl3F1fga8j60TjqmrkBfbHUEbXnRZljOYABNgAkzAQsD1/9TlTCj35E45TRHY8g75og9o0t39HsR0Dfln+IklugHNeog3pEYu1/WOsvgPUENklSDnz6A2g+SSWrJkKCJ9MsgvQyg+witE1lf8NKied3RTMa1zM3xqt4KPUG5sLSBKG+V9J2sAreAgC8QDD/SUyoC7fWzZclCWJ+dUmpYgZ1RncvRoPJo1q4XWrWOlJYHK0DJbWv0xeXI/2QaNgRxgg4J8pdJByhBNnZAvCK1o6dKlmSxLdbdtOwJSGh58sLfw9YjEoEEdpPXk8OGzlO2W0Mqe225rjpiYUKtvyn//xUn/DGqvfftG0mekW7cWuPferm61SYW2bz8qnWP79LlZ+saQ34iteIvVKoWhDWHycG6tIsXB6/QW2ypuhzU5yTCTgykLE2ACTIAJXJaA/U/PyxYve4HCtPPIO3cI4T0mykZIkfAqYcrC4l5Z1N/5VS8ietjLIGdQukjJIEdURchyQStOglrdieDW/ZEXfwBnl86Q2bGPLrNzKm0wfbX0AyGn1ISf30KtUW8i6m5LWwaxnDbhpzeUZivsTv4Z9957m/CTeFa+8BMTM9yalqAB/fjjdtx9d0erQkBWDF9fxykNWvkxc+YIvPrqA1JB6NNnpnS6jI2NlCtqSHEhIb+NJUvWy/BLLy0VK1UeEI6n3eVFidu2WaaayGGzbdsG0i+FfFPIyvD222tkfVnZjQ9yLB0/vo9YSTPVOibqf+bMLzF79ki5skVpZuPGvUrQ7n7JuGWX9uef+zB27O3COXWQvFau/BsffPCztYz30V/lktfsVvchYNv71nQK0K6l+XW6IOLTO+zS3Y2o89JBTqZmnQ9Ueuf+Me62xeWYABNgAjc6AVVMTIxljkI8KZ1Ou3nzZrtnVov/5U/FJ8s0mnCoLfwLrkRoBQn5b8iplzI0RKtOaAlsodiYjJSN8hJtgOW5aBnt1RL6VV63boT0i6CXeGmFrAbkSGnrd+FuG2S5oBUqaWlZSEhw3DOFltaSJYX24ii+pwZtikZLecmfo7gTp7v9uypHK2HI7+TEiQsgh9TylNymg5HWYyaiFtxk12x6z9nSGhK+dIRdursRg1BcLozfCNqS3f/fTxD0+wvuVuVy15DAYuEn1VM4OpOMFfvOrPf2vIaj4a6ZQNUhcNUVj6qDlp+0MhKgKRGVXqy2shGzWif2hhOKn81KKJtst4JmuRQ3CirRhibT/VVGbjXOhSqEACseFYKVG2UClyVw1aZaLjsSLsAErgKB4koHdakyXbllhRQObbplBdNVeAzuggkwASZw3RKw98C7bh+DB84EmAATYAJMgAlcDwRY8bgeviUeIxNgAkyACTCBG4QAKx43yBfJj8EEmAATYAJM4HogwIrH9fAt8RiZABNgAkyACdwgBFjxuEG+SH4MJsAEmAATYALXAwFWPK6Hb4nHyASuAYH+XQyICLHfX6Z+TRO63lyaQwmuwcC5SybABCo1gUqneHi0FNuHT3yvUkDTVK8Dr5vFkefi0jVoZzmfvQwj82jYXj5T8LPfw6NhhzK0ULWr0DboCxY8VGkh3HxzPUyc2BfjxvWC7YF5lXbAbgysV3sDFv4vX2xfb1+4VoQJn7+Qh5jqZT+/yL5FjjEBJlDVCFQ6xUMbWR+6Zl2v6vegqyeOhP/4FNR+wXb9+nQfg4CHP4D/hHcR/NRyhH9wHH5DnrYrc7mIysMLQU8shbpaFPTHdsCU5f4hZJdruzLm95j+Kias2F2uQ4uNjRC7qNYo1zbLozHaefb//m8iXnllDO68sw2GDu0ktqSfUh5NyzY+/XSq2L5+bLm1Z9vQr7++gCFDOtkm2YXnPFSIAyc0OJdof3jB+u1apGepMP+x8ts12K5jjjABJnDDE6h0ikfur+8jeXLR4W/FvwE6kl7l7V88Wcbp4Dd1iOV4c6cFXCSqNDrLAXLiEDkHEWfCJD1UF8mPtUDh0W3w6f0QaAy2ovLylYqFbZoS9mghDrUT7aa9OgTZ374Iw/mjSpZbdw8fP4TFNhXn4pV9r7dqNeuD2nEmHr7+CI6JdcjyD4+CX2iEQ7qS4F892umYdF4+0Ho6nhuj1LvcnV7mdAAdHVDnTKpXD5KHyBXPU7afp8PuXAkdyEcn8zqTWrXCnbarlKV872Jbao8c2RWNGkXj3Xd/RP/+L4DOwnnvvZ+UKvJO46pdu3qJbbuyknh5eYjzjMTfpgshRrRtvisp6XnpJGJPT+d/U22aGBEVbsIrnxYdtGjbx2c/6nBrCwP8feynYWzLcJgJMAEm4IqA8/95XJWuwHRtjQao9oLloDJTfrad8qGJrIeQFzdAH7cTutibIc6tR95f3yDrC4v1gaYwNKExUPkEQiVe0Ob8HKS9MgiG+MNQ6qbO7Clf+ioPb4S9dwQZC8ag4MAmhH8YZ32qsLd2yXDhka1If224NZ0Cppx05K5bBI/GnaBr3g0FO34Q/QUg+PFvoK3VXJalcafPHwbDmf3WfpVGlH6yPnsKeZuWKsku7/RiH/LGtyAFgMQszsz55aVHcHzTz+g88Xm0vOt+vNu3nsxrOfAB3PbIbCzoVUvG6WPST8eQcHAnajRtA7VWJ+t/Oa470uJPoOODM9Dq7vE4t28bYm7qKOvE79k0lBT7AABAAElEQVSK7568B1Et2qP/C59YFZXs5Av4emIf5GemocvDs9DirtHITUuWSonJaMDfn7yK/1Z8hOb970O3R1+y9j9lnWUXz/+Wf4jNH8+1prsK0At63rwxaNWqrrXIzz//i7feWi3jKqG8ffPNUwgVZ2rQ+TB0AN6KFZtl3qRJd8pD71Qqy69zOjRv2rRFOHXqojxvZuHCh3HmTBJq1gyTHLZsOYQ5c76Wdek8mrfeGi9P3SXGOTn5yMjIxZgxb8n8YcM6yykUelGT7Nx5HDNmLJHhu+5qh/T0HKxZ84+M08cPP2y3houPiw73e+ed72X+xx8/Ks+kocP9tFoNsrPz8eyzn+PgwTPSgkLTNyT0vL/9ZuH68MMLcfx4gjxJ+O23JyAqKkSWoZOOn376M+zde/Kyz/vdd8/C399yku6YMT3Fc4p/FwYj7rhjlmyLPmiaheTP/4rNs8hU4Ne/NXhMHGtza0sj1m7VXkq13CZPnizPfDp+/Diee+45uzyOMAEmwASIgJOf+NcGjCHhGJKnthQv94+E8mD/K49eOiSaoOpInd0b+X+vhHeXEVLJoHQqr/YPQc6q15A2b5BUTPwG/4+yoNSVEfpQW9oyU5tGPZImN5ZKCGWlPN1ZxtPfHEVRq5AlRRMRC99+j8q0wn0b5T1QTMFooxsh472HkPJ8d5gzkuB/n+Ula0w4LtvK/sbyHzr1Q1f+luXWdksKDJz3BXxDqmPbF2/jg0HNxAv+FZiNFqc+tRiPeDBrdRm3xiwBeglHt+yAU9s3YtmUAdj2+ZvQ51tOTiUmZEEJr9cMfy6cheXT7sbJretl2oCXlwgshVj5xHD88vJk+ASHosP9j8tGqU2ql3H+FL55uK9UQFoNGS/zDvz8tRxn3JZfYSwskGE57sXzLQO6zOfkyf2k0rF+/W5x+u2r4qX1BVJSMq216MV//nwK6OWblpYtpjUsChMViI9Pweuvr0K/fnMwffoiYSXwwDPPDJN1FYUhIMAHU6d+hO3bj6Fjx8ZWC8TD4jlIZs36Cl999Yc4IdgbdEAeCVlexo/vjSNH4sXJt2/j8883gBSCpk1rynx6gZ89myTDxT+o7sCBHXD06Hk5ZlIo+vVri8aNY2RRtfg7JOsLnVL8+OOfCGuKhzhx+FaZ9/zzX4i6L8rD/44fPy/DFCelg+Sll0YjIiJIngw8adL7QmkhRWuAzLvc844YMV+2R0oWnRRM7Q4ebK8YNq9nRl6BbM7px+FTFj5tGlv+Hm0LabUWRUS52+ZxmAkwASZABOx/rlxLJuI/QlN2mrRWuBpGzo8LhBXjEOju1XEotHVbSb8JKk9WDpqmIcnfthpe7QbK8OU+qJ65IE8WI4sFxe1EvKTDPjppTcp8f6Ioky3jHk27wJSeKBxG28vLlJEonVBpKsiclyXbMhda2nZo19qiY4Be7sHRdXHmv01C8bD88t757QeOBS+Tkpeegh9nWxSDi4cd/S7+XDgbh3//TraScOBf1G7bXUyTeCMj4Qxa9LcoX4U5WWjQ7S5s/L+iX69rX3kMZAk5smE1Wg+1OH2ahFJEZUlpMQuLFIVLI507N5Uv0FdfXSGrbdt2BHTZyrx5y+VJuRs27JH+FEoeWRzCw4OEwtIZNCWSn69HSIj9dBxZRw4cOCMsJWvRrl0DtGlTT7R/FPXr18CuXXH4++9D8hoypEihuftuS5gUndGje8jujOI5R4/ujv/9b4nQYVXIzXX+hu7Vq7Us/8ory4VilIyXX/5WKDZPoFevVjh06KzMyxNv9yVL1svw6dOJctqGInq9UV50YjGF6QRiWyF/F7KQ3HRTXXmRhaZOnep200iunpdO/C241Fy+OJm1eNvUT3iwCTl5RYqtbd8UFgYnCCMJYoSjaXH5/fffhWKYJpSk48WzOM4EmAATkAQqj+LhxheiP2l5eZqykmVpmlpRxJhs+c+c4oYzB6Dqeh/I9+KKRbxEU1+8EzoxneI3ai48Ow5D/s6fRdvCZ4KsJuJwMHVYLdmNSSgtBXs3SB8Qo1A8yiqKz8WZf/8qaxOyHk2luBL6xXv0D4vZXylTrVZ9GSQLCk31kKQL60ZhrkXRojhNr5DSQZKbmiQML65fULKQmx805UBWAVdCL/zkZIsFJDU1y67fGTOGokePlnLaIyEhVSoExa1A+/adlk0nJaXLe0CAr/TZ8PTU4dix89Zu09JyhDXE8kzkT0ISHFzkH0MWjNOnLVYOg8EEsqQ4E5oiIcakdJAkJqaLKSIjwsKK/maV56H8rKw8VKtmryxRenGh/og5TTcp4yMFgpQZYqiIs+dV8i53P31BjVqRjtYMpZ6nh/jFIoweRy5ZPpR0uu/bt09etmkcZgJMgAnYEriuFA+YHH9hKQ+jDrW8KCmuEdMf0pJB1oxLCoAqQDjhCcdOXa0WShXrnX6hk6jFChRn/92SIiOVGaFs+A2fKf1MyN+EfE30545ap2qsDboZ6N27t3hh9hA+BRniF/HL1lrp5ywWlpjWnaT/hDXjUqBAWBOkI61Y60iWhuqNWhYvIuMFOZYXtdNMsjAJJcJWUk8fk9EjG9dg+1cLbLPcDtN4aGzOpHbt2njkkUdkFj0vPbciZDmoU8e1M6tSztm9e/cW0lpB0yUkK1Y8LaZL7P+0SQkoLmRxoEuZ/qD8atX8xLgsVq+LF9PRvDnEd7MMFC4uNBVUt67zMaekWJQjchylKSJSRDTi+7JVNoTmWrxJuzhZPIo/R2ZmrlRoSMGaMuVDu/IUCQiw/Dtw9rzFC3t42DNS8vceU6NnW3HarsYsLBuOY2xZ3/KvZMdBx++5bt26wqLUTihc8di0aZPSJN+ZABNgAlYC4id75RD5shJTDNKKQEOiMF1uCq008e45FrqaTeHVdoBcgUJVjWkJoOkOn57j5MoT38FPObRoIEuKUCK8e02QS2pVOucrKnLXfyIVGcWPQ3/kH3g27QyvDoOlvwn5e/gOetKhfVcJDRs2FA6PNcWLr7FdEZquyLxwFjGtOsqpDI3OA836jpRTIVQwbvOv8lfvLSMfRY1mbVGnfU+7+mWNnN21WfpnkLMqtUlTPg27DUDbe91fInp6xx+g8TbpMxxeAcGyDWU8YWFh8nnpmX197a1RNNVBPhPTpg2UVgTyo6CpE3eEnCtpqoX8Mx54QOwD42LlirO2Dh8+J6crBg3qIHwtBomVHjprMcVp9Nlnh4NWpvj4eOLee7sKH5Emsszixb/J8nPn3i8cPv2kY+ecOffKvN9/F39TQv73v7sRHR0qHFKHXkrfI+/ufBw7dk5OHTVvXls+m1InLu6C6KuG8M24VfqqNGlSU3JT8t25k3J1223N5aoYei5bWf2H5d/dsNudqeHA0J56OdWy/YDjfx+dO3cWjr4DMGyYxcfGtl0OMwEmwASIgOP/HNeIC+11Ef7hCfj2fwz04qcwXe4ujyXLhr+wRgTP/AUqTx/krH7d+iR5v38Kz5Y9EDp/q3hix19pZr345StWyfh0vx+hb+9B0HTLL2fx09LahgyIOPmXaKMbQ1fnJmR8OElaPALGvY0wMdZqs9fBo3l3+zpljK2eMQp5GanoNP4ZuUKl22NzofO2vKyT4g4g9cwxtLtvGoa8uRzky+FM3PnVa1uPFJ4fZj0ol8PSypbJv8Sh99MLoEzB2JalsLP2j/35A7IuxqPn9PlyP4+O458uXk3Gi9d9++010gejb982WLnyGeE4OUG8FMNc1LVPJgfNOnXCsWrVs7jnntvEtEaRJcW+pGOM+iXnzEceuRPdu7cEWRTIr4Lk8OF46YPRsGE0aBXKmjXPS18PZVXIxo17pYMm+YssXz4DtHqGlAClLq3KoTjtx9GyZR2Q4+y+fadkfvGP4jwon5w/9XoD3nzzQfls5LBKQs6nSUmZwmm1L2g/jnfemYDWrWNlnrsf1HZERDAWL54KWuliK6fOq7H7qBqPDi+wTZZh8s0e1M2IVRt1KNQ7WkP8/f1luezsouk5h0Y4gQkwgSpNQBUTE2N9u3bq1AmbN2+2A6IWL9tTl+apaUKitouXgV2lqxypJpQNcvhMe2MkNOG1YLwQR29Fu1GQTwZt5mXKtMy522VeYYTa1op+DcLPxJxbwvRGGfrxCQpFYFRtpJw4hMI8yxSA0kxARAzys9JL7cip1C/pTm1T38knD8Nwyfm2pPLllUcWB3rBnjuXKnw23H95Kft4xMUliBk5++/enbHRShZSOH76abZ4me8UG4P9YK1GTqTKlMrJkxelf4U181KAxkz1yUnUVuh5YmMjQfVoWqc8hfw9aIkw+ZHQst7ylKaxJvyyIBf9pnpj77EiZf2Buwoxa3whmg33RXauo+KxcOFC4dgbIpfSVnYH08VJGegp/GNIxoqpsPXF9mkpT57cFhNgAkUE3J/LKKpTeUNieSwtY3UmpJgoq1Gc5V9JGrWrF34gFSG56cmgy5nQdExFCbVdke27GjetuqDVJ6UVcra0dRJ1t/6AAe1B0yzk2EpTGuT3sHLl33bVSZFRlrLaZdhEXOXT85TkNGvTRKmDZJ3Zv/90qeu5U+FAnBpNhvoiL99eufjiJx2WrvVwudyWLDe7du3iVS3uQOYyTKCKErghFI+C3evEGsT8KvoV8mNfCYEDB06jS5emckqEXuJPPbUYCQlpV9LkDVPXmUWDnE1pKa0roQ3EWJgAE2ACJRG4IRSPnO/fKukZOY8JuCRAlgrawIuFCTABJsAErg6BSuNcenUel3thAkyACTABJsAEriUBVjyuJX3umwkwASbABJhAFSPAikcV+8L5cZkAE2ACTIAJXEsCrHhcS/rcNxNgAkyACTCBKkagXJ1L8+t2g1nnBY/zu6DJspznUcV48uMyASbABJgAE2ACJRAoV8WjIPpm5LQcCaNPCGq8146VjxLAcxYTYAJMgAkwgapIoFynWgL/eh0RH3eTHAtrtKqKPPmZmQATYAJMgAkwgRIIlKviQf2o88U5GeKoeJPO/hCwEsbAWUyACTABJsAEmEAVIVDuigdxU5mMMHuw4lFF/ob4MZkAE2ACTIAJuE2gQhQPjwt7kNN0EEzC14OFCTABJsAEmAATYAIKgQpRPILXPgtDcG2ce/Q/pPbj7cwV2HxnAkyACTABJlDVCZTrqhYFZkbXp6ESJ8WGLR0JT2H9YGECTIAJMAEmwASYABG4rMXDpFKh4BIrKuwljgi/nOTX6gi/fxfD6/QWqAqyL1ec85kAE2ACV52Ar7no/7I88f8cCxNgAleHwGUVDxrGCZ3GOpr7cvKsYVcBs1oDTU6Sq2xOZwJMgAlcUwKNCg1oU6C3juG4tuj/OGsiB5gAE6gQAm5Ntaz08cJzGTlyAM+l5yBWb8QOTx2MToZk8qmG9J0r4H98G3Q5+U5KcBITYAJM4NoRiDEYMSErD7pLQ/hb/F92kRWPa/eFcM9VjoAqJibGam/s1KkTNm/e7ADBU5gkv7uYjuZ6g0MeJzABJsAErlcCOWKGZUD1YBzVufUb7Hp9TB43E6hUBNyaaikQ85+jwgLxl/hlwMIEmAATuBEIxGvUGBkWxErHjfBl8jNcVwTcVvPTxD/SUeFBaJtfiG7iqm40we3K1xUSHiwTYAI3KgEy76arVdjpocOvPp4oZKfSG/Wr5ueqxARKrTts9/IAXSxMgAkwASbABJgAEygtAbemWkrbKJdnAkyACTABJsAEmIAzAqx4OKPCaUyACTABJsAEmECFEGDFo0KwcqNMgAkwASbABJiAMwKseDijwmlMgAkwASbABJhAhRBgxcNNrGatJwpqdnCzNBdjAkyACTABJsAEnBFgxcMZFSdpWW0eRGrvuU5yOIkJMAEmwASYABNwl0ClUjyG3TQI7wx81d2xX7VyZo0HMjtMQsDWd69an9wRE2ACTIAJMIEbkUCFKh6hviHw1Nrv+aERB8hV9w+HWuXYtaeYzvDx8L5izgFeAfDz9HNox1vnBW9d6dvPaXmPOMdXC9+Daxza5AQmwASYABNgAkzAfQKl3kDsck0vGvZ/2JtwAC1rNJdKh0mc8zJ9zdNIzknBuHaj0a1eZ9kEpS/e/jn+OL4ZbWvejCmdJ1qb/vLej2V46a4V+PHgWtQIiMT8/i9gxo+zEJ9xXrb7yfCFeP2PBdh9bp8s+0zPx+Hn4SfzSLEh+eifJTiedELWPZYch/qhsaB+/4jbhMXbvpBl3PkoiGkL3cX9gInPqnGHF5dhAkyACTABJuCKQLkrHiphySBFYuOxv7D2yO9oEFYPhcZC3N6gm1Q6vt39HTad3IpRNw/HmFtG4a+4v/Hv2V148NtHMbL1UHSo1RaPrnpSjldvtBxbrS62rTH1QaJCkdWELCg1g6NxNOk4Ptz6qVBAPGEw6YVlRZwCJSTYOwjP/DwHfRrdjq6xnfHZjq9hNDk7X1cWt/vQhzeBR/y/dmkcYQJMgAkwASbABEpPoNwVDxoCWTc+2W6xKJCFgqR7/dvkiz5IKAD9m9yB3IJcaMW0S5uYVth+Zify9fmwKBpmGZaVyvDxyu9vCkXHorBQ9ejAGrKV1ft/xJm0eKze9yO61L0VsSF1pJLiThdG33Bosi+6U5TLMAEmwASYABNgAiUQqBDFY9e5vQ5dBgq/C1Iswv3CrHk0TVJoKLTGrzRwIeuindJh215c8kkZzSzIkndfD1/b7BLD2rRTMATVLLEMZzIBJsAEmAATYAKXJ1AhikeePs+hZ3rhh/gES78Mh8xLCSazSUyfWKZGbMvkXmqPnEYhLCh1qtWyzbaGC0pQYszCt6Osoks8CH1Es7JW53pMgAkwASbABJjAJQJFThIVjORP4URKK0oGNrtT3kmJGN5qsFjF4mPteX/CIXiJlSc3R98kyniBVsCQpOamgZSKPo16IsS3Goa1HGStczUC3ic2ojC0IUzCeZWFCTABJsAEmAATKDuBCrF4OLMu/HL4N9SqFoMhLQfKi4ZMfh2/HPrNOvp9YjUM+WFMu22STFu6a6VY1fKrDK87+jvubNwHraNbIi7FMm1irXgpQBaTihDvo79Ck5OE7Fb3IWDb+xXRBbfJBJgAE2ACTKBKEFDFxMRY5yA6deqEzZs3V+iDk0NpZEAEsgtzkJabXqq+yAqio8288jNLVa88Cuc2HYy0HjMRteCm8miO22ACTIAJMAEmUCUJVIjFoySSBrGE9Wz6uZKKuMzLExYSuq6F+Bz4Dt5Hf7kWXXOfTIAJMAEmwARuGAJXzcfjRiCmcuI0eyM8Fz8DE2ACTIAJMIGrRYAVj6tFmvthAkyACTABJsAEbLb+ZBhMgAkwASbABJgAE6hgAmzxqGDA3DwTYAJMgAkwASZQRIAVjyIWHGICTIAJMAEmwAQqmAArHhUMmJtnAkyACTABJsAEigiw4lHEgkNMgAkwASbABJhABRO4LhUPtacvat77BjyCLSfPKoy0fiGIuWcetL7BShLfmQATYAJMgAkwgUpE4PpUPMQOpl6RDaDxCbRDSQqJV1QTqD2Lzn+xK8ARJsAEmAATYAJM4JoSuOo7l5bmaTUaDYxGo7WK2sMbaqF0uJLClDM49sYAV9kO6cXbdyjACUyACTABJsAEmEC5EqiUikdISAiaNm2KyMhIrF69GgUFBaje+1EENu8lH96QmegAod5jK4RS4inTTy2eiMJUy7bsUYNnwTO8Dk58MMZap874j6FPvwjtjkVo06YNTp8+jQMHDiA3N9dahgNMgAkwASbABJhA+ROoNIqHTqdD/fr10aBBA3h5eSErKwu7du1CYWEhtGJKhZSOjL1rkb7rJ0QNes6BxIkP7odXeF1ED58r8lTW/PQ9v4jyz0t/kMK089AGhEMXGIGkP5eg4Nw5BAUFoW7duoiNjUV6ejoOHz4sFRFnJ+xaG+UAE2ACTIAJMAEmUCYClULxaNy4MVq0aAGDwYAzZ87Ilz8pHor4Negog4nrP4DZZEDq9pUI7/mwki3vpoIcGPOz7dIoknNiB8yGQgS26oekDR8huHV/2UbO8a3ibsLu3bvlFRoaiiZNmqBt27a45ZZb8OeffyIx0dGy4tABJzABJsAEmAATYAJuE6gUzqUqlQp0kZiEMkCXrXhHN4WpMFcqDJSef+GobXbJYbMZ2XHbEND4NlkuoEk3oYzslEqHbUXqU/EnUcZim89hJsAEmAATYAJM4MoJVAqLx8GDB3Hs2DE0bNgQ9erVk1MumZmZOH78uEzPiz8A/0ZdALVGaCZG4bMRW6onT9/5PfwbdkZAk65yJUz6zjWyPk3vkLWFplqU6Z1///0Xp06dclB+StUhF2YCTIAJMAEmwAScEqgUigeNTK/XY//+/fIKCwuT0x6tWrWS/hbZR7fIqZWwruOQsetHVGt7t/3DkLVEpYZKrIIhUWl0FiXFLCwnwuKRd/4wTAW5qN5nqrCc5CH37D5ZLioqSio75FxKyk92tuNUjSzIH0yACTABJsAEmEC5EKg0ioft0yQlJUkfC61WK/0+gAJkHtwo/TPIR8OQnWJbHNVuGYzQLmOsabXuXyDDSRsXIe2SdYPqB7W6E5lHNlnLnT17lh1JrTQ4wASYABNgAkyg4gmoYmL+v73rgK+ierqT3gspJAEChI40KdJBqjRButIUUBEFEctfURRF/USxoaJgQ0AEVEQEpQkoVQGR3iFASIAkkN7rd8889mXfe5sGUSHM8Hvs3dt29+xm79mZuXdC87XDtG/fnrZt26bt3nBbB1cvslNreRhNp73hTlZOSBAQBAQBQUAQEARsELghNR42Z3k1IzdDzXTBT0QQEAQEAUFAEBAEbkoEbohZLTclcnLSgoAgIAgIAoKAIFBqBIR4lBoyaSAICAKCgCAgCAgC14qAEI9rRU7aCQKCgCAgCAgCgkCpEbghiEdQUFCpT1waCAKCgCAgCAgCgsDNh8ANQTxuPtjkjAUBQUAQEAQEAUHgWhAQ4nEtqEkbQUAQEAQEAUFAELgmBIR4XBNs/04jLCFfsWLFUh2sY8eO5OfnZ27j5eVFvXr1Mu9LQhAQBAQBQUAQ+C8RuKnW8bgWoBw9/anSPS/QhZ/esFnxlPtT8V88a7Uml4CqlHp2L2Wo5dVLK23atCEHtVx7WS++NmXKFNq/fz/NmjWLHn74YcJx9HLmzBl67bXXzFmINzN+/HhasGABgXBkZmbS0aNHadSoUbRmzRpzvWtJIK5NcHAwXbx4kVeTrTxwGiUeWEcpp3Yaduce2ohcK9WjrPgLlHrqTxWUL9ewnmQKAoKAICAI3FoIlHviYe/iQa4hdQhbslpqHbe65iNfkYNHBY5+6992OMdyifjmGcq6ElGiJ8HX15eeeOIJrnv8+HHCcu9lIf369ePAdV9++SXZ29sTHHDj4+Ppp59MAe7atm1LVatWtTjUoEGDOMLur7/+SgsXLqRNmzYx8bCodI07zZs3pypVqtAPP/zAPbhXbUIZF48bEo+Qvs9yUL687Eyyc1Rxc1S8nJhfP6HEg+uv8ejSTBAQBAQBQaC8IFCuiQe0EHqxd3ZXEeRUgFsVME6TuL9WUNLhjZSblkhOPkEU9vAXVLHLOIr8/kUqiBWj1bbdwoyRrwZW/Hr37s3aButaAQEBlJ6eTqmpqdZFTCpCQkIoKirKXAaiMXDgQPrjjz/o9ttvpwcffJBOnz5NV65coS1btnA9EBE98XBxcaG77rqLfv/9d9aM4Nw7dOhA7dq142PMnTuX24EYvfTSS+ZjWSeMrhl51apV40B6uE692CmNkYObN+WkxpuzU0/vovidyygjJpzsnVwUpl9SYOeHmHgY9W9uKAlBQBAQBASBco9AuSMe7u7uHOo+LCyM9u7dS+cTsvkmBvd4nFX/+SpibdKB9RT968ecH797ufkmZydGU64aQO3dvDivT58+lJGRQceOHeNgcuaKukTLli0pOjqa8vLy6I477jATjwYNGvAAn5iYSD4+Ptxi37599Oabb3L6/fffJ2hLQBhANHJycujVV1+lEydO0JgxY1jbgYoPPfQQ/fbbb6xtqF+/PqEdxNvbm00pvKP+e+6557ivw4cP0z333MNEZ/ny5awp6dq1K/3yyy9cFedjJCpmD+GcYa5ZsWKFRZVGjRoxsUIEX7141G5LfkpLZKciA4NknF/0FJtUko78bq4GrUfa+QPkqepCWrVqRSBiJ0+e5B+iEosIAoKAICAI3DoIlAvnUjs7O/4i79GjB8FEUb16ddYQREZGmu+ko6cfnVswiZIP/0beje8ifKlbi0vFGmx2ST25g4t27drFhKB169Y0ZMgQJhYeHspkc1U0vwcQij179pC/v7+ZMGh1QCpefvll2rlzJ2svMOhCoI1xc3OjtWvXMhnJzc1lXwyUoc2FCxeoWbNmTGhgNoGANOCc8IOvhSbQbICUaNoIaCcWLVpEq1atYg0I8pHGT9OYoC1IGsjS4MGDWTMC8oPz1AvOpXbt2gR/EpyjXuAXE/XDK3Rh5ZvkqrBzC22oL+a0naMzeYQ1p4xLJ3j/4MGDbI5q2LAha3U6depEgYGBNu0kQxAQBAQBQaB8InDTazwwkHfu3JkHawzG0HLExMSY75azpyl55Y9vKTP2DF3581vybthV+X3UpfSogi94mGEqD35VRb6NVXW+40boDz+YB+rUqUO1atWimjVrsoYDWggMmiA98KnAoNy3b1/q1q0b/fzzz+bjw88Cvh/4wl+8eDG3WbZsGZdjoNdIBcgLzCqQzz//nInUjBkzaObMmUw+kA8ysmTJEiSZCOG6Nfn+++9Z04F9tMf5FSWY/VKpUiXWjECTgfMz0j7Uq1ePr/HAgQM23aWG76E05ZALgWbDI6wFpZ3bb1Gvcv8XlZ+HC11cNZPzk5KSaMeOHdwnCBJm7kAjA80StDJG52DRoewIAoKAICAI3NQI3PTEAwM/fviqx+Bv/VWu3R3tizs3LYGz7F2vMhLsKe1H1ZHvkr1yhDwzfyI7Q2rtsEX/+r6xD7nzzjt5+8ADD/AW59C+fXsL4gEzDQSmGAyut912G+/jv4QE07kgDY0CzBDQQjg7O9P06dMpJSWFhg0bxjNVoL3BQD1hwgRUpxo1avAW/23dupXTMLFABgwYQGPHjuU0zhVai6+//pr38d/s2bM5D2lcF86tMIEmBcfGDBlryYw5bc7Ky85QDrzu5n0kgu6aSG7Vmih/mZcoJ/myRZn1/cI5iggCgoAgIAiUfwRueuIBZ0loEDAoY5Ds3r07D5Lh4eEWMzryCxlc7dSAFzr8HXLyrkhnFenQiAluPaaPok+spYGBMiIigk0VycnJ/GTAjwROozCxQEAs4CuhH0RhpoAWBnnw54BmQRPN9wP71ZV5CBqQtLQ0Gjp0KGtZ4DsCTQjMI/D7ACHBOUFg8imMMHz88cdmk0/lypXZhPPOO+9wO/wHPxKcN6bc4vrgw9GkSRO6fPkyO5BqZhyQG5iTcA6GovxlCpOA9qPIp3EPNsOkRxRoS3BM+JJoOOH+QSuk11IV1qfkCwKCgCAgCNz8CNz0xAO3AAMwNAb4YUCGVgGmEWgMNOfSwm5VpQHTyDW4FjubOnr4En55WRlsloEGAqp/+FScO3fOYqBv2rQp+2nMnz+fNm/ezN1D2zFx4kT2m8CxITC9oD0cVaF92LBhA+fjPwzq9957Lw/sMLOcPXuWy9AnflgIrGfPnmxWQQFIyxtvvMF14HOiN7Vw5tX/YNrRBDNpQJqwHoi1gEDh3Hbv3s3EDWYVXLPmXNq4cWM2KxnNxrHuS7/v26wv+bUeyrNYclPjyK1yfS5OV2ukoE/4dGB9EZynmFb0yElaEBAEBIHyj0C5IB7624RBEgMpfvDNsPeppC+2SbsrUwAkqLvJhIE0ptae/mQkrV69utCBEX4JGNC3b9+OJiyY/gpTSJcuXWjlypWcBydSbSYLZpzo1/mA+aJ///5sGoHJAz4gEDjJYk0OzFyBTwQG6QoV1FojimDB0RWCqbTQoIBkWc824Qql+A/XAdKDH8gQBJoSzHDRSFVx3ZmMT6Za3vU7ccKn0V2EnyanPhjMREfIhoaIbAUBQUAQuPUQKHfEQ38LYbogtRDYiXf6mrPzstIt9k++N8BcZp0oaoDUmy60diAP8MmAwJwAwRRZ9AMTit6nA2UwpUydOpXNDhj0NdMJBn+sggpnS6zd8eyzz5rNOViZVC+jR4/mcn3e9aS1a4YGBguW4WckJ2cNssgGUdMk4puntaTNtnDjjE1VyRAEBAFBQBAohwiUa+Jxo9wvzEYpTDDQwx9FL/pZMcjHzJaSyJw5cyz8WtAGJqK33367JM0t6mDmCfxARAQBQUAQEAQEgbJEQIhHWaKp6wuaAmgxNEdUXREnMT0VzqhlKX/++adNdyA2cG4trRSm6ShtP1JfEBAEBAFBQBDQI2CnZheY18CGc2RZBzrTH6ywNJb/htlBRBAQBAQBQUAQEATKNwKyeEL5vr9ydYKAICAICAKCwA2FgIXG44Y6MzkZQUAQEAQEAUFAECh3CFhoPGBq+S8EphYRQUAQEAQEAUFAECj/CFgQj/J/uXKFgoAgIAgIAoKAIPBfIiDE479EX44tCAgCgoAgIAjcYgjIdNpb7IbrL7eiXz4N7JxDzk759OFSZ33RLZPu1DyXmtbNpT3HHGjL3w63zHXLhQoCgoAg8F8hUO41Hg6VAsmlaT0LfF2a1CXHKje/XwkC3DUbPI6GffILjZr3Gzl7eFlcZ3E7O+al0bMPZFL3VmqFVytxbtKNfMZ/YpX73+w61WxOrs1788+xUp1rPgnnuq35mipMXUnOddtwPw1r5tKD/bNp0WvpNHFo1jX3jYYIgBcSEnJdfUhjQUAQEATKOwLlnnh43H0n+T5lCluv3Uyfpx8gj/5dtN2bdlu3c39qP24qZaYkUfSxfZSHJeJLKG0bmzQd499wpb5PWoazRxeOIbXJqWGnEvZWNtU8B6il4WfaLoLmPeYd8n50LnmNm01+r26gwI8OKzLZo1QHtXN2Jd9nlpK9X2XKPrmb8pKvcPvZ3zlTw6EelKbWcuvaMrdUfVpXRtA+xM4REQQEAUFAECgcgXJtakGAtpKKvbcn5eNfUqpNE4eACpR7JYHsHFV/To6Uj1FKJ3auLmTn6UZ5lxN0uaVLelWsrIhDNqXGxVg09Ktam1JiL1BWuu151es+kDKS4mn5s6b4MBYNi9nx9zVVOBxujFHa2jmEX2Fi71OR8lPiKD/XluzYuXqQnYsH5SVaXkthfWn5di7uZO9mrLXJuXCC4qZ1I4eK1cnv+R/Jc+hLlLl3ndaUt/beAaQi95lJhb7QuXFXIjt7in9rsIoCmK0v4nR8kh25OpvX0rMpLy4Dmg53d3fzAnwIUMixgoprKOWCgCAgCNxiCJQ74oGXf/369SksLIyXCo8t5oY6+PtQhekTyOHqSJwbl0hxL3/MJMLvtcfJMawS2SkCk5ecRnbuimCowSvx0+8oY8sete9Kfi8+oupU5qPkpWdQ/KufUs7ZqGKOaioeNmc1uXr6kIOzC7lXCOTM7V/MoD3fzaXmQ8dT27HPqbHSpJSK2LOFVjw/iut0fPRlun3AWPMxJq0/x+kvhjYnykojDw8Pc5k+oY+M6+VuGmRVwFsLgSkDWgVIXkYKXZ5Y8AXv3nsCed7zFOXGRpBDcE3Kz86k5K+fp4wdy7h+xU9PM9mAVgGSe+k0xb1+N+VnpJJ7z0fJo99kin2sLpe5tupP3g9/SDEPqSi7LfooE0gByan4RQTXSVn2hiI/czmt/Zcbc5Yy9q4nt47DyM7ZjfJV0D/Hqg3J98mvyd7Ln6uZjttXHTeFHEJqkf9rm7TmhHOEJC94ltK3LjXn5+XbkZvrtRMPBNVLTFTPTlwc99mnTx9eEv/YsWMcL8d8IEkIAoKAIHCLI1AuiIednR2Hia9Xrx6Hj0d8ktOnT1NkZCS5UFNlN3CgwE9eNN9qO6W10MR7/FBy8PGixPe/Vl/vueTzxEjynTCM4qbPUYTDnvKi4yh5yWryVeaZ5IUryaX5beTeox0TD59JI8gxNJjbZkdFK1X+aPJ+cCDFvfSR1n2RWzt7B/IKqkJxESdpw7vPkpObh/oYz6TAmg2o3UPP06Vje+nXt5+mOp36UqtRT1JIgxZ08fBftO2z/6M/F75HA2YsIq/gKrRwTCc+TlZqMr3++uvUqFEjw+Miki1isPj75NPovtmUnWNHFy/rA9oT5Vw8SZcnNyGQDLfOliYqkC5ycKLsqOOUOPtB8pn4JXn0edxMPPLJjqAJSfhgtCIBfgQTiUvLexRWixWWjvwznxj6uipZf6+l2In1yXPIi+TS6h668swdphKFhSa4x8DLqfYd5NqiN+XFX2LSgX4r/O9byk9PorhXe/NxcV7udz1MqSvfp9yLp7hvt3ZDyXPYdE5zn1mWWqu9x+2pd7scatkgl3YdNtYCaedivfXz8yMfHx/avHmzuWjXrl1sdmndujW1bNmS4/YcOXKEUlNtNVfmRpIQBAQBQeAWQKBgBL5JLzYgIIBgW7dXmoGLFy+yliMmpkDF74LrysundKWh0MSjbyctSU51wyjrWDhl7DrIedmHTpJzowIHxuyIi5R14iyXZR0NJ5hdXFqYQt67qHq5CUnkXL8G//LiTWloQqzNMeYDGiS+e/weC1PKXc+9z7XS4mKp9f1PcjpPmTRajZpMK6aMJKRBMvLycilfqSyQ1gSRaL29vbVdiy2+yOe+kMEDrLJI0NPvMzoWddhUkRLPWgrLgoK9lEVT2ZwBjYHn4OcLClQq68ROyjpo0jB43D2JfTFAPIqSfHUdpLQipIiGnToxaEisxUH5nAR+doaz4Z8R/8Y9nHYMu53slHkmJ/IoubUbYi536ziciQcy0B80I1qaE1b/vfKpC5OOZTPTKV3xnboDPa1qFL7brFkzSktL4+dPq4VnET+YXOrUqUO1atWimjVrckyi3377TasmW0FAEBAEbjkEbnriwV/C6ms4Xw1YuUpjgZ+NqME5Zekac7Z77w7mNLQfOWcKTCNZpyPJuWl9c7ky1KsB0eTHkI8t9pUmxM5NDdr2SluQm0f2QSYVf35GlvI7OKb8FFwo18oPpKBDyxR8Oqz9N7yVFgTi7hdorhxz8iDFnTtp3i8sAdJRubLJ1GFdJyoqip770IVWbnaiNx/PoJfHZdGyjU7W1YreV/4RmmNmXqIyZOk0F2iYc/6IuT20DU41lMapDCTvSiQlzBlPri37KW3GOHK+vTul/7aQHILCTL0rbYh9YDVO50QeYw1IaQ779MgsCvbPpznLnGnR6pL/WWAmC8ivUWRgHB/Pp/65xL6IICAICAK3MgIlf8PeoCjBb2HZsmVUrVo19u3o3r07ZWZmUnh4OB09erTYswaZcKxWyVzPqUYVNrmYMwpJ5OOzWGlSciKjKWHmvEJqFZ+dk2mp8keLpEuRVKlhS1rzfxMpOTqy+E50NcaNG0eNGzfW5RQkH3jgAUpISKDV2x2oarAzvTA2kyp45xMcK8tKHKsUkDb4gUATAYG/CClyAHMJNBxO1W3PMT9fOZxYERntvPIy05TvzAFKUT8n5dPhdd/LlLH9O4LPBwR+Jumbv+H0tfzXsVkuRcXY0YyvSreeCXw7srKy2JSiP25wcDA/jxUrKidcRYojIiJoy5YtlJxcoJ3S15e0ICAICAK3CgI3PfHAjcpTGo0zZ87wD46VmNII9XZKSgoV51yafSqCnJSpBGt7YIBwblTbQgNS1IOQrUwvLqq+W4dmauDbTw6VA8m1dRNK+W5dUc2KLdu/cgHV6zaQek2dTRvfe46SY6LYmfTKmeN0ekfRfb/00kvF9o8KUbEmsuGhHCr1xIOJAb7KNQKgfChYDGavmAos/3eq3ZKc6rUle88KagZKNUr79QuukHXod9XndHLtNJKyT/1Frm0HWTZUe9lHtpJ794fI5fa7lPlrh8rIMJw1k7TgOfKfsVU5qz5JKT++zaTGo89E5Z9yinJO71H3s71yFq5cKiLiYG+Jg83JGWS4urpSpUqVaN++fTalrVq1Ivgawdfj3Llz/IzaVJIMQUAQEARuQQTKBfHQ3zc47+3evZt/sK+75xur+vOVtgKSNOdb8n99EvlOeZD385JSKPHjgtkOnKn9p4iJXhI+/IZ8n3+IvB+7j38oyz57gagUxIO/8vWdqjTW5PhzwbvsUDris/VcCl+OjbOmWNW89t3oKybigS/9xWsLHD2x1oVTnVbmjit+Gs7py8+1NeeZE0aKEqXZqKD6gMA8kvnnj5zOjT7DhMNr+Gu8nx1xWGkufDit/Zd1eAtrSHwmmshKyrIZBVN61fVrkht7jrKO/8EkBcQj8b0R5Dt5IVV49nutCqVvKLkWytEhnwIrEJ2IMLogc5c2CWiWQHpPnrQ1ga1evZqJh00jyRAEBAFB4BZHwC40NNQ8miI67bZt2/51SBCdNjo6+l8/rv6A9gGmhS2uZS0O+Hs4Kj+PnBi1rkUJfTv0xy4sjam0AWEm08WVs8eUU6mB/0phjYvJx2C7b0kaeXuYvvSbDPMopkXxxYGKpKT+OJMyME3V1ZOJh3UrXv8jUzl7GjiQWtct7T76tvfwVdN9z/FU35K0f/PxTBrWI5urDpvqRjv2l2xGi5OTEw0YMICOHz9O+/fvL8mhpI4gIAgIAoKAQqDcaTyu9a5eC+HQjgV/D9Z0aBlltIWWI/b04TLqzbKbnFw7anyfB9UOzSN/XzP3tKx0jXt5qWohNfwMpLSLihl0UWgW+i5t/58td6blmxzp6Bl7Sk4rucYDmo4NGzbw2h2FnpAUCAKCgCAgCNggIMTDBpJbJwPWi+PnlJnlXNlcc9b+Xy1mtZRNr/9sL+FRdhQeVTIth/5MMFNFWyxMny9pQUAQEAQEgaIREOJRND5SWgoEEj95pBS1paogIAgIAoLArYhAgVfhrXj1cs2CgCAgCAgCgoAg8K8iIMTjX4VbDiYICAKCgCAgCNzaCAjxuLXvv1y9ICAICAKCgCDwryIgxONfhVsOJggIAoKAICAI3NoICPG4te//TXf1Ff3yafygbJp0X5bhuVd1r0JBrhUNywrLrOYRqtoUxMUprJ7k39wIONs7U5MKtpGbi7r/CCswtl8Whxa4nqtHkMA777yzVF0g8OXAgQM5AGZhDVFn2LBhhRWXWT5Wg0akZUjdunWpQ4eCeFdldhDp6JZBoNzPanHyDqSQvlPoworXKSc1/pa5scVdqH/1ulSrQy9y9fJVy7Cvp8h9aolyJV2efJOqNe/I6UO/LKbdS2Zz2vq/we99T4dWL6FjG5ZbFxnu+4RUpX7/t4BWvzqerpw9blinJJk75qWpF3E+HT5tTx8utYyr4urgQnNbfkDTD86g6IyCCMXF9dsmoBX1DOlGo/8cX1zVf6U8JKQCvfHGA/TCCwtUhNt/9pnt1KkR3XtvR3r00Y/52p58sj+1aFGL0z//vJuWLNlc4mtu1qwmBQerJWB1kp6eRb/9dkCX898lB4XeQz1Cutrc56Luf5/2uVQ5MI+efSCL6g0qecRi66tECIdRo0bRkSNHCPGlSiIuLi40dOhQWrNmDaWnpxs2QZ177rlH3aclFBYWpp6bNwzrnT59ml588UX69NNPydPTk8NDoCKCFuaowJc7duwgPz8/c9tjx47Rjz+aVh1G5qRJk+jUqVMcDLF27drqmbmXtm7daq5/PYkqVarw1HREeA7oMIrDJFzZseR6upS2NzgC5Z54OLh6kWtIHbJ3UStzXiPxqDriXcpOvEQXf37b5na6Va5PVe57k8I/GUm56TdHALD246ZSs8HjKC9HRZpVMVia9B9DSx7tzYuVRezZShmJcdRsyCMUWKuBzfVqGUF1b6eLR/Zou8VuXX38qEKVGuQZEHzNxKNt4xxydsqnh15zpfV/2j66/Sr3obTcdNp1peTnhRNfGfkLjakxklr6t1Bt/yr2Wv7pCj4+HlSlSgD5+nr+48SjWrWKVLNmsPmS9uw5RUlJaTRkSHuqXbsgeKK5QhGJSZP6qcjI/uZBDVVvFOLhZO9Ew6sPoQ+Pz7W5gqLuf7ux7jRxaBYTjwC10N7lhJItMgcSUL16dfOxQBwyMjIUmXyBVq5cac5HAnGmzp49S4h0DA2GJu7u7pz09fUlZ+cCko2YUklJSVo189bBwYGX8H/88cfNeVpCIy6PPPIILV6sPihUWAnEEmrXrh3973//o+HDh3OfICHQZuijfCMQIs6hefPm3FaLCI5+NLl06RI99dRT2m6Jt2rlbD4HkCuIe9XbOYjk9RCP2pN/oOhfP6akw5tszgPExuu2znTm07E2ZZLx7yFg+/b+9479jx8Jf4h6cXD3pfycTMrLMv560NfVp+1d3Mne2fQS0OcjbWfvqL4a1MtCC6pmVQFB1xy9K1JOUgz/QVkV866jVwDlJF82Kioyz9ndkzz8gyj+/GnDevYqwJuHGuj1EW6h6QDpiPh7K62YMpLb1b6zL6VcucTpU1t+IfxARoqSj/vULrQYx8VxEi9FUFZq2ZExf9Oq9nQ43PK+aicyKuw+WnhmCeWrf0biGRBCGUlxlJOVaVEMsrIpejM9EDa8zIiHvZML5WVbHsfioCXc8fR0IwcHe7VCaqpFC+SBNMTFJauIw5ZlWkXUCQjwVuEIbFeRrVjRl9LSbM9vy5ZDKoruIerf36RW1/rSb7VjnzsXowYotQqdTnAuQ4bM0OVYJt3dXcjf34vOnzd+3tF3WFiQIlxxlJpqe36WvVnu4Vrd3JwpKuqKGoAtn4FeId3Jwc6B77NlK2KyWtT9P6JWtYUgkrNGPPBu0Q/O1n326NGDTRMaYUAEY+6jQgVClGhoKkAgkP/nn3/S3Llz+acnHhjgIe+//74FmcNxR44cSa+//jrVqFGD64AEaOEuoAHp0qUL52v/vffee7R3717exXHxg2jHCAwMVKSxMq/Gi7w5c+ZwOa5zwoQJfK3jxxdoBD///HPWgiASOKQoLLiC+s8IM8Q7io+Pt1kBGOEiHL0C1QffNYTSUO8fO8cCoqYdH1t7J1dycFYfoYUI/m7t3bzV+zrWsAbe5w4o133EGl2XYWPJNCNQ7ogHvhLq16/Pakf8oUUlm/7AqgyezgQAV558fCtdXDWTQQi9z/SSPL/0ed4P6fMMuQTXprNfPkLBvZ8ib8WOIc5+VajOM6s4jbJstTx37acKVJE1H1vEZWnnD1Lkty9w2q/1UPJvN8JETFTOlR2L1c+kQgxVWhInRUjwkONhz1UPcuSyaZQZe5bbFvWfvXoZ3PvRSqWRaMjVoLX49e2n6fimFbw/cbX6alURbX1CqvGLJenSeVo4phNrN9qOfZZfOqtfe9R8iJObTddlzigiMfzTdSp+TD2usee7ubT9i4JBBud1z4yvKfT2duYeDq1eTJtmmbA1Z6rEgJmLqUrjNrTypTEUe3gXIaqwkejV0l7upnuJFVetJdAlgNwc3OhI4lHrIqrRpjvV7dLf/JKNDT9Kuxd/ZFHvYMIR6hJ0p0VekTt4ASltmpHkqUB51R/8jHLSEihh93JKOraFFOhGVYvMe+aZgVS1aiDfr+3bj9L06aYvzAkT+ij1emvz9aSkpNOTT36hvppNL+k1a6Yz2ahUyY/rXLoUT6NHv88kAQP/559PoooVffjYycmlI+GvvjqS2rQx3X8MXvPm/UpLl6rrK0ZAKGbPHk+1apm0KCAsM2f+QJs2meLcoHzGjNHUtKlpIEV3q1f/pQbdFTR+fG91va2oV6+X+SggRRMm3E3du7/I+40bhylsRigTgivvYxDs3fsVC/LRuEJDOpl8mnLzjeMdFXX/EV4A4uNZcA/xpd6iRQuOPHz48GFF4tK4jvafRiT69u1LgwcPVviP1opYq7Fw4UJatGgRrV271pw/YsQIc7pr167suwGzSHJyMi1btozWrVtnLkcCZAIkAyQHZhQ3NzfWHvzwA3DdpJ6JJ9k8smrVKoJGQi8wl2jkA+2mTp3K2pi7776bIiIi+Jio/+yzz7JpRk9GtH5mzZqlJem1117juEXmjKsJ6/cxTD6agOxAy7Nx40Yti7cu/qFUa/Jy9S2nNDiKvJ9f8hxlxpzmd3D1sXPo7FcTKOtKBL83az2xjKKWT6fU8L+oxvj55Ojpz30EdZ9A+KH9qQ8Gk2eddlSp3xTzcbR3+eUtX1HcLhzLnioPmk7u1W7nOvk5WXRh5QzuFxk4TnbceXKuWEP9TdlTRkw4nV/0FDmq5xZ+OBcvXmQz2uXLxoTafGBJMALlgnjgj6Jq1apUr149qqC+KKBCxAMeGRlJdj6VTbdaPcTnFj5BPg27kW+zvnR581eUrVgtNBb6L2Q7xZbxxQ65tPYDitkwh6qOmsUaiws/vcH5msbk1IdDya1KA6o88GU688U4ylUDTb4yX0Cc/SpTQPtRlHpmD8X+9jkF3jmW/NsOV6RnO//RmDQhgRSz6TNKjzxCVYfPJJ/GPShm46fcvqj/Wj/wNJOO/Su+opNKO9Fn2qfU/Zl36OTmn5lcqL8M8g6qQmvfeJxcvX2p8+Pqy6hdD9Zk+FaqTtnpqdesiVj21GBycnGjsYt3kqOzi8Vp3jnhVSYdxzYup+2fz+BzDKrbxKIOzm3IrOUUXK8prZr2IJ3b/Tt/uTVq1Miy3tU9vLDxReTvk0+j+2ZTdo4dXbxsGgj0DcI8q/NuRFqUPlvhEEr1ug6ghAtn6cDKhRRyW3Oq3bEPVQitaaEpikg9z1/EFZWTaUyG8deOvmOveh0pRBFTI4lZP5ui131Ifq2GUJCqE9RjEiUd+Y3idn5fqi84b293mjz5MzUAdVIDSn3WfGDAjoy8Qu+88yNt3nyQ6tSprAbwMWrQGErjxpnIFP4egoN9lb3/O/Vid1Nfpv1U+9tYk3H33S2ZdHzxxTrla5CkBpZBRpdgmDdqVBcmHT/++Iey/+9QqvUBakDtSt9/v41JDRr5+LjTTz+9ZG6/Zs0e9SW/WtXrxqRjxYo/1HkfopdfHq5U/AP5GnBNEyfezaRjw4Z9ihitYzNP3bqmv10HBzs8NmYBSdHLU0/1V7v5CqeZrMWBmchaanqG0eEEW1Kq1Svq/u/Yb8+88cnhWfTIG66UomL6REVFsfkBGoeaNWsqrVMCwS/i3DkVoFBHMn/55Rf2h+jdu7ciUqv5cD179uTt+vXrtcNbbBGAEM89/DEmTpyo8DBpF7Zs2WLh64El+1u1asVtx4wZQwsWLOA0zDD4QZsC0oJzgmCQf+yxx1jzgH2QfTwrr7zyCl8PrgXHaNOmDRMZaFRA4r7//nsaNGgQnwvaQUCsYFrRNDl6009R72NTa9P/zZo14/PTf1ygxF4FmLy89WtKi9hPVQa9ot6dYyjye0UyrbXK2v7VLd7BeK/WfHwpxf7+JSUd/NWsZU499QfhfY33sFf9jhQ+dzSfBAgGxKfp3Uw6Lm9Tx1UkplL/qewbePqje7kPXJNzYHWK+uEV1n6DxLiFNqS0c/vp77//Vn+Hdahbt24EDdCJEyeYhMFsJWKMwE1PPAICAqhz5878FQHWCS1HTEyBY6HpG4gofs9KxZrDKUaRAJ+mfcirXgdmusawXM3NyzWZZfLz2OFJIxxaG+znK0YNyctKszDheNZuy/kxytYIgnNp3UdU87GvyatuO6X1iOCy3PQkSvh7FafTLx5X9s3GnC7uvxpt76Lc7Cza/MkrXHWfIiBtRj9DwfWb0oVDuzkv+tg+RURMfd/56MtUo3U3Jh5OyjyDttcqMJ3gl68wsZZaHXpTZkoirX/rSS5K3bWJzqqfXno8N0uRoQq0/NlhZofWt99+m7y9vfXVzOnExESa+0IG9W6Xwy//p9+3JDtaxUBXf04mZydrWbwNa92Ft5kpSVSr9u7FpgAAODNJREFUY29OI8Ab0ru/+chcNz4rntMBLv4lIh4pJ7bTmagj5vb6BNSweKGBdNo7u5Gveqn53N6LiSVeVPwS1TcoJL1s2TY6fDiCQBJatarDTp87d55QA/ufijz4qgGtA5tbMjKy2Xyh7+bYsSj6/feDnPXYY32YMMCE0r79bWya+fbbrVwG7UG9elX0TQtN9+zZjLUIFSp40tixd/EgDzVz794taNWqXdwuJyfPfFxk7NsXzvnQkmRn59LHH//C+yAvY8Z0U9rJUDp06JzyK2hA0Ny89dYyLt+58zjhVxKBySgoyFeZNurxsRcssPyCRh9+zn50OSuu0O6Kuv/QeLy7yJmeGZVFR75PpTnLnGnGV7i2ffzDOwizPlq2bEl33HGHIlObze8gLZggfChgUoFmBA6jv//+O/tjGJ0QfDTw5bxnzx4uPnhQaVHVRxR8MV599VVzE3xo+fiYNFchISGkERoM6KirEQDkw7EVH2QgSN9++y1/ocOvBOQBZpqHH36YyQfOH6RKI0UzZ86kBg0aMFn5+GOTA7J2AtB4aCTr//7v//iLv7j3sdYW542PxO3bt2tZ5i20FHE7v+P9pCObyLtRD3NZUQn8zWk6KaT172sE3MzH+zpXvftUJX0Z+vSq057z4v40HfeK2gbdNZFcAqqxdgN1UsP3UNrZvUiyJsUjrAUTj5MnTxJ+IHLQtuO+NGzYkHDf4EwsYovATU888MeFH/4AwM4LszVmXjphunrUU06gbpUbqP3ltoiUUQ5UfhicQTogrA3Jy2G7pXaI7ISLWpLyFAmx9wky7xeVcPH0obS4GHOVqAN/ctpHaTM04hEbXvDAw6fBxdM0sKcnXmEnT3PjMky4eHgV63DqrOpAGt890kw8QDpgXzYSvASf+9CFVm52ojcfz6CXx2XRso1ONlUjU02aDn8XP7qSWTDAuPmYCIl2/WiYpHxPUmILsEeeNgX3QrplPsqMxM7BiU1lRmUgoblXv6RQzl9VyhzGonMeNGUU/v/Bg6Yv1djYBK7k7e3B2ylThlDXrk2YQMAXwt7eTv0cLDo6fbrgOrKycsxmiNDQQPaf0CqfORNdYuIBfxNoJzDIa3L06Hl2INX2U1Mz2Dyi7WtbaF7gj6LJgQNnOFmpkj8TDw8PV/WSNhFyrU5Jt++996P6ah9BTzzRj384J2iK9H4eF9IvUIhrcKFdFnX/oWCZrLQdF2Lt1LPoSnuOqQydgFxo7x28i6xl/vz5BI0eZpyAUMDJdN68edbVeB8aCThxwvShl3fffZdNK9OmTTOTD/h5YHCDnwQ0ECAIEHyBY4otSAPMQJomBF/gOC40KPA9gT8J3ptTpkzhmS2urq70zTff8GBprYXA9Y0dO9Z8SugTjqqaxgOkBlLS93HTpk0Zh/Pnz5v71BLwh9MEJg1fZYp2cDO9N7T8st46uPvwBAKt38xLJznpoPxMSJ0DBOYeTfKyM9SEBXdtl7faGIQtcND761hUlB266YkH/kBg/6xWrRqzze7du7O6Kzw8nI4eLVCtulSsSWnnD+Evgx/itMjDfPvxAMG5UxNnxXBtBA+SGmiMBA8ZxF45M+XqKuSkxKlDwUHK5DjqqB5smHX0TqRGWgNdF4Ums9TXu3dwqLm8ciOTujXxgmmgQgEYvpHEnjpMgTUbMPmIjzT9QRnVg9+Ik5tpoDMqN8rLSksh/6v+H0blyFs7YxJVbdqOGvYZobQOfVgLM27cOH55GrWBIx6+0lZvd6Cqwc6EdRXg5BefZPmCP5NquvZQtY6Hnnikqxk6kL3Lv6T0hCtGh+C8ap5VKSsvixKyEgutoy/wrNGCgpU/kJFEK+1WdnIs+bUczOpYdTMoWfl5wBadFWciSEbtrPO0Z8s6v0uXxmr641FlrviGi5Yte56cnCz/lAtre/58LGG6riZw5DQSaC7gqKkXaCQw42bSpOLNgfp2SKekZFhMtW3UqDpXAXGCQGsRFmZMDOBkipc4TCwgPnXrWmpoTp26qJwt31FfnC5qMOylfEFaUKdOjc3+I+j/dPIZquVdE0lDKer+t2mcq2z5RC987EKb/zYRPJhD8HUL8wQGbJg0/vrrL+Vnc9ZQk/HSSy/xgI/ZIfDHAFnRC64P+Vgj4+effyZoLeCACunfvz+/01asWEEDBgwgaAhBFoKDg5Vvy3Tex7Hxd3LXXXfpu7VJgyDAhPPQQw+xM+pXX33FU3FxbPhpQIOF/kFANNMQOkG+NVlCP9pzBk0OtCbFvY9BVKAZwLljZo2R6N/HroE1WLuAj0U7RxMeDh6K+CofD9egWkbNOc/OwfLZ1Sry+RqQQ3z4OQdU1aqRq/Lzg+Sov2OzGGh5UYY1WnDfYMqCqQXaD5jdNDJmbi8JMwKW1N2cfXMl8EeMKWn4Q4EjFdSSsLnBAUyTCs3vYeekgA73MyFIUQ6mkLRz+8ipQiUCMfFSDkhwIrWWdKVSx5RcF+VYZD27JUNpUkAgfFsMYEKjeVOnnDJpIYK6jVdfxoFUsZvJmVPLtz5GafbP7NyoPLNdqN1DU5hENOk/mn07oo/vK7YbOIOClAx8eyn5Va1NXhUrU6+ps5UjasEfHTqJPr6fKjW8g0Kbticv5S+iiYOTM+EHsVMvI6ThVAoJV+uBYF2QLpNnsDklpEELaj60wIkVdbIVOdn0wQuUrJxfe075gNx9AwgvZTjJGf3wMtUkSn1xQjxcTWRPy8c2SZlYopVvxh1+zfXZdPav33m/6cAH1bVWIkcXV7V+SW+y9j1p5X8H7Y0/YNG2qJ2ko5vpxDt9DX+JB9dTcM/J5OhRgX09Ts0aTJdWv18q0lHUsaHBgKkFGgiYK0AGSirbtx/h+nBOhd8HfESM5MSJSKUurqYGwJpmDcemTQfUYOjE/hg4Js4BDrC+vsUfH2YTZ2dHNeD1UC/qEDWAtmEScezYeT48iBS0IlhHBL4tDRpUZVMSCrdtO8xfkMOHd1Kag+pm51btvB988C72CQFBOXnyAmc7ginoZGfcXxTmUY3clQOykRR1/92vPm/nowtel9DQYbC5cOECEwX4cuBjx5pQ4FgYZDGYQ+ALAZ8K6wW44KuB/kAkoAHsomalaHWwxT58SZ5//nmFe0Ue7FDXyJkRZg+s6wG/t169enEapAAC8wj8Rnbt2sVaGm1Rs+joaKV5OqSepzEEMqInHXiP4r0KMw/yJ0+erMx9P7FzLNIYZD/66CPuH/8V9z5u0qQJD8rAy0hgnsT72iUwjDzr30kZF45xNXy0wQzj17yfmigQSP5qaqyRQGPi06Az14Hjvl7wvkf/nrVa8RY+IZAU5QOCd3uFFv3ZP69Cy0Gsqcy8XPAxp+9HS4OAQkOVmprKDr1Y+wRaKCEdGkLGW8vPJOM6N1UuHgAwafwcHR3JocJV8qG+KOARDUk+scNsAsGXqG+zflTtfmWvVD4dWK+Dp8fqrhr+IZ61Wqs6H3Du2XnjzYMI1OhJB9YrO75yWFROq+lKk3J+6RR2IIW9EDNbwmqaNBLxf/3Ifia6rs1J7cvBnFFEYse8mVS9VRce1DGwg0hg5khJfDegAYBTZ59pc2nkFxv4KGiPPvWy48u3qPdLc2jAW98wqZndqyaTnGFzTA5yqNu47/38iz19mNcBAaGA02bD3sP5hzpH1n2HjVm061z29FB6YP5mGvTud/T1g13M5UUloq+YiEfHZrm0eG3BIKC1+eL0fPpf/Sfoq/CvKSc/h7MTo87SCeV0C4fSDuNe5Dycw8FfTNoCZGDV0hZ+TemR3ZO4vCz+OzvvUWUzTiuLrmz6gH/GiBF3KgfPqeoln6/8CRLNphSbylYZP/+8SzkKtmPygCJoMWDmsJYvvlhP06YNUz4XY5gg9Ow5jb78cr0a/EIUQWzNP7SB38b8+Vefo6vaP+u+sI+2LVvWYTIB3xSc96xZP3F7lCMNMxD8RfCDrFv3N2+h0cDU3fvv78I/zNIJVtovTeAfct99HXkX/cIvZv16U1utzraYPyiudjz1rdybvo34QcvmbXH3v22TPK53SefUDBOBtSOpRadqB1/CmNECUwjqg2DDIRQmCphUoL34+uuv2S/tjz/+YKfEK1eu8BZ9YbYJSMDTTz9t4VQKcqARHNSxljfffNM6i0kGMj/44AM2yWC2Dd6PcCDVZPbs2Wpm0QyeqovzgL8cvuLhH/Ldd9+xaQSzXjBrBrNtQFpARKCZAZnBdFvtvLQ+rd/HMPGAyIDkaO8Cra62zctUC4l1GsvvYbxfL2+drxVRwt5VVOGOgVRDvVMzLl41n5tLTYnL2xdTsPLPqDFuHpOHk7MGmWuknf1bzRw8o5xHTe+C2C3zKX7XDxT/10/kUbM1BXZ6kH8YCy6uVDiqrZGY3kR4/rNp+fLlQjSMQCoiz049BObPx/bt25vnghfRpsyLgoKC1PS/6DLv17pDaB7wIOek2arTnXxD1MyVaB7Erdtdzz40IM5Ko5IVf8Fk67+ezqzaQlvgqb7iL6uBP0/ZYEsr0HK4KA3F5dNHmFyUtn1h9R3VrBcsPoZBPy2h7KaXOTrk074laeTtYTK1NBlm+aWtvH3o2/YLFPFYRGsurLc4PdhcPZV2B5ISq+6FIluaTKgzjr+Gn9k7Vcu64bcwO9SoEaxmb13kQby0JxwaGsDrZOj9LkraBzQXmBYbH5+s/EVMTrklbYtF0TCVF+cNs4m1QKMCjUhUVJwyHaRYFGNV1OTkNMP1PbCGB3xPjh2LNOwXHXUL7kyP1X6IBm4dYdFvUff/9E+p5ORoWim31yRLm75FJ1Y7IBnwuYDDOwYm61U+oTGBzwScUjEL4uWXX7bqoYB4gGhoC4BZV9LIyX333cdmH2g7jAR+JegHpATTWDds2MBkAr4b0I7gXLRjwPTZsWNHGj16NGs3QKC0NTxAlGCGwYcdnE3hxAoyBbMLFkYDQSlKYEJCfyAvml+MUX2YpZ18g9V7M0rZjc1DFFeFxgJmF/jNlbVgijz7eyRYviPK+ji3en+3FPG41W92ebh+pbii2qF55K9Wkdyx31KdjuvDIlGQwtZr4EKr/xztTFOqS9PGqgvZvUkQwLL6GbmmmWjaKRd1/zs1zyWY+E5G2GrYtPZGWxALDPbQHBQl2uwO+IZYC/w+oFXALBlrTYJWF3UwmwYzZkoiRotdIQYLTC/6Y4DQgIjAHwPnCJMSBCZsmLLh04E0li0AgcD1gmTp+zA6H225dmhCRG5dBIR43Lr3Xq5cEBAEBAFBQBD41xEoHY3/109PDigICAKCgCAgCAgC5QkBIR7l6W7KtQgCgoAgIAgIAjc4AkI8bvAbJKcnCAgCgoAgIAiUJwSEeJSnuynXIggIAoKAICAI3OAICPG4wW+QnJ4gIAgIAoKAIFCeEBDiUZ7u5i1wLRX98mn8oGyadJ8K9mQgVdWS6VrcDYNiw6xqHqG8iJhhoWQKAgoBZ3tnalKhkQ0WRT07WN5/bL8sXuLfpmEJMrDiKda80AQB2LDoWGkE63EggFxxguNoq5gWV1crx1RehITHtjBBGeLGXI8MGTKE1x4paR9Y5CwsLKyk1aXef4BAuVu51BpDLBoW0ncKXVjxOiFqqIgJAf/qddXS4b14ifPTaqnzyH07uKDLk29SteamVSAP/bKYdi+ZbQjZ4Pe+p0Orl9CxDcsNy60zsVhZv/9bQKtfHU9Xzh63Li7x/o55aepFZ1rQ6cOlBatXogOs0TC35Qc0/eAMtXx6TIn7bBPQinqGdKPRf44vcZt/siJiqbzxxgMq1P2CUi/QVdrz6tSpkVpNtCM9+qgp8iiWLG/RwjTY/fzzbrW41OZSdenk5KAGsEZqYayqhBVGsVIq4rDc7DIo9B7qEdLV5hkp6tnp016tbxGYR88+kEX1BnmWGgLEU0EEV6xcCnnyySd5GXTEhtEES5djcTyshqqXdevWcYA4LAaG1U+xxkZRgjU5sEIpoqlaB4grrB1WLEWk3TVr1pgXH7OuizoIhYBFykAGECjPSLAeCOLFGAli1aDc6LywxkinTp0smuF4iFmzceNGi3xEBEa069JKlSpVeJE0rF3iVacteTfoQlE/Fqz4Wtr+pD7d/EHiiruJWIkOcVbsXdQql9dIPKqOeJeXUr/4synegv6YbpXrU5X73qTwT0Zy1Ft92Y2abj9uKjUbPI7ycrJ5xdIm/cfwkudY+jxiz1bKUMuqNxvyCK8+Wtg1BNW9vdhItPq2rj5+HJjOMyD4molH28Y55OyUTw+95krr/7TlzP0q96G03HTadWWP/tDFpldG/kJjaoyklv4tVNu/iq3/T1dAHJQqVQJUDBTPf5x4VKtWUS2DXhCcbc+eUyqeSBoNGdKe45+U5lqxcuicORM45grIBoLMdet2O40bVxDHozT9Wdddu/ZVwlLuy5Ztsy66rv1WreqqAGkj1bLrMy0i6GqdOtk70fDqQ+jD43O1LPO2qGen3Vh3mjg0i4lHgFrw7nKCttC2uXmhCSxnjlVNQRoqVarEAylitVy6dEkRwxZMSNzd3enXX3/lyLJYmEsTkAgs0R4fH8/LomNgxiJjECxTjqi1CKpZvXp1zsN/WCwMC5698MILvAKpuUAlEAcLC5xh+XS9dgPHhyDwHZZC1wTHQEwaa8HiZVhg7PHHH7cuMhMXLC+vRdnVKuGYWFUbsWw0QXwYLOmOIH1YtVUfswaLk4GMdevWTavOGpOIiAhuY84sQQLLu7dr147JFaojiKh7taYlaFl4ldqTf6DoXz+mpMObbCoFqPgzXrd1pjOfjrUpK08Ztm/vcnR1eND14uDuq5Ytz1QxNNL12cWmEf7YOjic1ghL+3JsFxWJ1kgQhMjRu6Jajj2GY8EY1dEi2BqVFZXn7O5JHv5BFH/+tGE1ewdH8lADfXJ0pLkcmg6Qjoi/t9KKKSM5v/adfSnlyiVOn9ryC0eMBRkpSj7uU7vQYhwXx0lU4eezUpMLrVfaAn8VlBJyONzyvppyiUaF3UcLzyyhfPXPSDwDQigjKY5ysiy/wEFWNkVvpgfChpcZ8UBwKgS0ul5BIDgsj56YaLnSI/JAGrDkeUKCZZl2TNTBUuLR0bZLSyPAm5EmYsuWQ4Rf//6ttW5sttqxET9Fv+z5Sy8NI3d3Z9aeIL4KosW2aVPfor27uwv5+3upgdF4Kf2iztne3k7FBSn8lYVrwsB2+bLtoIeTKAxLBJTDQIVjG0mvkO68Ii6eEWsp7tk5csbUJyIqa8TDaPVQ635HjBjBIecREA5xVfz9/TkQGbQdixYt4lgvS5cuNQ+4COCmCWKuQDp37sykBAMxBm8M6vv27eOyHj16EFYs1QiDFt4eGhZEhIamAgQC+VgVde7cufzTEw9gBnn//fct4q5gJdORI0dyHJgaNWpwncWLF5vDcUAjgaB3ennvvfeYFMBMAsIF0gRBEDYcB2Sqdm3TOwfnCBIG4gHJycmhJ554giPutmnTRkVPnsRtEJcGxAzHxlLvxYnRfQFmOBcjTQm/11PUyrSFxHMp9Hjq/agFE7WuY+/kqgKAWoaC0NfBe8XezVuNJ7H6bHMa440DynUf2UbXZW7wHyUK/yv+j07oeg8LFo5w1VDr4cGMSjYNQlUGT2cCgP6TVWTai6tm8qFC75vB2/NLn+dtiAp17qJCIp/98hEK7v0UeSv2CUHU2jrPrOI0yrITY6j2Uz/yPv6r+dgiTqedP0iR377AaQSI8283wkRMVM6VHYvVbwmXhSotiZMiJHiI8DDlqgclctk0FcDoLJcX9R+iwd770UqlkWjI1RDC/te3n6bjm1bw/sTV6qtVRX/1CanGf4BJl87TwjGdWLvRduyz/JJY/dqj5kOc3Gy6LnNGEYnhn66jgLB6XGPPd3MJ0W41wXndM+NrCr29nZalzDGLOYCdOeNqYsDMxVSlcRta+dIYij28i5dmtq6Dfb161cvddC91YVbMTQJdAshNRR49knjUnKclarTpTnW79GcskBcbfpR2L7b8Cj+YcIS6BN2pNSl+iz9wpU0zkryMFKr+4GcqJlACJexeTkkqEKEC3ahqkXmI/Fq1qoovpNpu335URS5dzPUnTOjDQdq0Fz8CvT355Bfqq9QU72jNmulMNipV8uNrhslj9Oj3mSRg4P/880kcLwWdJSeXjoS/+upIc3RYnNe8eb/S0qVb1ADhoL5IK6tB6hiBdEAQLXbDBtNAh0F99uzxHOMFZSAsM2f+YA5dX9Q5L18+lbUoaDd6tDKJqV9OTq6KvPoystSAGsYaC1wbBMTjkUdms+YG0Xc//vhRioiItcESMWd++eUVboP/Fi/+H6fDwy9xe62gcYWGdDJZLQ2ebxwPqahnJyfXNDj7eBbcf3xFQ2uBIHOHDx/m5ce1Y2ELDUfPnj3NpAIqfphb6tWrxxoJBGTDUuybNtl+MWv9gCDA3IAYWIjPgmO+9dZbnEYdjUiA1CCQ3ejRo7WmTFIWLlzIBGft2rXmfJAhTbp27cq+G9C0JCcnKy3UMhXUb51WzFuQCZAMkByYUbAMO7QHiNOCc4fp6NSpUxz5FpocTWBW0WLXwO8E5iJcsyaIg6MJIsHC3DRv3jxeuh3HxDFw/SBEEyZMYAIGMrZ//36tmXlrPV7g2Jogpg20PNYmG1LEoeaEb3iAR2TymF8/ocQDpmuv9cQyivvzW4rb+T13U2P8fEo9vZs1HEg7evpzflD3CYQfPk5OfTCYPFVk9Er9pmiHNo81l7d8RXG7lpOdup7Kg6YrbcvtXAcxxy6snEGp4X/xPo6bHXeenFUEdXwIZ8SE0/lFT5Gj+ruDHw5MbTCj6TVD5oP9B4lyQTzwAkYIaPxhgg0jYiAeIMQUsPOpbIJVDRTnFj5BPg27qWi0feny5q84Qi00FvovZDv1UOGLHXJp7QcUs2EOVR01izUWF34y2Sc1jcmpD4eSW5UGVHngy3Tmi3EctChfmS8gzn6VKaD9KEo9s4dif/ucAu8cS/5thyvSs50j15o0IYEUs+kzFdH2CFUdPpN8GvegmI2fcvui/mv9wNNMOvav+IpOKg1Fn2mfUvdn3qGTKgorSIh68shbhbJf+8bjKjy9L3V+/HWq0a4HazJ8K1Wn7PTUa9ZELHtqMDmpIHBjF+8kR2fTi1471zsnvMqk49jG5bT98xl8jtbh53FuQ2Ytp+B6TTlK7rndv/OXUaNGjbRuLLZ4IeKLw98nn0b3zabsHDu6qIsSqlUO86zOyYg0FVRKJ95BoVSv6wBKuHCWDqxcSCG3NedItYiiq9cURaSe56/aiipSbUyG8deErlvyqqec9hQxNZKY9bMpet2H5NdqCAWpOkE9JlHSkd/4ZZSdWPJgiAgPP3nyZ+oF30m9TOvzFzkG7MjIK/TOOz+qGB4HOaz9zJlj1IA01GzSwN9DcLCvsqd/xwP2pEn9VPvbWJNx990tmXR88cU6ReqS6NlnBxldgmHeqFFdmHT8+OMfKjLuDnrqqQFqwOpK33+/TRH9YG5z4MBZw7YgCwgst2LFH+q8D6mBZbgKMDaQrwHXVNQ5Dxs2U5kM7NUxXyRE5l26FLFLTIcBoXnjjfuVmSBLDc6LyM/Pk6ZMGaLOqxt9+OFKNQCZBn4jLLOycpRm5zXWyjz33GB6+OGPFCYJ5oi52oXU9Ayjwwm2hFYrL+rZ2bHfnjnnk8Oz6JE3XCklzU4FwIti8wS0AfhyT0hI4NDyWrTbKVOmWMQ88fb2ps8++4y1EHivoR5CsSMPAy8Cw2GA79SpE58S3oH48oe2ACQGppDq1aubzRnaeWP7yy+/KB+fe1VE4N4caRZ5ID2Q9estAy1ypvoP/eLvEoHhQAg+//xz1jJs2bLF4hgIHteqVStuhgB1CxYs4DTMMPhBmwLSguspTHAu+GKHFkZrr6+L6xw0aBBrNlAO7KAxgYDUPfrooyqi8f2sEXnllVc4IF9R44W+bwS0w/npP35QjoE9M/o0v7uDez3J0Ww14oG+QRLMosYX9RDyLsYIvPdrPr6UYn//kpIO/mrWgqee+oMwnmCc8KrfkcLnjuY2IBgQn6Z3M+m4vO1rSlNko1L/qey7ePqje7kPHNc5sDpF/fAKa+dBYtxCG1Lauf30999/s8YIpqfMzEzG4Pjx46wp4s7/g/9ueuIBT2+oFMFwweqg5YiJKXAsdL0KKkLbZyoWGKNIgI8KYe9VrwMzySIxVyo0JhmK1earAV0jHFob7OdfVacjBLq+3LN2W64Wo2x52UotdmndR0or8jV51W2ntB4RXJabnkQJf5u0DekXj5N71cZa10Vua7S9i3Kzs2jzJ69wvX2KgLQZ/QwF129KFw7t5rzoY/sUETH1feejL1ON1t2YeDgp8wzaXqvAdIIfmL611OrQmzJTEmn9W09yUequTXRW/fTS47lZigxVoOXPDjM7tL799tuEl6uRQMU594UM6t0uh1/gT79vSXa0NoGupi+J5OxkLYu3Ya278DYzJYlqdezNaajjkd79zUfmuvFZJtVugIt/iYhHyontdCbqiLm9PgE1J14YIJ2IpOmrXho+t/diYokXQeT3xk50+j6Qhi8DQryDJLRqVYedPnfuPKG+8P5U5MGXQ8zD3JKRkc3mC337Y8ei6PffD3LWY4/1YcIAE0r79rexaQYDOAQmlXr1qnC6uP969mymBsR8Re49VTTTu9hUg0EBYezj403mnsTENMNu2rSpxwP6xx//wuUgL2PGdFPaSYRINw08hZ1zZma2emGaugXBgCZFkxYtaqsB2Un97ccpk4TJjyE1NUO9Exox8dDqFYYl+kpPN/09oJ2+b62tn7MfXc6K03ZttkU9O9B4vLvImZ4ZlUVHvk+lOcucacZXxCYPmD3w/sJACR+MO+64gwPCwadi586dbArBwTD4wYETzpEYZLt37658aebwh5X2dwP/B5hHNC0IyDoIAgZuaCpAPqwHUPSNvwVEqh0+fDibVKBdgcMojoUyI4GPBr6c9+zZw8UgP/jIQ6RavckHH4Jw/oRgZo1GaDCgo65GAJAPx1aYTPSCa4LmGloX1IGW5+eff9ZX4ai/Bw4cUD5RVZRGbTZ/dELLAfL12muv0UcffcQECVoW4FjceKF1jvNGH9u3b9eyLLbR6oM0O+EiXd4yn6rc+4aKpBvC+xaVrHbwTtD0XkjrxwtEy87HeJKrnkVVSV+GbrzqtOe8uD+/416vqG3QXRPJRfmcQLsBSQ3fQ2lnTeYnaFI8wlow8Th58iThh4B/sAbgvjRs2JBJK7Qg/4Xc9MSDGaZie1D7wrZYWKjlzEsnTPiiXnoyuVVuoPZLNiPjWm4MVGoYnEE6IAjhnJ+XQ45egebu8OBqkqdIiL1PkLZb5NbF04fS4grIVdSBP7m+j9JmaMQjNrzggYJPg4unaWBPT7zCTp5FHuAaC108vIp1OHVWdSCN7x5pJh54eSK6pZHg6/C5D11o5WYnevPxDHp5XBYt2+hkUzUy1aTp8HfxoyuZBYOEm4+JkGjXj4ZJyvckJbYAe+RpU3AvpFvmo8xI7Byc2FRmVAYSmnv1SwXl/NUCTRRE/zVkyin0/4MHTQMyvsIh3t4evMUXfdeuTZhAYMDFV729+pLSC8LOa4Ive09PEwUPDQ3kQVorO3MmusTEAz4S0E7AiVSTo0fP88B97pxJkxMYaHrOtHJt6+XlZuG4eeDAGS6qVMnfTDwKO2etD6MtTFEQfHho5xUVdUWdUwE5QXlhWKKsOLmQfoFCXE0aHaO6RT07SiFDk5W244KKcPvch66055jp61frB4O79s7CuwwCEwGmkGqCdxsGTGgYoEWAbwdmsaxevZpni2j18OEFk4deQNwxEKPvWbNm6YvM6fnz5xM0jphxAkIBJ1OYLozkscceY23L1KlTLYrfffddgplj2rRpZvIBPw+QEvhJwLSjOY3iCxxTbOHkCq2EkSYDzq9wdMXfP84P5wUCZR3tt2nTpooEj2XnUZAlrS+YbuD3gWtHP2j/5ZdfmrTgJRgv0C9wgJOutfB7/eq7OyP6FBd7qI/GBN373LrN9e47uPvwBAetn8xLJznpgPHkKvHIjCkwE+VlZ6gJFe5add5qYyS2eB7wN/NfyU1PPMDi8ceGBxVsDl8DUCeFh4fT0aMF6lGXijUp7fwhNkM4uHlRWuRhxhw3CM6dmsBr2UZwo9RAYyS4iRB7R2fSW4BzUuJYJac5jjqqBwdmnZzky+ZujLQG5sIiElnq6907ONRco3Ijkzoz8UKByhIM2khiTx2mwJoNmHzER5qYslE9mGyc3EwDnVG5UV5WWgr5X/X/MCpH3toZk6hq03bUsM8IpXXow1oY2HDxcjISqFihil693YGqBjsT1kaAo158kuklrbU5k2q69lC1joeeeKSrGTqQvcu/pPSEK1p1m201z6qUlZdFCVmJNmVGGZ41WlCw8gcykmil3cpOjiW/loNZ3akYJyUrP4+o5dMpK85EkIzaWedpz5Z1fpcujWnHjqPKXPENFy1b9rz6urX8Uy6s7fnzserrs4K5y7AwY7Kbk5PHs1LMFVUCviSYcTNpkq05EOQH2hDMEPnmm9/1zTidkpKhzD8Fx23UqDrngzhpUtg5a+XYwi9DLxERJgK+adN+w+NqdYvqG2QKAs2JkZxOPkO1vGsaFXFeUc9Om8a5ys5O9MLHLrT5b5VQAk0E3lUwtcBZFF/if/31l/LROVuolgEmEQzSXZRTJgbt3bt3s5YkKCjIkFDANwH9/vHHH0xScP1oU5jAbwImE2hG4I9hre3AIIV8aCGgdYDWAhoWCKa74p27YsUKXmcEGkyYPLAOyfTp0wn7uD78HcPvpDhBvyBBIBkawcExq1evzqYd+IXAnA7BewNjAHxNOnXqRFi3RC8YYEHsoAWHgyo04kWNFzD/QDOAcy8ML5hatAkDrkGm5yI14gAfFh+XDm4mLQ9MLhhrjMTOwdkomz+g1cBhU4YPU+eAquZ8V+WHCMlR7xmzGGihUYY1WnDf8EzgPkH7gVlBGobm9v9i4r+jPGV4kfgjgXoSXwCrVq1iVouHDA5VmlRofg87iAZ0uJ8JQYpyMIWkndtHThUqEYiJl3LwgROptaQrlTqm5Looxx3r2S0ZSpMCAuHbYgA/ZJq3csopkxYiqNt49WUcSBW7PcrdavnWxyjN/pmdG5Xnswu1e2gKk4gm/Uezb0f08X3FdgNnUJCSgW8vJb+qtcmrYmXqNXW2ckQteKjRSfTx/VSp4R0U2rQ9eSl/EU0cnJwJP4idUrMjDadSSLhaD8TVy5e6TJ7B5pSQBi2o+VDTdXMF9V+2IiebPniBkpXza88pH5C7bwDhpQcbtdEPLytNotRXI8TD1UT2tHxsk5SJJVr5Ztzh11yfTWf/+p33mw58UF1rJXJ0cVXrl/Qma9+TVv530N5408vDooNCdpKObqYT7/Q1/CUeXE/BPSeTo0cF9vU4NWswXVr9fqlIRyGH5WxoMGBqgQYC5gqQgZLK9u1HuP4997Rmvw84XxrJiRORSh1bTQ0wNc2ahE2bDvDgPHGiMh2pY+Ic4ADr6+vBpANkCKYT+IJgRkvHjg3VQHE3d79z53EmDQ891EO9CEPUANWGtSfHjp03OrxhHmb2YI2Q0NAANXvGNOj9/fdp5SuQw/21bl2P/WA6d26svo47GfZhlLl372l+4cMvxM/Py4aA7Iz7i8I81DRK5bxsJEU9O+5Xn9Xz0QWvWmj3MBBcuHCBB3GQCnwoWQ/2+mPBlABnTJAW+HTAPAPnR8xw0QSDLOz4MC9oM1uw4BgGcjh2gsQbCQZZkAMIfC/gC9GhQweLqvDVwDmDSEBDCQKk1cEW+/BXef7559VzUZEHO9SFpsFacP5Y1wN+eb169eL0ww8/bK6GwRHOrZMnT2atg1aAa4IpR2+SgYYDeSkpKexkCpOR/oeZLRhgUefbb7/lroobL5o0acJtcE8Kk6CujzD58G9/P5tANO01zPmeaq0PR/XOD+g4msca6z4ww9GnQWeug4kFesF4BPOsZ61WvIVPCCRF+YBg7KnQoj/7D1ZoOYg1qZmXTR9c+j70aTwv8AfCzCaY4X788UfWQv2XpAPnZ/n5oD/jmzQNgMFU8cNceIcKV8mHYp/Vx87hq0o+scNsAsGXqG+zflTt/lnspJOdeMnmYYF/iGet1qrOB9z+7Lzx5kEEavSkA+uVHb8PVVBOq+lKk3J+6RR2IIU9DjNbwmqaNBLxf/3IfiZG0Bb1RWZdf8e8mVS9VRce1DGwg0hsmvV8iXw3oAFYNe1B5ZA6l0Z+sYG7Rnv0qZcdX75FvV+aQwPe+oZJzexeNZnkDJuz2lytcd/7CT+s/7Hk0d5MKOC02bD3cP6h4pF135nrI6Fd57Knh9ID8zfToHe/o68f7GJRp7Cd6Csm4tGxWS4tXlvwItfqf3F6Pv2v/hP0VfjXlJOfw9mJUWfphHK6ra20Kx3Gvch5OIeDv5i0BcgIUg6lLfya0iO7J3F5Wfx3dt6j6oWUVhZd2fQB/4wRI+5UL5GpPODHxCSaTSk2la0ysKDXoEHtzIQAWgwPD80TqqAy1suYNm2YmgkxhglCz57TlKp6vRpcQhRBbM0/1M7OzqX5803P0euvL1Xq8zHKma8L/1AOnxQI2rZsWYf9Uu69twOf96xZP3F7rlCC/zB75uGHeyozwGTzOeH406YtUoPlcJ7ZonXz228lJ5HwIcGsoY4dGyhi05AwOwiOpppsi/mD4mrHU9/KvenbiB+0bN4W9+y0bZLH9S7pHKKhvtccSS06M9jBYLl8+XJ22oTJoF+/fmw6wBc8/CQ0Yg7tCbQV8InYunUrf4A988wzPOhgcMZAoy1Ipplc8CWMGS3QGuCc8AEAUw7MODCpgLRgGiq0BNCcnDhxgrUQ2EJAZrDOCGbcYB0QTeBIqpEo1LEWzLKxFs3cpOVbz5DR8uEUianFRv4q0HprZEirjw/QosR6vMD0YnywHjp0yPyusmwPs77SBlZpSDXGfclFmICgSdzuFRRy9/9U2Tw1qy3RxlcD9S5vX0zByj8DdTB+nJw1SGuufDT+VjMbzyjnUdO7KnbLfIrf9QPF//UTedRszY6sgZ0e5LHq4kqFYyFTeTWdCe47np//mmiYL/Bqwk6BbP58bN++vXmutXXFf3If6kJM+/qnBZoH3Gg8ENYC56CcpGgexK3LrmcfGhBnpVHJir9gsvVfT2dWbaEt8FRf8ZfVwJ+n1ImlFWg5XJSG4vLpI0wuStu+sPqOatZLYK0GhEE/LcH2i6ewdsXlOzrk074laeTtYTK1NBlm+aWv/Mnp2/YLFPFYRGsurLfoDl+Dnkq7A0mJVfdCkS1NJtQZx1+0z+ydqmXd8FvM5qhRI1jN3rrIg3hpTxhaAzhSYh2Q0grMHZihEh+frPxFTE65+j4wtRaaFKwfYr2mBhZFq1jRh89bM3Ho215PGqYcOL5iOizIRFlKt+DO9Fjth2jg1hEW3Rb17Jz+KZWcHE2r7Paa5G7Rrrgd+HjAbKAttoXBGgPr2bNn2cfDemooHEJhgoD/BAQ+FdB0wAl1165dnAfzCMgIfB3atm3LPhfwC8HABLKiF2hl4DsBzQqIhja9VV9HIx4gGnriYVQHi3yBHEHbYSTwp0A/IFc4b+vjwdQDLQi2Whoabk2g5QHxsj4PbZ2S0aNHa1WL3AIjEDI4o1qTIeuG0I5nY30mNaboBSYWR++gYp1N9W1KmsYUfvb3SLB8h5W0/Y1S75YiHjcK6HIe146A+pum2qF55K9Wgtyx36SG1PfmYGfKK2zNBX1dLe1oZ5pSXZo2WlvZ3joIYEn+jFxLp9Winp1OzXMJ5sGTEbbaueJQg/kDP8x8gcAxEytvwm+jJIJZJPiY0zQPWhsQCpANlGOwt3bW1OppW212BwiPtYAAYJ2NzZsxvbmAyOvroQ5m7GARspIINDaYKQUSZS04ZxAJzNixXhkVzrEw6+Da9AK/BmBX0uPDVwQaUWhCRP45BIR4/HPYSs+CgCAgCAgCgoAgYIVA6am4VQeyKwgIAoKAICAICAKCQEkREOJRUqSkniAgCAgCgoAgIAhcNwI3BPH4NxxLrxsp6UAQEAQEAUFAEBAErhuBG4J4XPdVSAeCgCAgCAgCgoAgcFMgIMTjprhNcpKCgCAgCAgCgkD5QECIR/m4j3IVgoAgIAgIAoLATYHATUs8sISwu7vxojwIR47V3azFv+0wXknUOl/2BQFBQBAQBAQBQeDfQeCmJB5Y0harrGIdeiNxD21E7tVutylyQ35oY5t8yRAEBAFBQBAQBASBfweBGzpWC1awM1q2FrEFsHodQj7rBREDc1MKj0Aa+e0L+urFphHrRR+QqNgGUkEQEAQEAUFAEBAEikTghiQeCAKEZW6xRC5CLSNaoSaIyIhlcDdu3KhlkbN/Vao64m2O3ocAPnkZKYSw9JrA9IKotJC0c/sp8ntTAB6ErK/xyFd0QQXbSTmxncs9VEC3ygNepDNfjKPed7bkZYURQhhBnUQEAUFAEBAEBAFB4PoQuGFMLTCbICBR//79qXv37kwuEBUxK8syAA+C+CBegT46YUD7kYzC+SXP0eXNX6nw9N4WqMTv/pFOfzycMlTIYn0Y4pzkyyowXIyKKmsK3Y1GSIO0IMwxgitB49G6dWtC0KY77rhDRfK0DExmcSDZEQQEAUFAEBAEBIEiEbghNB7169fn0MwY5BEICRoGo2BIWsCi7dtN2gntytyrNqHk49soPeoI//zbDNOKeJufl0O56Sq4Um6ORT52Eg6sI/92IwhRZPNViGH4gSAMMQQBh/CDyQXhlRG1sGbNmhx86bfffuM68p8gIAgIAoKAICAIlByBG0LjgZDl+EEQ5bCwSIdNmzZl08f58+fNVwjCYO/iTlmxZ8152SpkcEklcf8adWx78q7fibzrdSA7ewdK2PuzRXOcG3xNNH8T7VwtKsmOICAICAKCgCAgCBSLwA2h8Thy5AidPHmS6taty1qF2rVrc9hjhEZGPsIUw8SBMNG7d++2uKj8nCzKy0wjp4Bq5nwnn2DKVmaUkgg0ITDB+DTuQUrlQVlxkZSTGs9NcTxoYypWrMjnAG3Mli1bDLUxJTmW1BEEBAFBQBAQBG51BG4I4oGbkJ2dTYcOHeIfHEjh7wENB5w64VzapEkTrhMeHm5zz9LOHyTvuh0ocd8acqtUl+xdPYl0xANajHy0UpqN/PxcIrUP/QpMKxBoPYK6T1BleRT725ech/9atWrFx4SvB86jME2MuYEkBAFBQBAQBAQBQaBIBG4Y4qE/SziObt68mX0r4Pfh7OxMWLsDxATaD2u5sn0RuQ9/h6rdP4vJA2a16KXm499aOJXWeWoF5WWl06kPh3K1pMObqGK3R03pQ7+am65evZqJhzlDEoKAICAICAKCgCBwXQjYqQHdPJJjUa5t27ZdV4f/RGPMZIFj5w8//GD2s7A5jvLDcK5QmbLVLBWYX0QEAUFAEBAEBAFB4MZD4IbUeFjDdOLECTp+/HjhpAMNlCYE/hkigoAgIAgIAoKAIHDjInBTEI+UFEvTyY0Lp5yZICAICAKCgCAgCBSFwA0xnbaoE5QyQUAQEAQEAUFAECg/CAjxKD/3Uq5EEBAEBAFBQBC44REQ4nHD3yI5QUFAEBAEBAFBoPwgIMSj/NxLuRJBQBAQBAQBQeCGR0CIxw1/i+QEBQFBQBAQBASB8oNAmROPzMrNKc9ZrRwqIggIAoKAICAICAKCgBUCZU48Ejs+S4kdn7E6jOwKAoKAICAICAKCgCCgopaUNQjeOz6ilKajKM+tQll3Lf0JAoKAICAICAKCwE2OQJkTD9dz28ghLY6SW4y9yaGR0xcEBAFBQBAQBASBskagzIkHTtAl6i/KrNra8FyXLFlCS5cupZCQEMNyyRQEBAFBQBAQBASB8ovAP0I8HC+fpGz/2oao2algbhBta1hJMgUBQUAQEAQEAUGgXCLwj8RqcUi7XKiPx8qVK8nJyYni4+PLJaByUYKAICAICAKCgCBQOAL/CPHI8alCDikxhkddvHixYb5kCgKCgCAgCAgCgkD5R+CfIR7KzOIUe8wQvX79+pGHhwetWbOGEhISDOtIpiAgCAgCgoAgIAiUTwTKnHjk2ztSRmgr8t3ytiFi9957Lzk4ONCRI0eEeBgiJJmCgCAgCAgCgkD5RaDMnUvTbruH0fLY940Navb29oQf5PLlyzblkiEICAKCgCAgCAgC5RuBMiceyW0mEBYRs8vNskGuWbNmPJslIiKCoqKibMolQxAQBAQBQUAQEATKNwJlbmoJ+qqXIekAjJUrV6bk5GSaM2dO+UZVrk4QEAQEAUFAEBAEDBGwCw0NzddK2rdvT9u2bdN2ZSsICAKCgCAgCAgCgkCZIlDmppYyPTvpTBAQBAQBQUAQEATKFQJCPMrV7ZSLEQQEAUFAEBAEbmwELEwtN/apytkJAoKAICAICAKCwM2OgGg8bvY7KOcvCAgCgoAgIAjcRAgI8biJbpacqiAgCAgCgoAgcLMjYEM8Wvq3oA4V21KAi7/htdWumkedmucalkmmICAICAKCgCAgCAgCRSFgQzwa+NSnJ+o+RkvbzTckH9WC82jhq+kUGpRXVL9SJggIAoKAICAICAKCgA0CNsTjq/CvafQf47lifZ+6Ng027HKkhGQ7mvmE7cqkNpUlQxAQBAQBQUAQEAQEAR0CNsQDZSk5KZSbn0tu9q66qgXJBT87UdvGOeTlbl57rKBQUoKAICAICAKCgCAgCBSCgCHxQF0mHo5uhs3W7nBQMVeI2jax9fWYOHEiLV26lF5//XXDtpIpCAgCgoAgIAgIArcuAoUSj+NJJ6lbcGfydfaxQefYWQfOa1Hflng4OprCv2hbm8aSIQgIAoKAICAICAK3LAKFEo8Pjn9Cld1CaFn7RTTltqcsAMpVfqU5inOEKkdTa9m4cSOtWbOGVq1aZV0k+4KAICAICAKCgCBwiyNQaHTah2uNoRzl5/G/vS/S8eSTFjC5OBM5KqXH8auaD33hwYMHCT8RQUAQEAQEAUFAEBAErBEolHg0rdCYFoQvpr3x+63bUJPaJhPL7iMmk4u+Qo0aNahVq1YUGRlJW7du1RdJWhAQBAQBQUAQEARucQQKJR4Odg4UnxVvCM+Qbtlsatl12NZS06FDB+rVqxfFxsYK8TBETzIFAUFAEBAEBIFbF4H/ByddvsoPQwmLAAAAAElFTkSuQmCC;" vertex="1" parent="1">
                    <mxGeometry x="560" y="300" width="542" height="302" as="geometry"/>
                </mxCell>
                <mxCell id="sV2zp9CzRk4rJG-wNQsg-4" value="&lt;font style=&quot;font-size: 24px;&quot;&gt;useImperativeHandle中返回的对象，对应的就是父组件inputRef.current中的内容&lt;/font&gt;" style="text;html=1;align=center;verticalAlign=middle;resizable=0;points=[];autosize=1;strokeColor=none;fillColor=none;" vertex="1" parent="1">
                    <mxGeometry x="20" y="230" width="880" height="40" as="geometry"/>
                </mxCell>
                <mxCell id="sV2zp9CzRk4rJG-wNQsg-5" value="" style="endArrow=classic;html=1;fontSize=24;entryX=0;entryY=0.25;entryDx=0;entryDy=0;" edge="1" parent="1" source="sV2zp9CzRk4rJG-wNQsg-2" target="sV2zp9CzRk4rJG-wNQsg-3">
                    <mxGeometry width="50" height="50" relative="1" as="geometry">
                        <mxPoint x="440" y="420" as="sourcePoint"/>
                        <mxPoint x="490" y="370" as="targetPoint"/>
                    </mxGeometry>
                </mxCell>
            </root>
        </mxGraphModel>
    </diagram>
    <diagram id="J-266-mLWXOQ7aJFZEAq" name="第 2 页">
        <mxGraphModel dx="1375" dy="825" grid="1" gridSize="10" guides="1" tooltips="1" connect="1" arrows="1" fold="1" page="1" pageScale="1" pageWidth="827" pageHeight="1169" math="0" shadow="0">
            <root>
                <mxCell id="0"/>
                <mxCell id="1" parent="0"/>
            </root>
        </mxGraphModel>
    </diagram>
</mxfile>